<svg width="150" height="138" viewBox="0 0 150 138" fill="none" xmlns="http://www.w3.org/2000/svg">
<rect width="150" height="138" rx="4.18867" fill="white"/>
<line opacity="0.1" x1="19.15" y1="66.85" x2="134.85" y2="66.85" stroke="#999999" stroke-width="0.3" stroke-linecap="round"/>
<path opacity="0.4" d="M24.34 120.327C24.1473 120.327 23.9742 120.294 23.8206 120.227C23.6698 120.157 23.5512 120.062 23.4646 119.942C23.378 119.819 23.3333 119.678 23.3306 119.519H23.7369C23.7508 119.656 23.8067 119.771 23.9044 119.866C24.0049 119.959 24.1501 120.005 24.34 120.005C24.5215 120.005 24.6639 119.96 24.7673 119.871C24.8734 119.778 24.9264 119.661 24.9264 119.519C24.9264 119.407 24.8957 119.316 24.8343 119.246C24.7728 119.177 24.6961 119.124 24.6039 119.087C24.5118 119.051 24.3875 119.012 24.2311 118.97C24.0384 118.92 23.8835 118.87 23.7662 118.819C23.6517 118.769 23.5526 118.691 23.4688 118.585C23.3878 118.476 23.3473 118.331 23.3473 118.149C23.3473 117.99 23.3878 117.849 23.4688 117.726C23.5498 117.603 23.6629 117.508 23.8081 117.441C23.9561 117.374 24.125 117.341 24.3149 117.341C24.5885 117.341 24.8119 117.409 24.9851 117.546C25.161 117.683 25.2601 117.864 25.2825 118.09H24.8636C24.8496 117.979 24.791 117.881 24.6877 117.797C24.5844 117.711 24.4475 117.667 24.2772 117.667C24.118 117.667 23.9882 117.709 23.8876 117.793C23.7871 117.874 23.7369 117.989 23.7369 118.136C23.7369 118.243 23.7662 118.329 23.8248 118.396C23.8862 118.463 23.9602 118.515 24.0468 118.551C24.1362 118.585 24.2604 118.624 24.4196 118.668C24.6123 118.722 24.7673 118.775 24.8845 118.828C25.0018 118.878 25.1024 118.957 25.1861 119.066C25.2699 119.172 25.3118 119.318 25.3118 119.502C25.3118 119.644 25.2741 119.778 25.1987 119.904C25.1233 120.03 25.0116 120.132 24.8636 120.21C24.7156 120.288 24.5411 120.327 24.34 120.327ZM27.967 119.062C27.967 119.135 27.9629 119.212 27.9545 119.293H26.1198C26.1338 119.519 26.2106 119.696 26.3502 119.825C26.4926 119.95 26.6644 120.013 26.8654 120.013C27.0302 120.013 27.167 119.975 27.2759 119.9C27.3876 119.822 27.4658 119.718 27.5105 119.59H27.921C27.8595 119.811 27.7367 119.991 27.5524 120.13C27.3681 120.267 27.1391 120.336 26.8654 120.336C26.6476 120.336 26.4521 120.287 26.279 120.189C26.1087 120.091 25.9746 119.953 25.8769 119.774C25.7792 119.593 25.7303 119.383 25.7303 119.146C25.7303 118.909 25.7778 118.701 25.8727 118.522C25.9677 118.343 26.1003 118.206 26.2706 118.111C26.4438 118.014 26.642 117.965 26.8654 117.965C27.0832 117.965 27.2759 118.012 27.4435 118.107C27.611 118.202 27.7395 118.333 27.8288 118.501C27.921 118.666 27.967 118.853 27.967 119.062ZM27.5733 118.983C27.5733 118.837 27.5412 118.713 27.477 118.61C27.4127 118.504 27.3248 118.424 27.2131 118.371C27.1042 118.315 26.9827 118.287 26.8487 118.287C26.656 118.287 26.4912 118.349 26.3544 118.472C26.2204 118.594 26.1436 118.765 26.124 118.983H27.5733ZM31.2305 117.961C31.4092 117.961 31.5684 117.998 31.708 118.074C31.8476 118.146 31.9579 118.257 32.0389 118.405C32.1199 118.553 32.1604 118.733 32.1604 118.945V120.298H31.7834V118.999C31.7834 118.77 31.7262 118.596 31.6117 118.476C31.5 118.353 31.3478 118.291 31.1551 118.291C30.9568 118.291 30.7991 118.356 30.6818 118.484C30.5645 118.61 30.5059 118.793 30.5059 119.033V120.298H30.1289V118.999C30.1289 118.77 30.0716 118.596 29.9572 118.476C29.8455 118.353 29.6933 118.291 29.5006 118.291C29.3023 118.291 29.1445 118.356 29.0273 118.484C28.91 118.61 28.8513 118.793 28.8513 119.033V120.298H28.4702V118.002H28.8513V118.333C28.9267 118.213 29.0273 118.121 29.1529 118.057C29.2814 117.993 29.4224 117.961 29.576 117.961C29.7687 117.961 29.939 118.004 30.087 118.09C30.235 118.177 30.3453 118.304 30.4179 118.472C30.4821 118.31 30.5882 118.184 30.7362 118.095C30.8842 118.005 31.049 117.961 31.2305 117.961ZM33.739 117.617V117.269H34.5265V120.298H34.1411V117.617H33.739Z" fill="black"/>
<path opacity="0.4" d="M15.241 97.7919C15.5956 97.5071 15.8735 97.2739 16.0745 97.0924C16.2756 96.9081 16.4445 96.7168 16.5813 96.5185C16.721 96.3175 16.7908 96.1206 16.7908 95.9279C16.7908 95.7464 16.7461 95.604 16.6567 95.5007C16.5702 95.3946 16.4292 95.3415 16.2337 95.3415C16.0438 95.3415 15.8958 95.4016 15.7897 95.5216C15.6864 95.6389 15.6305 95.7967 15.6221 95.9949H15.2535C15.2647 95.6822 15.3596 95.4406 15.5384 95.2703C15.7171 95.1 15.9475 95.0148 16.2295 95.0148C16.5171 95.0148 16.7447 95.0944 16.9122 95.2536C17.0826 95.4127 17.1678 95.6319 17.1678 95.9112C17.1678 96.1429 17.0979 96.3691 16.9583 96.5897C16.8215 96.8075 16.6651 97.0002 16.4892 97.1678C16.3133 97.3325 16.0885 97.5252 15.8148 97.7458H17.2557V98.0641H15.241V97.7919Z" fill="black"/>
<path opacity="0.4" d="M15.1949 82.7631V82.4741L16.6651 80.4384H17.1217V82.4322H17.5405V82.7631H17.1217V83.4375H16.7447V82.7631H15.1949ZM16.7615 80.8363L15.6347 82.4322H16.7615V80.8363Z" fill="black"/>
<path opacity="0.4" d="M16.9751 65.6315C16.9136 65.3215 16.7224 65.1666 16.4012 65.1666C16.1527 65.1666 15.967 65.2629 15.8441 65.4556C15.7213 65.6455 15.6612 65.9596 15.664 66.398C15.7282 66.2528 15.8344 66.1397 15.9824 66.0587C16.1332 65.975 16.3007 65.9331 16.485 65.9331C16.7726 65.9331 17.0016 66.0224 17.1719 66.2012C17.3451 66.3799 17.4316 66.627 17.4316 66.9426C17.4316 67.1324 17.3939 67.3028 17.3185 67.4536C17.2459 67.6044 17.1342 67.7244 16.9835 67.8138C16.8355 67.9032 16.6553 67.9478 16.4431 67.9478C16.1555 67.9478 15.9307 67.8836 15.7687 67.7552C15.6068 67.6267 15.4937 67.4494 15.4295 67.2232C15.3652 66.997 15.3331 66.7178 15.3331 66.3855C15.3331 65.3606 15.6905 64.8482 16.4054 64.8482C16.6791 64.8482 16.8941 64.9222 17.0505 65.0702C17.2068 65.2182 17.299 65.4053 17.3269 65.6315H16.9751ZM16.4054 66.2556C16.2853 66.2556 16.1722 66.2807 16.0661 66.331C15.96 66.3785 15.8735 66.4525 15.8064 66.553C15.7422 66.6507 15.7101 66.7708 15.7101 66.9132C15.7101 67.1255 15.7715 67.2986 15.8944 67.4326C16.0173 67.5639 16.1932 67.6295 16.4222 67.6295C16.6176 67.6295 16.7726 67.5695 16.8871 67.4494C17.0044 67.3265 17.063 67.1618 17.063 66.9551C17.063 66.7373 17.0072 66.567 16.8955 66.4441C16.7838 66.3184 16.6204 66.2556 16.4054 66.2556Z" fill="black"/>
<path opacity="0.4" d="M15.8399 51.7044C15.6836 51.6429 15.5635 51.5536 15.4797 51.4363C15.3959 51.319 15.3541 51.1766 15.3541 51.009C15.3541 50.8582 15.3918 50.7228 15.4672 50.6027C15.5425 50.4799 15.6542 50.3835 15.8022 50.3137C15.953 50.2411 16.1345 50.2048 16.3468 50.2048C16.559 50.2048 16.7391 50.2411 16.8871 50.3137C17.0379 50.3835 17.151 50.4799 17.2264 50.6027C17.3046 50.7228 17.3437 50.8582 17.3437 51.009C17.3437 51.171 17.3004 51.3134 17.2138 51.4363C17.1273 51.5564 17.0086 51.6457 16.8578 51.7044C17.0309 51.7574 17.1678 51.851 17.2683 51.985C17.3716 52.1162 17.4233 52.2754 17.4233 52.4625C17.4233 52.644 17.3786 52.8032 17.2892 52.94C17.1999 53.0741 17.0728 53.1788 16.9081 53.2542C16.7461 53.3268 16.559 53.3631 16.3468 53.3631C16.1345 53.3631 15.9475 53.3268 15.7855 53.2542C15.6263 53.1788 15.5021 53.0741 15.4127 52.94C15.3233 52.8032 15.2787 52.644 15.2787 52.4625C15.2787 52.2754 15.3289 52.1148 15.4295 51.9808C15.53 51.8468 15.6668 51.7546 15.8399 51.7044ZM16.9751 51.0551C16.9751 50.8848 16.9192 50.7535 16.8075 50.6614C16.6958 50.5692 16.5422 50.5232 16.3468 50.5232C16.1541 50.5232 16.0019 50.5692 15.8902 50.6614C15.7785 50.7535 15.7227 50.8862 15.7227 51.0593C15.7227 51.2157 15.7799 51.3413 15.8944 51.4363C16.0117 51.5312 16.1625 51.5787 16.3468 51.5787C16.5339 51.5787 16.6847 51.5312 16.7991 51.4363C16.9164 51.3385 16.9751 51.2115 16.9751 51.0551ZM16.3468 51.8719C16.1401 51.8719 15.9712 51.9208 15.8399 52.0185C15.7087 52.1135 15.6431 52.2573 15.6431 52.4499C15.6431 52.6287 15.7059 52.7725 15.8316 52.8814C15.96 52.9903 16.1318 53.0447 16.3468 53.0447C16.5618 53.0447 16.7321 52.9903 16.8578 52.8814C16.9835 52.7725 17.0463 52.6287 17.0463 52.4499C17.0463 52.2628 16.9821 52.1204 16.8536 52.0227C16.7251 51.9222 16.5562 51.8719 16.3468 51.8719Z" fill="black"/>
<path opacity="0.4" d="M15.1865 37.6137V37.266H15.974V40.2944H15.5886V37.6137H15.1865ZM16.6287 38.7488C16.6287 38.2685 16.7069 37.8943 16.8633 37.6263C17.0197 37.3554 17.2933 37.22 17.6843 37.22C18.0724 37.22 18.3447 37.3554 18.5011 37.6263C18.6574 37.8943 18.7356 38.2685 18.7356 38.7488C18.7356 39.2375 18.6574 39.6173 18.5011 39.8881C18.3447 40.159 18.0724 40.2944 17.6843 40.2944C17.2933 40.2944 17.0197 40.159 16.8633 39.8881C16.7069 39.6173 16.6287 39.2375 16.6287 38.7488ZM18.3586 38.7488C18.3586 38.5059 18.3419 38.3006 18.3084 38.1331C18.2777 37.9627 18.212 37.8259 18.1115 37.7226C18.0138 37.6193 17.8714 37.5676 17.6843 37.5676C17.4944 37.5676 17.3492 37.6193 17.2486 37.7226C17.1509 37.8259 17.0853 37.9627 17.0518 38.1331C17.0211 38.3006 17.0057 38.5059 17.0057 38.7488C17.0057 39.0001 17.0211 39.211 17.0518 39.3813C17.0853 39.5516 17.1509 39.6885 17.2486 39.7918C17.3492 39.8951 17.4944 39.9468 17.6843 39.9468C17.8714 39.9468 18.0138 39.8951 18.1115 39.7918C18.212 39.6885 18.2777 39.5516 18.3084 39.3813C18.3419 39.211 18.3586 39.0001 18.3586 38.7488Z" fill="black"/>
<path opacity="0.4" d="M43.0822 120.327C42.8895 120.327 42.7164 120.294 42.5628 120.227C42.412 120.157 42.2933 120.062 42.2068 119.942C42.1202 119.819 42.0755 119.678 42.0727 119.519H42.479C42.493 119.656 42.5489 119.771 42.6466 119.866C42.7471 119.959 42.8923 120.005 43.0822 120.005C43.2637 120.005 43.4061 119.96 43.5095 119.871C43.6156 119.778 43.6686 119.661 43.6686 119.519C43.6686 119.407 43.6379 119.316 43.5765 119.246C43.515 119.177 43.4382 119.124 43.3461 119.087C43.2539 119.051 43.1297 119.012 42.9733 118.97C42.7806 118.92 42.6256 118.87 42.5084 118.819C42.3939 118.769 42.2947 118.691 42.211 118.585C42.13 118.476 42.0895 118.331 42.0895 118.149C42.0895 117.99 42.13 117.849 42.211 117.726C42.2919 117.603 42.405 117.508 42.5502 117.441C42.6982 117.374 42.8672 117.341 43.0571 117.341C43.3307 117.341 43.5541 117.409 43.7273 117.546C43.9032 117.683 44.0023 117.864 44.0247 118.09H43.6058C43.5918 117.979 43.5332 117.881 43.4299 117.797C43.3265 117.711 43.1897 117.667 43.0194 117.667C42.8602 117.667 42.7304 117.709 42.6298 117.793C42.5293 117.874 42.479 117.989 42.479 118.136C42.479 118.243 42.5084 118.329 42.567 118.396C42.6284 118.463 42.7024 118.515 42.789 118.551C42.8784 118.585 43.0026 118.624 43.1618 118.668C43.3545 118.722 43.5095 118.775 43.6267 118.828C43.744 118.878 43.8445 118.957 43.9283 119.066C44.0121 119.172 44.054 119.318 44.054 119.502C44.054 119.644 44.0163 119.778 43.9409 119.904C43.8655 120.03 43.7538 120.132 43.6058 120.21C43.4578 120.288 43.2833 120.327 43.0822 120.327ZM46.7092 119.062C46.7092 119.135 46.705 119.212 46.6967 119.293H44.862C44.876 119.519 44.9528 119.696 45.0924 119.825C45.2348 119.95 45.4066 120.013 45.6076 120.013C45.7724 120.013 45.9092 119.975 46.0181 119.9C46.1298 119.822 46.208 119.718 46.2527 119.59H46.6632C46.6017 119.811 46.4789 119.991 46.2946 120.13C46.1103 120.267 45.8813 120.336 45.6076 120.336C45.3898 120.336 45.1943 120.287 45.0212 120.189C44.8509 120.091 44.7168 119.953 44.6191 119.774C44.5214 119.593 44.4725 119.383 44.4725 119.146C44.4725 118.909 44.52 118.701 44.6149 118.522C44.7098 118.343 44.8425 118.206 45.0128 118.111C45.186 118.014 45.3842 117.965 45.6076 117.965C45.8254 117.965 46.0181 118.012 46.1856 118.107C46.3532 118.202 46.4816 118.333 46.571 118.501C46.6632 118.666 46.7092 118.853 46.7092 119.062ZM46.3155 118.983C46.3155 118.837 46.2834 118.713 46.2192 118.61C46.1549 118.504 46.067 118.424 45.9553 118.371C45.8464 118.315 45.7249 118.287 45.5909 118.287C45.3982 118.287 45.2334 118.349 45.0966 118.472C44.9626 118.594 44.8858 118.765 44.8662 118.983H46.3155ZM49.9727 117.961C50.1514 117.961 50.3106 117.998 50.4502 118.074C50.5898 118.146 50.7001 118.257 50.7811 118.405C50.8621 118.553 50.9026 118.733 50.9026 118.945V120.298H50.5256V118.999C50.5256 118.77 50.4684 118.596 50.3539 118.476C50.2422 118.353 50.09 118.291 49.8973 118.291C49.699 118.291 49.5413 118.356 49.424 118.484C49.3067 118.61 49.2481 118.793 49.2481 119.033V120.298H48.8711V118.999C48.8711 118.77 48.8138 118.596 48.6993 118.476C48.5876 118.353 48.4355 118.291 48.2428 118.291C48.0445 118.291 47.8867 118.356 47.7695 118.484C47.6522 118.61 47.5935 118.793 47.5935 119.033V120.298H47.2124V118.002H47.5935V118.333C47.6689 118.213 47.7695 118.121 47.8951 118.057C48.0236 117.993 48.1646 117.961 48.3182 117.961C48.5108 117.961 48.6812 118.004 48.8292 118.09C48.9772 118.177 49.0875 118.304 49.1601 118.472C49.2243 118.31 49.3304 118.184 49.4784 118.095C49.6264 118.005 49.7912 117.961 49.9727 117.961ZM52.5356 119.992C52.8903 119.707 53.1681 119.474 53.3692 119.293C53.5702 119.108 53.7392 118.917 53.876 118.719C54.0156 118.518 54.0854 118.321 54.0854 118.128C54.0854 117.947 54.0408 117.804 53.9514 117.701C53.8648 117.595 53.7238 117.542 53.5283 117.542C53.3385 117.542 53.1905 117.602 53.0843 117.722C52.981 117.839 52.9252 117.997 52.9168 118.195H52.5482C52.5594 117.882 52.6543 117.641 52.833 117.471C53.0117 117.3 53.2421 117.215 53.5242 117.215C53.8118 117.215 54.0394 117.295 54.2069 117.454C54.3772 117.613 54.4624 117.832 54.4624 118.111C54.4624 118.343 54.3926 118.569 54.253 118.79C54.1162 119.008 53.9598 119.2 53.7839 119.368C53.6079 119.533 53.3831 119.725 53.1095 119.946H54.5504V120.264H52.5356V119.992Z" fill="black"/>
<path opacity="0.4" d="M59.4181 120.327C59.2255 120.327 59.0523 120.294 58.8987 120.227C58.748 120.157 58.6293 120.062 58.5427 119.942C58.4561 119.819 58.4115 119.678 58.4087 119.519H58.815C58.8289 119.656 58.8848 119.771 58.9825 119.866C59.0831 119.959 59.2283 120.005 59.4181 120.005C59.5997 120.005 59.7421 119.96 59.8454 119.871C59.9515 119.778 60.0046 119.661 60.0046 119.519C60.0046 119.407 59.9738 119.316 59.9124 119.246C59.851 119.177 59.7742 119.124 59.682 119.087C59.5899 119.051 59.4656 119.012 59.3092 118.97C59.1166 118.92 58.9616 118.87 58.8443 118.819C58.7298 118.769 58.6307 118.691 58.5469 118.585C58.4659 118.476 58.4254 118.331 58.4254 118.149C58.4254 117.99 58.4659 117.849 58.5469 117.726C58.6279 117.603 58.741 117.508 58.8862 117.441C59.0342 117.374 59.2031 117.341 59.393 117.341C59.6667 117.341 59.8901 117.409 60.0632 117.546C60.2391 117.683 60.3383 117.864 60.3606 118.09H59.9417C59.9278 117.979 59.8691 117.881 59.7658 117.797C59.6625 117.711 59.5257 117.667 59.3553 117.667C59.1961 117.667 59.0663 117.709 58.9658 117.793C58.8652 117.874 58.815 117.989 58.815 118.136C58.815 118.243 58.8443 118.329 58.9029 118.396C58.9644 118.463 59.0384 118.515 59.1249 118.551C59.2143 118.585 59.3386 118.624 59.4977 118.668C59.6904 118.722 59.8454 118.775 59.9627 118.828C60.08 118.878 60.1805 118.957 60.2643 119.066C60.348 119.172 60.3899 119.318 60.3899 119.502C60.3899 119.644 60.3522 119.778 60.2768 119.904C60.2014 120.03 60.0897 120.132 59.9417 120.21C59.7937 120.288 59.6192 120.327 59.4181 120.327ZM63.0452 119.062C63.0452 119.135 63.041 119.212 63.0326 119.293H61.198C61.2119 119.519 61.2887 119.696 61.4283 119.825C61.5708 119.95 61.7425 120.013 61.9435 120.013C62.1083 120.013 62.2451 119.975 62.354 119.9C62.4657 119.822 62.5439 119.718 62.5886 119.59H62.9991C62.9377 119.811 62.8148 119.991 62.6305 120.13C62.4462 120.267 62.2172 120.336 61.9435 120.336C61.7257 120.336 61.5303 120.287 61.3571 120.189C61.1868 120.091 61.0528 119.953 60.955 119.774C60.8573 119.593 60.8084 119.383 60.8084 119.146C60.8084 118.909 60.8559 118.701 60.9508 118.522C61.0458 118.343 61.1784 118.206 61.3488 118.111C61.5219 118.014 61.7202 117.965 61.9435 117.965C62.1614 117.965 62.354 118.012 62.5216 118.107C62.6891 118.202 62.8176 118.333 62.9069 118.501C62.9991 118.666 63.0452 118.853 63.0452 119.062ZM62.6514 118.983C62.6514 118.837 62.6193 118.713 62.5551 118.61C62.4909 118.504 62.4029 118.424 62.2912 118.371C62.1823 118.315 62.0608 118.287 61.9268 118.287C61.7341 118.287 61.5694 118.349 61.4325 118.472C61.2985 118.594 61.2217 118.765 61.2022 118.983H62.6514ZM66.3086 117.961C66.4873 117.961 66.6465 117.998 66.7861 118.074C66.9258 118.146 67.0361 118.257 67.117 118.405C67.198 118.553 67.2385 118.733 67.2385 118.945V120.298H66.8615V118.999C66.8615 118.77 66.8043 118.596 66.6898 118.476C66.5781 118.353 66.4259 118.291 66.2332 118.291C66.035 118.291 65.8772 118.356 65.7599 118.484C65.6426 118.61 65.584 118.793 65.584 119.033V120.298H65.207V118.999C65.207 118.77 65.1498 118.596 65.0353 118.476C64.9236 118.353 64.7714 118.291 64.5787 118.291C64.3804 118.291 64.2227 118.356 64.1054 118.484C63.9881 118.61 63.9295 118.793 63.9295 119.033V120.298H63.5483V118.002H63.9295V118.333C64.0049 118.213 64.1054 118.121 64.2311 118.057C64.3595 117.993 64.5005 117.961 64.6541 117.961C64.8468 117.961 65.0171 118.004 65.1651 118.09C65.3131 118.177 65.4234 118.304 65.496 118.472C65.5603 118.31 65.6664 118.184 65.8144 118.095C65.9624 118.005 66.1271 117.961 66.3086 117.961ZM68.9093 118.032C68.9288 117.775 69.0279 117.574 69.2067 117.429C69.3854 117.283 69.6172 117.211 69.902 117.211C70.0919 117.211 70.2552 117.246 70.3921 117.316C70.5317 117.383 70.6364 117.475 70.7062 117.592C70.7788 117.709 70.8151 117.842 70.8151 117.99C70.8151 118.163 70.7648 118.312 70.6643 118.438C70.5666 118.564 70.4381 118.645 70.279 118.681V118.702C70.4605 118.747 70.6043 118.835 70.7104 118.966C70.8165 119.097 70.8696 119.269 70.8696 119.481C70.8696 119.64 70.8333 119.784 70.7607 119.912C70.6881 120.038 70.5791 120.137 70.4339 120.21C70.2887 120.282 70.1142 120.319 69.9104 120.319C69.6144 120.319 69.3714 120.242 69.1815 120.088C68.9916 119.932 68.8855 119.711 68.8632 119.427H69.2318C69.2513 119.594 69.3198 119.731 69.437 119.837C69.5543 119.943 69.7107 119.996 69.9062 119.996C70.1016 119.996 70.2496 119.946 70.3502 119.845C70.4535 119.742 70.5052 119.61 70.5052 119.448C70.5052 119.238 70.4353 119.087 70.2957 118.995C70.1561 118.903 69.9453 118.857 69.6632 118.857H69.5669V118.539H69.6674C69.9243 118.536 70.1184 118.494 70.2496 118.413C70.3809 118.329 70.4465 118.201 70.4465 118.028C70.4465 117.88 70.3976 117.761 70.2999 117.672C70.205 117.582 70.0681 117.538 69.8894 117.538C69.7163 117.538 69.5767 117.582 69.4705 117.672C69.3644 117.761 69.3016 117.881 69.2821 118.032H68.9093Z" fill="black"/>
<path opacity="0.4" d="M78.6857 120.327C78.493 120.327 78.3199 120.294 78.1663 120.227C78.0155 120.157 77.8969 120.062 77.8103 119.942C77.7237 119.819 77.679 119.678 77.6763 119.519H78.0826C78.0965 119.656 78.1524 119.771 78.2501 119.866C78.3506 119.959 78.4958 120.005 78.6857 120.005C78.8672 120.005 79.0096 119.96 79.113 119.871C79.2191 119.778 79.2721 119.661 79.2721 119.519C79.2721 119.407 79.2414 119.316 79.18 119.246C79.1186 119.177 79.0418 119.124 78.9496 119.087C78.8575 119.051 78.7332 119.012 78.5768 118.97C78.3841 118.92 78.2292 118.87 78.1119 118.819C77.9974 118.769 77.8983 118.691 77.8145 118.585C77.7335 118.476 77.693 118.331 77.693 118.149C77.693 117.99 77.7335 117.849 77.8145 117.726C77.8955 117.603 78.0086 117.508 78.1538 117.441C78.3018 117.374 78.4707 117.341 78.6606 117.341C78.9343 117.341 79.1576 117.409 79.3308 117.546C79.5067 117.683 79.6058 117.864 79.6282 118.09H79.2093C79.1953 117.979 79.1367 117.881 79.0334 117.797C78.9301 117.711 78.7932 117.667 78.6229 117.667C78.4637 117.667 78.3339 117.709 78.2333 117.793C78.1328 117.874 78.0826 117.989 78.0826 118.136C78.0826 118.243 78.1119 118.329 78.1705 118.396C78.232 118.463 78.306 118.515 78.3925 118.551C78.4819 118.585 78.6061 118.624 78.7653 118.668C78.958 118.722 79.113 118.775 79.2302 118.828C79.3475 118.878 79.4481 118.957 79.5318 119.066C79.6156 119.172 79.6575 119.318 79.6575 119.502C79.6575 119.644 79.6198 119.778 79.5444 119.904C79.469 120.03 79.3573 120.132 79.2093 120.21C79.0613 120.288 78.8868 120.327 78.6857 120.327ZM82.3127 119.062C82.3127 119.135 82.3086 119.212 82.3002 119.293H80.4655C80.4795 119.519 80.5563 119.696 80.6959 119.825C80.8383 119.95 81.0101 120.013 81.2111 120.013C81.3759 120.013 81.5127 119.975 81.6216 119.9C81.7333 119.822 81.8115 119.718 81.8562 119.59H82.2667C82.2052 119.811 82.0824 119.991 81.8981 120.13C81.7138 120.267 81.4848 120.336 81.2111 120.336C80.9933 120.336 80.7978 120.287 80.6247 120.189C80.4544 120.091 80.3203 119.953 80.2226 119.774C80.1249 119.593 80.076 119.383 80.076 119.146C80.076 118.909 80.1235 118.701 80.2184 118.522C80.3134 118.343 80.446 118.206 80.6163 118.111C80.7895 118.014 80.9877 117.965 81.2111 117.965C81.4289 117.965 81.6216 118.012 81.7892 118.107C81.9567 118.202 82.0852 118.333 82.1745 118.501C82.2667 118.666 82.3127 118.853 82.3127 119.062ZM81.919 118.983C81.919 118.837 81.8869 118.713 81.8227 118.61C81.7584 118.504 81.6705 118.424 81.5588 118.371C81.4499 118.315 81.3284 118.287 81.1944 118.287C81.0017 118.287 80.8369 118.349 80.7001 118.472C80.5661 118.594 80.4893 118.765 80.4697 118.983H81.919ZM85.5762 117.961C85.7549 117.961 85.9141 117.998 86.0537 118.074C86.1933 118.146 86.3036 118.257 86.3846 118.405C86.4656 118.553 86.5061 118.733 86.5061 118.945V120.298H86.1291V118.999C86.1291 118.77 86.0719 118.596 85.9574 118.476C85.8457 118.353 85.6935 118.291 85.5008 118.291C85.3025 118.291 85.1448 118.356 85.0275 118.484C84.9102 118.61 84.8516 118.793 84.8516 119.033V120.298H84.4746V118.999C84.4746 118.77 84.4173 118.596 84.3029 118.476C84.1912 118.353 84.039 118.291 83.8463 118.291C83.648 118.291 83.4903 118.356 83.373 118.484C83.2557 118.61 83.197 118.793 83.197 119.033V120.298H82.8159V118.002H83.197V118.333C83.2724 118.213 83.373 118.121 83.4986 118.057C83.6271 117.993 83.7681 117.961 83.9217 117.961C84.1144 117.961 84.2847 118.004 84.4327 118.09C84.5807 118.177 84.691 118.304 84.7636 118.472C84.8278 118.31 84.9339 118.184 85.0819 118.095C85.2299 118.005 85.3947 117.961 85.5762 117.961ZM88.0931 119.623V119.334L89.5633 117.299H90.0199V119.293H90.4387V119.623H90.0199V120.298H89.6429V119.623H88.0931ZM89.6596 117.697L88.5329 119.293H89.6596V117.697Z" fill="black"/>
<path opacity="0.4" d="M97.5334 120.327C97.3407 120.327 97.1676 120.294 97.014 120.227C96.8632 120.157 96.7445 120.062 96.6579 119.942C96.5714 119.819 96.5267 119.678 96.5239 119.519H96.9302C96.9442 119.656 97 119.771 97.0978 119.866C97.1983 119.959 97.3435 120.005 97.5334 120.005C97.7149 120.005 97.8573 119.96 97.9606 119.871C98.0667 119.778 98.1198 119.661 98.1198 119.519C98.1198 119.407 98.0891 119.316 98.0276 119.246C97.9662 119.177 97.8894 119.124 97.7973 119.087C97.7051 119.051 97.5809 119.012 97.4245 118.97C97.2318 118.92 97.0768 118.87 96.9595 118.819C96.845 118.769 96.7459 118.691 96.6621 118.585C96.5812 118.476 96.5407 118.331 96.5407 118.149C96.5407 117.99 96.5812 117.849 96.6621 117.726C96.7431 117.603 96.8562 117.508 97.0014 117.441C97.1494 117.374 97.3184 117.341 97.5082 117.341C97.7819 117.341 98.0053 117.409 98.1784 117.546C98.3544 117.683 98.4535 117.864 98.4758 118.09H98.057C98.043 117.979 97.9844 117.881 97.881 117.797C97.7777 117.711 97.6409 117.667 97.4705 117.667C97.3114 117.667 97.1815 117.709 97.081 117.793C96.9805 117.874 96.9302 117.989 96.9302 118.136C96.9302 118.243 96.9595 118.329 97.0182 118.396C97.0796 118.463 97.1536 118.515 97.2402 118.551C97.3295 118.585 97.4538 118.624 97.613 118.668C97.8056 118.722 97.9606 118.775 98.0779 118.828C98.1952 118.878 98.2957 118.957 98.3795 119.066C98.4633 119.172 98.5051 119.318 98.5051 119.502C98.5051 119.644 98.4675 119.778 98.3921 119.904C98.3167 120.03 98.205 120.132 98.057 120.21C97.909 120.288 97.7344 120.327 97.5334 120.327ZM101.16 119.062C101.16 119.135 101.156 119.212 101.148 119.293H99.3132C99.3272 119.519 99.404 119.696 99.5436 119.825C99.686 119.95 99.8577 120.013 100.059 120.013C100.224 120.013 100.36 119.975 100.469 119.9C100.581 119.822 100.659 119.718 100.704 119.59H101.114C101.053 119.811 100.93 119.991 100.746 120.13C100.561 120.267 100.332 120.336 100.059 120.336C99.841 120.336 99.6455 120.287 99.4724 120.189C99.302 120.091 99.168 119.953 99.0703 119.774C98.9725 119.593 98.9237 119.383 98.9237 119.146C98.9237 118.909 98.9711 118.701 99.0661 118.522C99.161 118.343 99.2937 118.206 99.464 118.111C99.6371 118.014 99.8354 117.965 100.059 117.965C100.277 117.965 100.469 118.012 100.637 118.107C100.804 118.202 100.933 118.333 101.022 118.501C101.114 118.666 101.16 118.853 101.16 119.062ZM100.767 118.983C100.767 118.837 100.735 118.713 100.67 118.61C100.606 118.504 100.518 118.424 100.406 118.371C100.298 118.315 100.176 118.287 100.042 118.287C99.8494 118.287 99.6846 118.349 99.5478 118.472C99.4137 118.594 99.3369 118.765 99.3174 118.983H100.767ZM104.424 117.961C104.603 117.961 104.762 117.998 104.901 118.074C105.041 118.146 105.151 118.257 105.232 118.405C105.313 118.553 105.354 118.733 105.354 118.945V120.298H104.977V118.999C104.977 118.77 104.92 118.596 104.805 118.476C104.693 118.353 104.541 118.291 104.348 118.291C104.15 118.291 103.992 118.356 103.875 118.484C103.758 118.61 103.699 118.793 103.699 119.033V120.298H103.322V118.999C103.322 118.77 103.265 118.596 103.151 118.476C103.039 118.353 102.887 118.291 102.694 118.291C102.496 118.291 102.338 118.356 102.221 118.484C102.103 118.61 102.045 118.793 102.045 119.033V120.298H101.664V118.002H102.045V118.333C102.12 118.213 102.221 118.121 102.346 118.057C102.475 117.993 102.616 117.961 102.769 117.961C102.962 117.961 103.132 118.004 103.28 118.09C103.428 118.177 103.539 118.304 103.611 118.472C103.675 118.31 103.782 118.184 103.93 118.095C104.078 118.005 104.242 117.961 104.424 117.961ZM108.964 117.6H107.494V118.555C107.558 118.466 107.653 118.393 107.778 118.338C107.904 118.279 108.04 118.25 108.185 118.25C108.417 118.25 108.605 118.298 108.75 118.396C108.895 118.491 108.999 118.615 109.06 118.769C109.124 118.92 109.157 119.08 109.157 119.251C109.157 119.452 109.119 119.632 109.043 119.791C108.968 119.95 108.852 120.076 108.696 120.168C108.542 120.26 108.351 120.306 108.122 120.306C107.829 120.306 107.591 120.231 107.41 120.08C107.228 119.929 107.118 119.728 107.079 119.477H107.452C107.488 119.636 107.565 119.76 107.682 119.85C107.799 119.939 107.947 119.984 108.126 119.984C108.347 119.984 108.513 119.918 108.625 119.787C108.736 119.653 108.792 119.477 108.792 119.259C108.792 119.041 108.736 118.874 108.625 118.756C108.513 118.636 108.348 118.576 108.13 118.576C107.982 118.576 107.852 118.613 107.741 118.685C107.632 118.755 107.552 118.851 107.502 118.974H107.142V117.265H108.964V117.6Z" fill="black"/>
<path opacity="0.4" d="M115.545 120.327C115.352 120.327 115.179 120.294 115.026 120.227C114.875 120.157 114.756 120.062 114.67 119.942C114.583 119.819 114.538 119.678 114.536 119.519H114.942C114.956 119.656 115.012 119.771 115.109 119.866C115.21 119.959 115.355 120.005 115.545 120.005C115.727 120.005 115.869 119.96 115.972 119.871C116.078 119.778 116.132 119.661 116.132 119.519C116.132 119.407 116.101 119.316 116.039 119.246C115.978 119.177 115.901 119.124 115.809 119.087C115.717 119.051 115.593 119.012 115.436 118.97C115.244 118.92 115.089 118.87 114.971 118.819C114.857 118.769 114.758 118.691 114.674 118.585C114.593 118.476 114.552 118.331 114.552 118.149C114.552 117.99 114.593 117.849 114.674 117.726C114.755 117.603 114.868 117.508 115.013 117.441C115.161 117.374 115.33 117.341 115.52 117.341C115.794 117.341 116.017 117.409 116.19 117.546C116.366 117.683 116.465 117.864 116.488 118.09H116.069C116.055 117.979 115.996 117.881 115.893 117.797C115.789 117.711 115.653 117.667 115.482 117.667C115.323 117.667 115.193 117.709 115.093 117.793C114.992 117.874 114.942 117.989 114.942 118.136C114.942 118.243 114.971 118.329 115.03 118.396C115.091 118.463 115.165 118.515 115.252 118.551C115.341 118.585 115.466 118.624 115.625 118.668C115.817 118.722 115.972 118.775 116.09 118.828C116.207 118.878 116.307 118.957 116.391 119.066C116.475 119.172 116.517 119.318 116.517 119.502C116.517 119.644 116.479 119.778 116.404 119.904C116.328 120.03 116.217 120.132 116.069 120.21C115.921 120.288 115.746 120.327 115.545 120.327ZM119.172 119.062C119.172 119.135 119.168 119.212 119.16 119.293H117.325C117.339 119.519 117.416 119.696 117.555 119.825C117.698 119.95 117.869 120.013 118.071 120.013C118.235 120.013 118.372 119.975 118.481 119.9C118.593 119.822 118.671 119.718 118.716 119.59H119.126C119.065 119.811 118.942 119.991 118.757 120.13C118.573 120.267 118.344 120.336 118.071 120.336C117.853 120.336 117.657 120.287 117.484 120.189C117.314 120.091 117.18 119.953 117.082 119.774C116.984 119.593 116.935 119.383 116.935 119.146C116.935 118.909 116.983 118.701 117.078 118.522C117.173 118.343 117.305 118.206 117.476 118.111C117.649 118.014 117.847 117.965 118.071 117.965C118.288 117.965 118.481 118.012 118.649 118.107C118.816 118.202 118.945 118.333 119.034 118.501C119.126 118.666 119.172 118.853 119.172 119.062ZM118.778 118.983C118.778 118.837 118.746 118.713 118.682 118.61C118.618 118.504 118.53 118.424 118.418 118.371C118.309 118.315 118.188 118.287 118.054 118.287C117.861 118.287 117.696 118.349 117.559 118.472C117.425 118.594 117.349 118.765 117.329 118.983H118.778ZM122.436 117.961C122.614 117.961 122.773 117.998 122.913 118.074C123.053 118.146 123.163 118.257 123.244 118.405C123.325 118.553 123.365 118.733 123.365 118.945V120.298H122.988V118.999C122.988 118.77 122.931 118.596 122.817 118.476C122.705 118.353 122.553 118.291 122.36 118.291C122.162 118.291 122.004 118.356 121.887 118.484C121.77 118.61 121.711 118.793 121.711 119.033V120.298H121.334V118.999C121.334 118.77 121.277 118.596 121.162 118.476C121.051 118.353 120.898 118.291 120.706 118.291C120.507 118.291 120.35 118.356 120.232 118.484C120.115 118.61 120.056 118.793 120.056 119.033V120.298H119.675V118.002H120.056V118.333C120.132 118.213 120.232 118.121 120.358 118.057C120.486 117.993 120.627 117.961 120.781 117.961C120.974 117.961 121.144 118.004 121.292 118.09C121.44 118.177 121.55 118.304 121.623 118.472C121.687 118.31 121.793 118.184 121.941 118.095C122.089 118.005 122.254 117.961 122.436 117.961ZM126.733 117.99C126.671 117.68 126.48 117.525 126.159 117.525C125.91 117.525 125.725 117.621 125.602 117.814C125.479 118.004 125.419 118.318 125.422 118.756C125.486 118.611 125.592 118.498 125.74 118.417C125.891 118.333 126.058 118.291 126.243 118.291C126.53 118.291 126.759 118.381 126.929 118.56C127.103 118.738 127.189 118.985 127.189 119.301C127.189 119.491 127.151 119.661 127.076 119.812C127.003 119.963 126.892 120.083 126.741 120.172C126.593 120.262 126.413 120.306 126.201 120.306C125.913 120.306 125.688 120.242 125.526 120.114C125.364 119.985 125.251 119.808 125.187 119.582C125.123 119.355 125.091 119.076 125.091 118.744C125.091 117.719 125.448 117.207 126.163 117.207C126.437 117.207 126.652 117.281 126.808 117.429C126.964 117.577 127.057 117.764 127.084 117.99H126.733ZM126.163 118.614C126.043 118.614 125.93 118.639 125.824 118.689C125.718 118.737 125.631 118.811 125.564 118.911C125.5 119.009 125.468 119.129 125.468 119.272C125.468 119.484 125.529 119.657 125.652 119.791C125.775 119.922 125.951 119.988 126.18 119.988C126.375 119.988 126.53 119.928 126.645 119.808C126.762 119.685 126.821 119.52 126.821 119.314C126.821 119.096 126.765 118.925 126.653 118.802C126.541 118.677 126.378 118.614 126.163 118.614Z" fill="black"/>
<line opacity="0.1" x1="19.15" y1="96.85" x2="134.85" y2="96.85" stroke="#999999" stroke-width="0.3" stroke-linecap="round"/>
<line opacity="0.1" x1="0.15" y1="-0.15" x2="114.818" y2="-0.15" transform="matrix(0.999964 -0.0085441 0.00916522 0.999958 20.0352 39)" stroke="#999999" stroke-width="0.3" stroke-linecap="round"/>
<path d="M16.9249 24.5928C16.573 24.5928 16.2563 24.5325 15.9749 24.4119C15.6934 24.2862 15.4722 24.1103 15.3114 23.8841C15.1505 23.6579 15.0701 23.394 15.0701 23.0924H15.9899C16.01 23.3186 16.098 23.5046 16.2538 23.6504C16.4147 23.7961 16.6383 23.869 16.9249 23.869C17.2214 23.869 17.4526 23.7986 17.6185 23.6579C17.7844 23.5121 17.8673 23.3262 17.8673 23.1C17.8673 22.9241 17.8145 22.7808 17.709 22.6702C17.6084 22.5596 17.4803 22.4742 17.3244 22.4139C17.1737 22.3536 16.9625 22.2882 16.6911 22.2178C16.3493 22.1274 16.0704 22.0369 15.8542 21.9464C15.6431 21.8509 15.4622 21.7051 15.3114 21.5091C15.1606 21.3131 15.0852 21.0517 15.0852 20.725C15.0852 20.4234 15.1606 20.1595 15.3114 19.9333C15.4622 19.7072 15.6733 19.5337 15.9447 19.4131C16.2161 19.2925 16.5303 19.2322 16.8872 19.2322C17.3948 19.2322 17.8095 19.3603 18.1312 19.6167C18.4579 19.868 18.6389 20.2148 18.674 20.6571H17.724C17.709 20.4661 17.6185 20.3028 17.4526 20.1671C17.2868 20.0314 17.0681 19.9635 16.7967 19.9635C16.5504 19.9635 16.3493 20.0263 16.1935 20.152C16.0377 20.2777 15.9598 20.4586 15.9598 20.6948C15.9598 20.8557 16.0075 20.9889 16.103 21.0944C16.2036 21.195 16.3292 21.2754 16.48 21.3357C16.6308 21.396 16.8369 21.4614 17.0983 21.5317C17.4451 21.6272 17.7266 21.7227 17.9427 21.8182C18.1639 21.9137 18.3498 22.062 18.5006 22.2631C18.6564 22.4591 18.7344 22.723 18.7344 23.0547C18.7344 23.3211 18.6615 23.5725 18.5157 23.8087C18.375 24.0449 18.1664 24.2359 17.8899 24.3817C17.6185 24.5224 17.2968 24.5928 16.9249 24.5928ZM23.556 22.3611C23.556 22.5169 23.546 22.6577 23.5259 22.7833H20.3517C20.3768 23.1151 20.5 23.3815 20.7212 23.5825C20.9423 23.7836 21.2137 23.8841 21.5354 23.8841C21.9979 23.8841 22.3246 23.6906 22.5156 23.3035H23.443C23.3173 23.6856 23.0886 23.9997 22.7568 24.246C22.4301 24.4873 22.023 24.6079 21.5354 24.6079C21.1383 24.6079 20.7815 24.5199 20.4648 24.344C20.1532 24.1631 19.9069 23.9117 19.7259 23.59C19.55 23.2633 19.462 22.8864 19.462 22.4591C19.462 22.0319 19.5475 21.6574 19.7184 21.3357C19.8943 21.009 20.1381 20.7577 20.4497 20.5817C20.7664 20.4058 21.1283 20.3179 21.5354 20.3179C21.9275 20.3179 22.2768 20.4033 22.5834 20.5742C22.89 20.7451 23.1288 20.9864 23.2997 21.298C23.4706 21.6046 23.556 21.959 23.556 22.3611ZM22.6588 22.0897C22.6538 21.773 22.5407 21.5192 22.3196 21.3282C22.0984 21.1372 21.8245 21.0417 21.4977 21.0417C21.2012 21.0417 20.9473 21.1372 20.7362 21.3282C20.5251 21.5141 20.3995 21.768 20.3593 22.0897H22.6588ZM29.4308 20.3179C29.7575 20.3179 30.0491 20.3857 30.3054 20.5214C30.5668 20.6571 30.7703 20.8582 30.9161 21.1246C31.0669 21.391 31.1423 21.7127 31.1423 22.0897V24.54H30.2903V22.2178C30.2903 21.8459 30.1973 21.5619 30.0114 21.3659C29.8254 21.1648 29.5715 21.0643 29.2499 21.0643C28.9282 21.0643 28.6718 21.1648 28.4808 21.3659C28.2948 21.5619 28.2019 21.8459 28.2019 22.2178V24.54H27.3499V22.2178C27.3499 21.8459 27.2569 21.5619 27.0709 21.3659C26.8849 21.1648 26.6311 21.0643 26.3094 21.0643C25.9877 21.0643 25.7314 21.1648 25.5404 21.3659C25.3544 21.5619 25.2614 21.8459 25.2614 22.2178V24.54H24.4019V20.3857H25.2614V20.8607C25.4021 20.6898 25.5806 20.5566 25.7967 20.4611C26.0129 20.3656 26.2441 20.3179 26.4904 20.3179C26.8221 20.3179 27.1187 20.3882 27.38 20.529C27.6414 20.6697 27.8425 20.8733 27.9832 21.1397C28.1089 20.8884 28.3049 20.6898 28.5713 20.5441C28.8377 20.3933 29.1242 20.3179 29.4308 20.3179ZM36.0435 22.3611C36.0435 22.5169 36.0335 22.6577 36.0133 22.7833H32.8392C32.8643 23.1151 32.9875 23.3815 33.2086 23.5825C33.4298 23.7836 33.7012 23.8841 34.0229 23.8841C34.4853 23.8841 34.812 23.6906 35.003 23.3035H35.9304C35.8048 23.6856 35.5761 23.9997 35.2443 24.246C34.9176 24.4873 34.5105 24.6079 34.0229 24.6079C33.6258 24.6079 33.2689 24.5199 32.9523 24.344C32.6406 24.1631 32.3943 23.9117 32.2134 23.59C32.0375 23.2633 31.9495 22.8864 31.9495 22.4591C31.9495 22.0319 32.035 21.6574 32.2058 21.3357C32.3818 21.009 32.6256 20.7577 32.9372 20.5817C33.2539 20.4058 33.6158 20.3179 34.0229 20.3179C34.415 20.3179 34.7643 20.4033 35.0709 20.5742C35.3775 20.7451 35.6163 20.9864 35.7872 21.298C35.9581 21.6046 36.0435 21.959 36.0435 22.3611ZM35.1463 22.0897C35.1413 21.773 35.0282 21.5192 34.807 21.3282C34.5858 21.1372 34.3119 21.0417 33.9852 21.0417C33.6886 21.0417 33.4348 21.1372 33.2237 21.3282C33.0126 21.5141 32.8869 21.768 32.8467 22.0897H35.1463ZM38.3973 24.6079C38.0706 24.6079 37.7765 24.5501 37.5151 24.4345C37.2588 24.3139 37.0552 24.153 36.9044 23.952C36.7536 23.7459 36.6732 23.5172 36.6632 23.2658H37.5528C37.5679 23.4418 37.6509 23.59 37.8016 23.7107C37.9575 23.8263 38.151 23.8841 38.3822 23.8841C38.6235 23.8841 38.8094 23.8389 38.9401 23.7484C39.0758 23.6529 39.1437 23.5322 39.1437 23.3865C39.1437 23.2307 39.0683 23.1151 38.9175 23.0397C38.7717 22.9643 38.538 22.8813 38.2163 22.7909C37.9047 22.7054 37.6509 22.6225 37.4548 22.542C37.2588 22.4616 37.0879 22.3385 36.9421 22.1726C36.8014 22.0067 36.731 21.7881 36.731 21.5167C36.731 21.2955 36.7964 21.0944 36.9271 20.9135C37.0577 20.7275 37.2437 20.5817 37.485 20.4762C37.7313 20.3706 38.0128 20.3179 38.3294 20.3179C38.8019 20.3179 39.1814 20.4385 39.4679 20.6798C39.7594 20.916 39.9152 21.2402 39.9354 21.6524H39.0758C39.0608 21.4664 38.9854 21.3181 38.8496 21.2075C38.7139 21.097 38.5305 21.0417 38.2993 21.0417C38.0731 21.0417 37.8997 21.0844 37.779 21.1698C37.6584 21.2553 37.5981 21.3684 37.5981 21.5091C37.5981 21.6197 37.6383 21.7127 37.7187 21.7881C37.7991 21.8635 37.8971 21.9238 38.0128 21.969C38.1284 22.0092 38.2993 22.062 38.5254 22.1274C38.827 22.2078 39.0733 22.2907 39.2643 22.3762C39.4604 22.4566 39.6287 22.5772 39.7695 22.7381C39.9102 22.8989 39.9831 23.1125 39.9881 23.3789C39.9881 23.6152 39.9228 23.8263 39.7921 24.0123C39.6614 24.1982 39.4754 24.344 39.2342 24.4496C38.9979 24.5551 38.719 24.6079 38.3973 24.6079ZM41.9196 21.0869V23.3865C41.9196 23.5423 41.9548 23.6554 42.0252 23.7258C42.1006 23.7911 42.2262 23.8238 42.4022 23.8238H42.9299V24.54H42.2514C41.8643 24.54 41.5678 24.4496 41.3617 24.2686C41.1556 24.0877 41.0526 23.7936 41.0526 23.3865V21.0869H40.5625V20.3857H41.0526V19.3528H41.9196V20.3857H42.9299V21.0869H41.9196ZM47.5296 22.3611C47.5296 22.5169 47.5196 22.6577 47.4995 22.7833H44.3253C44.3504 23.1151 44.4736 23.3815 44.6947 23.5825C44.9159 23.7836 45.1873 23.8841 45.509 23.8841C45.9714 23.8841 46.2981 23.6906 46.4891 23.3035H47.4165C47.2909 23.6856 47.0622 23.9997 46.7304 24.246C46.4037 24.4873 45.9966 24.6079 45.509 24.6079C45.1119 24.6079 44.755 24.5199 44.4384 24.344C44.1267 24.1631 43.8804 23.9117 43.6995 23.59C43.5236 23.2633 43.4356 22.8864 43.4356 22.4591C43.4356 22.0319 43.5211 21.6574 43.692 21.3357C43.8679 21.009 44.1117 20.7577 44.4233 20.5817C44.74 20.4058 45.1019 20.3179 45.509 20.3179C45.9011 20.3179 46.2504 20.4033 46.557 20.5742C46.8636 20.7451 47.1024 20.9864 47.2733 21.298C47.4442 21.6046 47.5296 21.959 47.5296 22.3611ZM46.6324 22.0897C46.6274 21.773 46.5143 21.5192 46.2931 21.3282C46.072 21.1372 45.798 21.0417 45.4713 21.0417C45.1747 21.0417 44.9209 21.1372 44.7098 21.3282C44.4987 21.5141 44.373 21.768 44.3328 22.0897H46.6324ZM49.235 20.9889C49.3606 20.7778 49.5265 20.6144 49.7326 20.4988C49.9437 20.3782 50.1925 20.3179 50.479 20.3179V21.2075H50.2604C49.9236 21.2075 49.6672 21.293 49.4913 21.4639C49.3204 21.6348 49.235 21.9313 49.235 22.3536V24.54H48.3755V20.3857H49.235V20.9889ZM57.02 20.8079C56.8843 20.5466 56.6958 20.3505 56.4546 20.2198C56.2133 20.0841 55.9343 20.0163 55.6177 20.0163C55.2708 20.0163 54.9617 20.0942 54.6903 20.25C54.4189 20.4058 54.2052 20.627 54.0494 20.9135C53.8986 21.2 53.8232 21.5317 53.8232 21.9087C53.8232 22.2857 53.8986 22.62 54.0494 22.9115C54.2052 23.198 54.4189 23.4192 54.6903 23.575C54.9617 23.7308 55.2708 23.8087 55.6177 23.8087C56.0851 23.8087 56.4646 23.678 56.7561 23.4166C57.0477 23.1553 57.2261 22.8009 57.2914 22.3536H55.3236V21.6675H58.2113V22.3385C58.156 22.7456 58.0102 23.1201 57.774 23.4619C57.5428 23.8037 57.2387 24.0776 56.8617 24.2837C56.4897 24.4847 56.0751 24.5853 55.6177 24.5853C55.1251 24.5853 54.6752 24.4722 54.2681 24.246C53.8609 24.0148 53.5367 23.6956 53.2955 23.2885C53.0592 22.8813 52.9411 22.4214 52.9411 21.9087C52.9411 21.396 53.0592 20.9361 53.2955 20.529C53.5367 20.1218 53.8609 19.8052 54.2681 19.579C54.6802 19.3478 55.1301 19.2322 55.6177 19.2322C56.1756 19.2322 56.6707 19.3704 57.103 19.6468C57.5403 19.9183 57.8569 20.3053 58.0529 20.8079H57.02ZM59.9185 20.9889C60.0442 20.7778 60.2101 20.6144 60.4161 20.4988C60.6272 20.3782 60.8761 20.3179 61.1626 20.3179V21.2075H60.9439C60.6071 21.2075 60.3508 21.293 60.1749 21.4639C60.004 21.6348 59.9185 21.9313 59.9185 22.3536V24.54H59.059V20.3857H59.9185V20.9889ZM61.6661 22.444C61.6661 22.0268 61.7516 21.6574 61.9225 21.3357C62.0984 21.014 62.3346 20.7652 62.6312 20.5893C62.9328 20.4083 63.2645 20.3179 63.6264 20.3179C63.9531 20.3179 64.2371 20.3832 64.4784 20.5139C64.7247 20.6396 64.9207 20.7979 65.0665 20.9889V20.3857H65.9335V24.54H65.0665V23.9218C64.9207 24.1178 64.7222 24.2812 64.4709 24.4119C64.2195 24.5426 63.933 24.6079 63.6113 24.6079C63.2545 24.6079 62.9277 24.5174 62.6312 24.3365C62.3346 24.1505 62.0984 23.8941 61.9225 23.5674C61.7516 23.2357 61.6661 22.8612 61.6661 22.444ZM65.0665 22.4591C65.0665 22.1726 65.0062 21.9238 64.8855 21.7127C64.7699 21.5016 64.6166 21.3407 64.4256 21.2302C64.2346 21.1196 64.0285 21.0643 63.8074 21.0643C63.5862 21.0643 63.3801 21.1196 63.1891 21.2302C62.9981 21.3357 62.8423 21.494 62.7217 21.7051C62.6061 21.9112 62.5483 22.1575 62.5483 22.444C62.5483 22.7305 62.6061 22.9819 62.7217 23.198C62.8423 23.4141 62.9981 23.58 63.1891 23.6956C63.3852 23.8062 63.5912 23.8615 63.8074 23.8615C64.0285 23.8615 64.2346 23.8062 64.4256 23.6956C64.6166 23.585 64.7699 23.4242 64.8855 23.2131C65.0062 22.9969 65.0665 22.7456 65.0665 22.4591ZM66.776 22.444C66.776 22.0268 66.8614 21.6574 67.0323 21.3357C67.2082 21.014 67.4445 20.7652 67.741 20.5893C68.0426 20.4083 68.3769 20.3179 68.7438 20.3179C69.0152 20.3179 69.2816 20.3782 69.543 20.4988C69.8094 20.6144 70.0205 20.7702 70.1763 20.9663V18.9607H71.0434V24.54H70.1763V23.9143C70.0356 24.1153 69.8396 24.2812 69.5882 24.4119C69.3419 24.5426 69.058 24.6079 68.7363 24.6079C68.3744 24.6079 68.0426 24.5174 67.741 24.3365C67.4445 24.1505 67.2082 23.8941 67.0323 23.5674C66.8614 23.2357 66.776 22.8612 66.776 22.444ZM70.1763 22.4591C70.1763 22.1726 70.116 21.9238 69.9954 21.7127C69.8798 21.5016 69.7265 21.3407 69.5355 21.2302C69.3445 21.1196 69.1384 21.0643 68.9172 21.0643C68.6961 21.0643 68.49 21.1196 68.299 21.2302C68.108 21.3357 67.9521 21.494 67.8315 21.7051C67.7159 21.9112 67.6581 22.1575 67.6581 22.444C67.6581 22.7305 67.7159 22.9819 67.8315 23.198C67.9521 23.4141 68.108 23.58 68.299 23.6956C68.495 23.8062 68.7011 23.8615 68.9172 23.8615C69.1384 23.8615 69.3445 23.8062 69.5355 23.6956C69.7265 23.585 69.8798 23.4242 69.9954 23.2131C70.116 22.9969 70.1763 22.7456 70.1763 22.4591ZM75.9798 22.3611C75.9798 22.5169 75.9698 22.6577 75.9497 22.7833H72.7755C72.8006 23.1151 72.9238 23.3815 73.1449 23.5825C73.3661 23.7836 73.6375 23.8841 73.9592 23.8841C74.4216 23.8841 74.7483 23.6906 74.9394 23.3035H75.8667C75.7411 23.6856 75.5124 23.9997 75.1806 24.246C74.8539 24.4873 74.4468 24.6079 73.9592 24.6079C73.5621 24.6079 73.2052 24.5199 72.8886 24.344C72.5769 24.1631 72.3307 23.9117 72.1497 23.59C71.9738 23.2633 71.8858 22.8864 71.8858 22.4591C71.8858 22.0319 71.9713 21.6574 72.1422 21.3357C72.3181 21.009 72.5619 20.7577 72.8735 20.5817C73.1902 20.4058 73.5521 20.3179 73.9592 20.3179C74.3513 20.3179 74.7006 20.4033 75.0072 20.5742C75.3138 20.7451 75.5526 20.9864 75.7235 21.298C75.8944 21.6046 75.9798 21.959 75.9798 22.3611ZM75.0826 22.0897C75.0776 21.773 74.9645 21.5192 74.7433 21.3282C74.5222 21.1372 74.2482 21.0417 73.9215 21.0417C73.6249 21.0417 73.3711 21.1372 73.16 21.3282C72.9489 21.5141 72.8232 21.768 72.783 22.0897H75.0826Z" fill="#272835"/>
<g opacity="0.2">
<path fill-rule="evenodd" clip-rule="evenodd" d="M131.531 21.2344C131.206 21.2344 130.942 21.5242 130.942 21.8813C130.942 22.2384 131.206 22.5282 131.531 22.5282C131.855 22.5282 132.119 22.2384 132.119 21.8813C132.119 21.5242 131.855 21.2344 131.531 21.2344ZM133.591 21.2344C133.266 21.2344 133.002 21.5242 133.002 21.8813C133.002 22.2384 133.266 22.5282 133.591 22.5282C133.915 22.5282 134.179 22.2384 134.179 21.8813C134.179 21.5242 133.915 21.2344 133.591 21.2344ZM128.883 21.8815C128.883 21.5244 129.146 21.2346 129.471 21.2346C129.796 21.2346 130.06 21.5244 130.06 21.8815C130.06 22.2386 129.796 22.5284 129.471 22.5284C129.146 22.5284 128.883 22.2386 128.883 21.8815Z" fill="black"/>
</g>
<path fill-rule="evenodd" clip-rule="evenodd" d="M29.3014 58.1626C31.1521 58.1626 32.6523 59.6629 32.6523 61.5135L32.6523 108.057C32.6523 109.908 31.1521 111.408 29.3014 111.408C27.4507 111.408 25.9505 109.908 25.9505 108.057L25.9505 61.5135C25.9505 59.6629 27.4507 58.1626 29.3014 58.1626Z" fill="#FF7777"/>
<path fill-rule="evenodd" clip-rule="evenodd" d="M47.278 68.54C49.1286 68.54 50.6289 70.0403 50.6289 71.891L50.6289 108.057C50.6289 109.908 49.1286 111.408 47.278 111.408C45.4273 111.408 43.927 109.908 43.927 108.057L43.927 71.891C43.927 70.0403 45.4273 68.54 47.278 68.54Z" fill="#74DFBC"/>
<path fill-rule="evenodd" clip-rule="evenodd" d="M65.2897 61.9399C67.1404 61.9399 68.6406 63.4402 68.6406 65.2909L68.6406 108.015C68.6406 109.866 67.1404 111.366 65.2897 111.366C63.439 111.366 61.9388 109.866 61.9388 108.015L61.9388 65.2909C61.9388 63.4402 63.439 61.9399 65.2897 61.9399Z" fill="#FEB95A"/>
<path fill-rule="evenodd" clip-rule="evenodd" d="M83.6471 50.874C85.4978 50.874 86.998 52.3743 86.998 54.225L86.998 108.057C86.998 109.908 85.4978 111.408 83.6471 111.408C81.7964 111.408 80.2962 109.908 80.2962 108.057L80.2962 54.225C80.2962 52.3743 81.7964 50.874 83.6471 50.874Z" fill="#FEB95A"/>
<path fill-rule="evenodd" clip-rule="evenodd" d="M101.35 60C103.201 60 104.701 61.5003 104.701 63.3509L104.701 108.041C104.701 109.892 103.201 111.392 101.35 111.392C99.4996 111.392 97.9993 109.892 97.9993 108.041L97.9993 63.3509C97.9993 61.5003 99.4996 60 101.35 60Z" fill="#FF7777"/>
<path fill-rule="evenodd" clip-rule="evenodd" d="M119.596 43.0908C121.447 43.0908 122.947 44.5911 122.947 46.4418L122.947 108.057C122.947 109.908 121.447 111.408 119.596 111.408C117.746 111.408 116.245 109.908 116.245 108.057L116.245 46.4417C116.245 44.5911 117.746 43.0908 119.596 43.0908Z" fill="#74DFBC"/>
</svg>
