<svg width="304" height="160" viewBox="0 0 304 160" fill="none" xmlns="http://www.w3.org/2000/svg">
<rect x="0.32924" y="0.32924" width="303.342" height="159.052" rx="8.231" fill="white" stroke="#EBEBEB" stroke-width="0.65848"/>
<path d="M274.917 27.5028H271.309" stroke="#92959E" stroke-width="0.859035" stroke-linecap="round" stroke-linejoin="round"/>
<path d="M276.525 21.9516H280.134" stroke="#92959E" stroke-width="0.859035" stroke-linecap="round" stroke-linejoin="round"/>
<path fill-rule="evenodd" clip-rule="evenodd" d="M273.998 21.9208C273.998 21.1788 273.392 20.5771 272.644 20.5771C271.897 20.5771 271.291 21.1788 271.291 21.9208C271.291 22.6628 271.897 23.2645 272.644 23.2645C273.392 23.2645 273.998 22.6628 273.998 21.9208Z" stroke="#92959E" stroke-width="0.859035" stroke-linecap="round" stroke-linejoin="round"/>
<path fill-rule="evenodd" clip-rule="evenodd" d="M280.455 27.4804C280.455 26.7384 279.849 26.1367 279.102 26.1367C278.354 26.1367 277.748 26.7384 277.748 27.4804C277.748 28.2224 278.354 28.8241 279.102 28.8241C279.849 28.8241 280.455 28.2224 280.455 27.4804Z" stroke="#92959E" stroke-width="0.859035" stroke-linecap="round" stroke-linejoin="round"/>
<path d="M84.5 100.501C82.5 95.5006 78.26 82.7644 71 80.5007C53.32 77.5 48.5 135.001 48.5 135.001H53.32H64.63H78.26H91.89H105.52H119.295H132.925H146.555H160.185H173.815H187.445H201.075H214.705H228.48H242.11H255.74H269.37H280.68H283C283 135.001 272 115.824 269.37 111.989C266.74 108.153 260.235 96.647 255.74 95.3685C251.1 94.09 246.605 106.875 242.11 113.267C237.47 119.659 232.975 119.659 228.48 115.824C223.84 111.989 219.345 104.318 214.705 97.9254C210.21 91.5331 205.715 86.4192 201.075 86.4192C196.58 86.4192 192.085 91.5331 187.445 100.482C182.95 109.432 178.31 122.216 173.815 117.103C169.32 111.989 164.68 88.9761 160.185 88.9761C155.69 88.9761 151.05 111.989 146.555 122.216C141.915 132.444 137.42 129.887 132.925 122.216C128.285 114.546 123.79 101.761 119.295 99.2039C114.655 96.647 110.16 104.318 105.52 109.432C101.025 114.546 96.53 117.103 91.89 115.824C87.395 114.546 86.5 105.501 84.5 100.501Z" fill="url(#paint0_linear_77_2829)"/>
<path d="M283 135.001C283 135.001 272 115.824 269.37 111.989C266.74 108.153 260.235 96.647 255.74 95.3685C251.1 94.09 246.605 106.875 242.11 113.267C237.47 119.659 232.975 119.659 228.48 115.824C223.84 111.989 219.345 104.318 214.705 97.9254C210.21 91.5331 205.715 86.4192 201.075 86.4192C196.58 86.4192 192.085 91.5331 187.445 100.482C182.95 109.432 178.31 122.216 173.815 117.103C169.32 111.989 164.68 88.9761 160.185 88.9761C155.69 88.9761 151.05 111.989 146.555 122.216C141.915 132.444 137.42 129.887 132.925 122.216C128.285 114.546 123.79 101.761 119.295 99.2039C114.655 96.647 110.16 104.318 105.52 109.432C101.025 114.546 96.53 117.103 91.89 115.824C87.395 114.546 86.5 105.501 84.5 100.501C82.5 95.5006 78.26 82.7644 71 80.5007C53.32 77.5 48.5 135.001 48.5 135.001" stroke="#19C990" stroke-linecap="round"/>
<g filter="url(#filter0_dd_77_2829)">
<circle cx="117.5" cy="98.5" r="1.5" fill="#19C990"/>
<circle cx="117.5" cy="98.5" r="2" stroke="white"/>
</g>
<path d="M23.4167 22.481C23.1797 22.0245 22.8504 21.6821 22.429 21.4538C22.0076 21.2168 21.5203 21.0982 20.9672 21.0982C20.3614 21.0982 19.8214 21.2343 19.3473 21.5065C18.8732 21.7787 18.5001 22.165 18.2279 22.6654C17.9645 23.1659 17.8328 23.7453 17.8328 24.4038C17.8328 25.0623 17.9645 25.6461 18.2279 26.1554C18.5001 26.6558 18.8732 27.0421 19.3473 27.3143C19.8214 27.5865 20.3614 27.7225 20.9672 27.7225C21.7837 27.7225 22.4466 27.4943 22.9558 27.0377C23.465 26.5812 23.7767 25.9622 23.8908 25.1808H20.4536V23.9824H25.4975V25.1545C25.4009 25.8656 25.1463 26.5197 24.7337 27.1167C24.3298 27.7138 23.7986 28.1923 23.1402 28.5522C22.4905 28.9034 21.7661 29.079 20.9672 29.079C20.1068 29.079 19.321 28.8815 18.6098 28.4864C17.8987 28.0825 17.3324 27.525 16.9109 26.8138C16.4983 26.1027 16.292 25.2993 16.292 24.4038C16.292 23.5083 16.4983 22.7049 16.9109 21.9938C17.3324 21.2826 17.8987 20.7295 18.6098 20.3344C19.3298 19.9305 20.1155 19.7286 20.9672 19.7286C21.9417 19.7286 22.8065 19.97 23.5616 20.4529C24.3254 20.927 24.8785 21.6031 25.221 22.481H23.4167ZM33.6289 25.194C33.6289 25.4662 33.6114 25.712 33.5762 25.9315H28.0318C28.0757 26.5109 28.2908 26.9763 28.6771 27.3275C29.0635 27.6787 29.5376 27.8542 30.0995 27.8542C30.9072 27.8542 31.4779 27.5162 31.8115 26.8402H33.4314C33.2119 27.5074 32.8124 28.0562 32.2329 28.4864C31.6623 28.9078 30.9511 29.1185 30.0995 29.1185C29.4059 29.1185 28.7825 28.9649 28.2294 28.6576C27.685 28.3415 27.2548 27.9025 26.9388 27.3406C26.6315 26.7699 26.4778 26.1115 26.4778 25.3652C26.4778 24.6189 26.6271 23.9648 26.9256 23.4029C27.2329 22.8322 27.6587 22.3933 28.203 22.086C28.7562 21.7787 29.3883 21.625 30.0995 21.625C30.7843 21.625 31.3945 21.7743 31.93 22.0728C32.4656 22.3713 32.8826 22.7927 33.1812 23.3371C33.4797 23.8726 33.6289 24.4916 33.6289 25.194ZM32.0617 24.7199C32.053 24.1668 31.8554 23.7234 31.4691 23.3897C31.0828 23.0561 30.6043 22.8893 30.0336 22.8893C29.5156 22.8893 29.0722 23.0561 28.7035 23.3897C28.3347 23.7146 28.1152 24.158 28.045 24.7199H32.0617ZM38.7675 21.625C39.3382 21.625 39.8474 21.7435 40.2952 21.9806C40.7518 22.2177 41.1073 22.5688 41.3619 23.0342C41.6166 23.4995 41.7439 24.0614 41.7439 24.7199V29H40.2557V24.9438C40.2557 24.2941 40.0933 23.798 39.7684 23.4556C39.4436 23.1044 39.0002 22.9288 38.4383 22.9288C37.8764 22.9288 37.4286 23.1044 37.095 23.4556C36.7701 23.798 36.6077 24.2941 36.6077 24.9438V29H35.1064V21.7436H36.6077V22.5732C36.8536 22.2747 37.1652 22.0421 37.5428 21.8752C37.9291 21.7084 38.3373 21.625 38.7675 21.625ZM43.1585 25.3389C43.1585 24.6101 43.3077 23.9648 43.6062 23.4029C43.9135 22.841 44.3262 22.4064 44.8442 22.0991C45.371 21.7831 45.9548 21.625 46.5957 21.625C47.0698 21.625 47.5352 21.7304 47.9917 21.9411C48.457 22.143 48.8258 22.4152 49.098 22.7576V19.2545H50.6125V29H49.098V27.9069C48.8521 28.2581 48.5097 28.5478 48.0707 28.7761C47.6405 29.0044 47.1445 29.1185 46.5826 29.1185C45.9504 29.1185 45.371 28.9605 44.8442 28.6444C44.3262 28.3196 43.9135 27.8718 43.6062 27.3011C43.3077 26.7217 43.1585 26.0676 43.1585 25.3389ZM49.098 25.3652C49.098 24.8647 48.9926 24.4301 48.7819 24.0614C48.5799 23.6927 48.3122 23.4117 47.9785 23.2185C47.6449 23.0254 47.2849 22.9288 46.8986 22.9288C46.5123 22.9288 46.1524 23.0254 45.8187 23.2185C45.4851 23.4029 45.2129 23.6795 45.0022 24.0482C44.8003 24.4082 44.6993 24.8384 44.6993 25.3389C44.6993 25.8393 44.8003 26.2783 45.0022 26.6558C45.2129 27.0333 45.4851 27.3231 45.8187 27.525C46.1611 27.7182 46.5211 27.8147 46.8986 27.8147C47.2849 27.8147 47.6449 27.7182 47.9785 27.525C48.3122 27.3319 48.5799 27.0509 48.7819 26.6822C48.9926 26.3046 49.098 25.8656 49.098 25.3652ZM59.235 25.194C59.235 25.4662 59.2175 25.712 59.1824 25.9315H53.638C53.6819 26.5109 53.897 26.9763 54.2833 27.3275C54.6696 27.6787 55.1437 27.8542 55.7056 27.8542C56.5133 27.8542 57.084 27.5162 57.4176 26.8402H59.0375C58.818 27.5074 58.4185 28.0562 57.8391 28.4864C57.2684 28.9078 56.5572 29.1185 55.7056 29.1185C55.012 29.1185 54.3886 28.9649 53.8355 28.6576C53.2912 28.3415 52.861 27.9025 52.5449 27.3406C52.2376 26.7699 52.084 26.1115 52.084 25.3652C52.084 24.6189 52.2332 23.9648 52.5317 23.4029C52.839 22.8322 53.2648 22.3933 53.8092 22.086C54.3623 21.7787 54.9944 21.625 55.7056 21.625C56.3904 21.625 57.0006 21.7743 57.5362 22.0728C58.0717 22.3713 58.4888 22.7927 58.7873 23.3371C59.0858 23.8726 59.235 24.4916 59.235 25.194ZM57.6679 24.7199C57.6591 24.1668 57.4615 23.7234 57.0752 23.3897C56.6889 23.0561 56.2104 22.8893 55.6397 22.8893C55.1217 22.8893 54.6784 23.0561 54.3096 23.3897C53.9409 23.7146 53.7214 24.158 53.6511 24.7199H57.6679ZM62.2138 22.7971C62.4333 22.4284 62.7231 22.143 63.083 21.9411C63.4518 21.7304 63.8864 21.625 64.3868 21.625V23.179H64.0049C63.4167 23.179 62.9689 23.3283 62.6616 23.6268C62.3631 23.9253 62.2138 24.4433 62.2138 25.1808V29H60.7125V21.7436H62.2138V22.7971ZM74.0606 16.5679L70.4785 31.3047H69.0035L72.5725 16.5679H74.0606ZM84.8918 27.1299H81.0594L80.401 29H78.8338L82.113 19.834H83.8514L87.1306 29H85.5503L84.8918 27.1299ZM84.4704 25.9051L82.9822 21.6514L81.4809 25.9051H84.4704ZM91.4801 21.625C92.042 21.625 92.538 21.7392 92.9683 21.9674C93.4072 22.1869 93.7497 22.4635 93.9955 22.7971V21.7436H95.51V29.1185C95.51 29.7858 95.3695 30.3784 95.0886 30.8964C94.8076 31.4232 94.3994 31.8359 93.8638 32.1344C93.337 32.4329 92.7049 32.5821 91.9674 32.5821C90.984 32.5821 90.1675 32.3495 89.5178 31.8841C88.8681 31.4276 88.4994 30.8042 88.4116 30.0141H89.8997C90.0139 30.3916 90.2553 30.6945 90.6241 30.9228C91.0016 31.1598 91.4494 31.2783 91.9674 31.2783C92.5732 31.2783 93.0604 31.094 93.4292 30.7252C93.8067 30.3565 93.9955 29.8209 93.9955 29.1185V27.9069C93.7409 28.2493 93.3941 28.5391 92.9551 28.7761C92.5249 29.0044 92.0332 29.1185 91.4801 29.1185C90.8479 29.1185 90.2685 28.9605 89.7417 28.6444C89.2237 28.3196 88.8111 27.8718 88.5038 27.3011C88.2052 26.7217 88.056 26.0676 88.056 25.3389C88.056 24.6101 88.2052 23.9648 88.5038 23.4029C88.8111 22.841 89.2237 22.4064 89.7417 22.0991C90.2685 21.7831 90.8479 21.625 91.4801 21.625ZM93.9955 25.3652C93.9955 24.8647 93.8901 24.4301 93.6794 24.0614C93.4775 23.6927 93.2097 23.4117 92.8761 23.2185C92.5424 23.0254 92.1825 22.9288 91.7962 22.9288C91.4099 22.9288 91.0499 23.0254 90.7163 23.2185C90.3826 23.4029 90.1105 23.6795 89.8997 24.0482C89.6978 24.4082 89.5968 24.8384 89.5968 25.3389C89.5968 25.8393 89.6978 26.2783 89.8997 26.6558C90.1105 27.0333 90.3826 27.3231 90.7163 27.525C91.0587 27.7182 91.4186 27.8147 91.7962 27.8147C92.1825 27.8147 92.5424 27.7182 92.8761 27.525C93.2097 27.3319 93.4775 27.0509 93.6794 26.6822C93.8901 26.3046 93.9955 25.8656 93.9955 25.3652ZM104.133 25.194C104.133 25.4662 104.115 25.712 104.08 25.9315H98.5355C98.5794 26.5109 98.7945 26.9763 99.1808 27.3275C99.5671 27.6787 100.041 27.8542 100.603 27.8542C101.411 27.8542 101.982 27.5162 102.315 26.8402H103.935C103.716 27.5074 103.316 28.0562 102.737 28.4864C102.166 28.9078 101.455 29.1185 100.603 29.1185C99.9095 29.1185 99.2862 28.9649 98.733 28.6576C98.1887 28.3415 97.7585 27.9025 97.4424 27.3406C97.1351 26.7699 96.9815 26.1115 96.9815 25.3652C96.9815 24.6189 97.1307 23.9648 97.4293 23.4029C97.7365 22.8322 98.1624 22.3933 98.7067 22.086C99.2598 21.7787 99.892 21.625 100.603 21.625C101.288 21.625 101.898 21.7743 102.434 22.0728C102.969 22.3713 103.386 22.7927 103.685 23.3371C103.983 23.8726 104.133 24.4916 104.133 25.194ZM102.565 24.7199C102.557 24.1668 102.359 23.7234 101.973 23.3897C101.586 23.0561 101.108 22.8893 100.537 22.8893C100.019 22.8893 99.5759 23.0561 99.2071 23.3897C98.8384 23.7146 98.6189 24.158 98.5487 24.7199H102.565Z" fill="#4F4F4F"/>
<path d="M25.0917 133.203C25.0917 132.297 25.2392 131.591 25.5342 131.085C25.8292 130.574 26.3455 130.319 27.083 130.319C27.8152 130.319 28.3288 130.574 28.6238 131.085C28.9188 131.591 29.0663 132.297 29.0663 133.203C29.0663 134.125 28.9188 134.841 28.6238 135.352C28.3288 135.863 27.8152 136.119 27.083 136.119C26.3455 136.119 25.8292 135.863 25.5342 135.352C25.2392 134.841 25.0917 134.125 25.0917 133.203ZM28.3552 133.203C28.3552 132.745 28.3236 132.357 28.2603 132.041C28.2024 131.72 28.0786 131.462 27.889 131.267C27.7046 131.072 27.4359 130.975 27.083 130.975C26.7248 130.975 26.4508 131.072 26.2612 131.267C26.0768 131.462 25.953 131.72 25.8898 132.041C25.8319 132.357 25.8029 132.745 25.8029 133.203C25.8029 133.677 25.8319 134.075 25.8898 134.396C25.953 134.717 26.0768 134.976 26.2612 135.17C26.4508 135.365 26.7248 135.463 27.083 135.463C27.4359 135.463 27.7046 135.365 27.889 135.17C28.0786 134.976 28.2024 134.717 28.2603 134.396C28.3236 134.075 28.3552 133.677 28.3552 133.203ZM29.8954 131.694C29.8954 131.335 30.0034 131.051 30.2194 130.84C30.4354 130.624 30.712 130.516 31.0491 130.516C31.3862 130.516 31.6628 130.624 31.8788 130.84C32.0948 131.051 32.2028 131.335 32.2028 131.694C32.2028 132.057 32.0948 132.347 31.8788 132.563C31.6628 132.774 31.3862 132.879 31.0491 132.879C30.712 132.879 30.4354 132.774 30.2194 132.563C30.0034 132.347 29.8954 132.057 29.8954 131.694ZM34.5101 130.603L31.3099 136.119H30.5987L33.7989 130.603H34.5101ZM31.0491 130.959C30.87 130.959 30.7278 131.022 30.6224 131.148C30.5223 131.27 30.4723 131.451 30.4723 131.694C30.4723 131.936 30.5223 132.12 30.6224 132.247C30.7278 132.373 30.87 132.436 31.0491 132.436C31.2282 132.436 31.3704 132.373 31.4758 132.247C31.5812 132.115 31.6338 131.931 31.6338 131.694C31.6338 131.451 31.5812 131.27 31.4758 131.148C31.3704 131.022 31.2282 130.959 31.0491 130.959ZM32.9218 135.028C32.9218 134.665 33.0298 134.378 33.2458 134.167C33.4618 133.951 33.7383 133.843 34.0755 133.843C34.4126 133.843 34.6865 133.951 34.8973 134.167C35.1132 134.378 35.2212 134.665 35.2212 135.028C35.2212 135.386 35.1132 135.674 34.8973 135.89C34.6865 136.105 34.4126 136.213 34.0755 136.213C33.7383 136.213 33.4618 136.108 33.2458 135.897C33.0298 135.681 32.9218 135.392 32.9218 135.028ZM34.0676 134.293C33.8885 134.293 33.7462 134.357 33.6409 134.483C33.5355 134.604 33.4828 134.786 33.4828 135.028C33.4828 135.265 33.5355 135.447 33.6409 135.573C33.7462 135.695 33.8885 135.755 34.0676 135.755C34.2467 135.755 34.3889 135.695 34.4943 135.573C34.5996 135.447 34.6523 135.265 34.6523 135.028C34.6523 134.786 34.5996 134.604 34.4943 134.483C34.3889 134.357 34.2467 134.293 34.0676 134.293Z" fill="#979797"/>
<path d="M20.4598 96.6912C21.1288 96.1539 21.6529 95.7141 22.0322 95.3716C22.4115 95.024 22.7302 94.6631 22.9883 94.2891C23.2517 93.9098 23.3834 93.5384 23.3834 93.175C23.3834 92.8325 23.2991 92.5639 23.1306 92.369C22.9672 92.1688 22.7012 92.0687 22.3325 92.0687C21.9743 92.0687 21.6951 92.182 21.4949 92.4085C21.3 92.6297 21.1946 92.9274 21.1788 93.3014H20.4835C20.5045 92.7114 20.6836 92.2557 21.0208 91.9344C21.3579 91.613 21.7925 91.4524 22.3246 91.4524C22.8672 91.4524 23.2965 91.6025 23.6126 91.9028C23.9339 92.203 24.0946 92.6166 24.0946 93.1433C24.0946 93.5806 23.9629 94.0073 23.6995 94.4234C23.4414 94.8343 23.1464 95.1978 22.8145 95.5139C22.4826 95.8247 22.0585 96.1882 21.5423 96.6043H24.2605V97.2049H20.4598V96.6912ZM25.0917 94.3523C25.0917 93.4462 25.2392 92.7404 25.5342 92.2346C25.8292 91.7237 26.3455 91.4682 27.083 91.4682C27.8152 91.4682 28.3288 91.7237 28.6238 92.2346C28.9188 92.7404 29.0663 93.4462 29.0663 94.3523C29.0663 95.2742 28.9188 95.9906 28.6238 96.5016C28.3288 97.0126 27.8152 97.2681 27.083 97.2681C26.3455 97.2681 25.8292 97.0126 25.5342 96.5016C25.2392 95.9906 25.0917 95.2742 25.0917 94.3523ZM28.3552 94.3523C28.3552 93.894 28.3236 93.5068 28.2603 93.1908C28.2024 92.8694 28.0786 92.6113 27.889 92.4164C27.7046 92.2215 27.4359 92.124 27.083 92.124C26.7248 92.124 26.4508 92.2215 26.2612 92.4164C26.0768 92.6113 25.953 92.8694 25.8898 93.1908C25.8319 93.5068 25.8029 93.894 25.8029 94.3523C25.8029 94.8264 25.8319 95.2241 25.8898 95.5455C25.953 95.8668 26.0768 96.1249 26.2612 96.3199C26.4508 96.5148 26.7248 96.6122 27.083 96.6122C27.4359 96.6122 27.7046 96.5148 27.889 96.3199C28.0786 96.1249 28.2024 95.8668 28.2603 95.5455C28.3236 95.2241 28.3552 94.8264 28.3552 94.3523ZM29.8954 92.8431C29.8954 92.4849 30.0034 92.2004 30.2194 91.9897C30.4354 91.7737 30.712 91.6657 31.0491 91.6657C31.3862 91.6657 31.6628 91.7737 31.8788 91.9897C32.0948 92.2004 32.2028 92.4849 32.2028 92.8431C32.2028 93.2066 32.0948 93.4963 31.8788 93.7123C31.6628 93.923 31.3862 94.0283 31.0491 94.0283C30.712 94.0283 30.4354 93.923 30.2194 93.7123C30.0034 93.4963 29.8954 93.2066 29.8954 92.8431ZM34.5101 91.7526L31.3099 97.2681H30.5987L33.7989 91.7526H34.5101ZM31.0491 92.1082C30.87 92.1082 30.7278 92.1714 30.6224 92.2979C30.5223 92.419 30.4723 92.6008 30.4723 92.8431C30.4723 93.0854 30.5223 93.2698 30.6224 93.3962C30.7278 93.5226 30.87 93.5858 31.0491 93.5858C31.2282 93.5858 31.3704 93.5226 31.4758 93.3962C31.5812 93.2645 31.6338 93.0801 31.6338 92.8431C31.6338 92.6008 31.5812 92.419 31.4758 92.2979C31.3704 92.1714 31.2282 92.1082 31.0491 92.1082ZM32.9218 96.1776C32.9218 95.8141 33.0298 95.527 33.2458 95.3163C33.4618 95.1004 33.7383 94.9924 34.0755 94.9924C34.4126 94.9924 34.6865 95.1004 34.8973 95.3163C35.1132 95.527 35.2212 95.8141 35.2212 96.1776C35.2212 96.5358 35.1132 96.8229 34.8973 97.0389C34.6865 97.2549 34.4126 97.3629 34.0755 97.3629C33.7383 97.3629 33.4618 97.2575 33.2458 97.0468C33.0298 96.8308 32.9218 96.5411 32.9218 96.1776ZM34.0676 95.4428C33.8885 95.4428 33.7462 95.506 33.6409 95.6324C33.5355 95.7536 33.4828 95.9353 33.4828 96.1776C33.4828 96.4147 33.5355 96.5964 33.6409 96.7228C33.7462 96.844 33.8885 96.9046 34.0676 96.9046C34.2467 96.9046 34.3889 96.844 34.4943 96.7228C34.5996 96.5964 34.6523 96.4147 34.6523 96.1776C34.6523 95.9353 34.5996 95.7536 34.4943 95.6324C34.3889 95.506 34.2467 95.4428 34.0676 95.4428Z" fill="#979797"/>
<path d="M19.9484 57.8045V57.2593L22.7219 53.419H23.5832V57.1802H24.3734V57.8045H23.5832V59.0767H22.8721V57.8045H19.9484ZM22.9037 54.1697L20.7781 57.1802H22.9037V54.1697ZM25.0917 56.1609C25.0917 55.2548 25.2392 54.549 25.5342 54.0432C25.8292 53.5323 26.3455 53.2768 27.083 53.2768C27.8152 53.2768 28.3288 53.5323 28.6238 54.0432C28.9188 54.549 29.0663 55.2548 29.0663 56.1609C29.0663 57.0828 28.9188 57.7992 28.6238 58.3102C28.3288 58.8212 27.8152 59.0767 27.083 59.0767C26.3455 59.0767 25.8292 58.8212 25.5342 58.3102C25.2392 57.7992 25.0917 57.0828 25.0917 56.1609ZM28.3552 56.1609C28.3552 55.7026 28.3236 55.3154 28.2603 54.9994C28.2024 54.678 28.0786 54.4199 27.889 54.225C27.7046 54.0301 27.4359 53.9326 27.083 53.9326C26.7248 53.9326 26.4508 54.0301 26.2612 54.225C26.0768 54.4199 25.953 54.678 25.8898 54.9994C25.8319 55.3154 25.8029 55.7026 25.8029 56.1609C25.8029 56.635 25.8319 57.0327 25.8898 57.3541C25.953 57.6754 26.0768 57.9335 26.2612 58.1284C26.4508 58.3234 26.7248 58.4208 27.083 58.4208C27.4359 58.4208 27.7046 58.3234 27.889 58.1284C28.0786 57.9335 28.2024 57.6754 28.2603 57.3541C28.3236 57.0327 28.3552 56.635 28.3552 56.1609ZM29.8954 54.6517C29.8954 54.2935 30.0034 54.009 30.2194 53.7983C30.4354 53.5823 30.712 53.4743 31.0491 53.4743C31.3862 53.4743 31.6628 53.5823 31.8788 53.7983C32.0948 54.009 32.2028 54.2935 32.2028 54.6517C32.2028 55.0152 32.0948 55.3049 31.8788 55.5209C31.6628 55.7316 31.3862 55.8369 31.0491 55.8369C30.712 55.8369 30.4354 55.7316 30.2194 55.5209C30.0034 55.3049 29.8954 55.0152 29.8954 54.6517ZM34.5101 53.5612L31.3099 59.0767H30.5987L33.7989 53.5612H34.5101ZM31.0491 53.9168C30.87 53.9168 30.7278 53.98 30.6224 54.1065C30.5223 54.2276 30.4723 54.4094 30.4723 54.6517C30.4723 54.894 30.5223 55.0784 30.6224 55.2048C30.7278 55.3312 30.87 55.3944 31.0491 55.3944C31.2282 55.3944 31.3704 55.3312 31.4758 55.2048C31.5812 55.0731 31.6338 54.8887 31.6338 54.6517C31.6338 54.4094 31.5812 54.2276 31.4758 54.1065C31.3704 53.98 31.2282 53.9168 31.0491 53.9168ZM32.9218 57.9862C32.9218 57.6227 33.0298 57.3356 33.2458 57.1249C33.4618 56.9089 33.7383 56.801 34.0755 56.801C34.4126 56.801 34.6865 56.9089 34.8973 57.1249C35.1132 57.3356 35.2212 57.6227 35.2212 57.9862C35.2212 58.3444 35.1132 58.6315 34.8973 58.8475C34.6865 59.0635 34.4126 59.1715 34.0755 59.1715C33.7383 59.1715 33.4618 59.0661 33.2458 58.8554C33.0298 58.6394 32.9218 58.3497 32.9218 57.9862ZM34.0676 57.2514C33.8885 57.2514 33.7462 57.3146 33.6409 57.441C33.5355 57.5622 33.4828 57.7439 33.4828 57.9862C33.4828 58.2233 33.5355 58.405 33.6409 58.5314C33.7462 58.6526 33.8885 58.7132 34.0676 58.7132C34.2467 58.7132 34.3889 58.6526 34.4943 58.5314C34.5996 58.405 34.6523 58.2233 34.6523 57.9862C34.6523 57.7439 34.5996 57.5622 34.4943 57.441C34.3889 57.3146 34.2467 57.2514 34.0676 57.2514Z" fill="#979797"/>
<path d="M44 56L283 56.1738" stroke="#EFF3F9" stroke-width="0.65848"/>
<path d="M44 95L283 95" stroke="#EFF3F9" stroke-width="0.65848"/>
<path d="M64.447 146.209L62.5426 144.391L64.447 142.582H65.3557L63.4434 144.391L65.3557 146.209H64.447ZM68.6688 142.226V141.57H70.1543V147.283H69.4274V142.226H68.6688ZM72.4325 144.312C72.1375 144.196 71.911 144.028 71.7529 143.806C71.5949 143.585 71.5159 143.317 71.5159 143C71.5159 142.716 71.587 142.46 71.7292 142.234C71.8715 142.002 72.0822 141.82 72.3614 141.689C72.6458 141.552 72.9882 141.483 73.3886 141.483C73.789 141.483 74.1287 141.552 74.4079 141.689C74.6924 141.82 74.9057 142.002 75.048 142.234C75.1955 142.46 75.2692 142.716 75.2692 143C75.2692 143.306 75.1876 143.575 75.0243 143.806C74.861 144.033 74.6371 144.202 74.3526 144.312C74.6792 144.412 74.9374 144.589 75.127 144.842C75.3219 145.089 75.4194 145.389 75.4194 145.742C75.4194 146.085 75.3351 146.385 75.1665 146.643C74.9979 146.896 74.7582 147.094 74.4474 147.236C74.1419 147.373 73.789 147.441 73.3886 147.441C72.9882 147.441 72.6353 147.373 72.3298 147.236C72.0295 147.094 71.7951 146.896 71.6265 146.643C71.4579 146.385 71.3737 146.085 71.3737 145.742C71.3737 145.389 71.4685 145.087 71.6581 144.834C71.8478 144.581 72.1059 144.407 72.4325 144.312ZM74.5739 143.087C74.5739 142.766 74.4685 142.518 74.2578 142.345C74.0471 142.171 73.7574 142.084 73.3886 142.084C73.0251 142.084 72.738 142.171 72.5273 142.345C72.3166 142.518 72.2112 142.769 72.2112 143.095C72.2112 143.39 72.3192 143.627 72.5352 143.806C72.7565 143.986 73.0409 144.075 73.3886 144.075C73.7416 144.075 74.026 143.986 74.242 143.806C74.4632 143.622 74.5739 143.382 74.5739 143.087ZM73.3886 144.628C72.9988 144.628 72.6801 144.72 72.4325 144.905C72.1849 145.084 72.0611 145.355 72.0611 145.719C72.0611 146.056 72.1796 146.327 72.4167 146.533C72.659 146.738 72.983 146.841 73.3886 146.841C73.7942 146.841 74.1156 146.738 74.3526 146.533C74.5897 146.327 74.7082 146.056 74.7082 145.719C74.7082 145.366 74.587 145.097 74.3447 144.913C74.1024 144.723 73.7837 144.628 73.3886 144.628Z" fill="#979797"/>
<path d="M107.886 143.018V142.362H109.372V148.075H108.645V143.018H107.886ZM111.65 145.104C111.355 144.988 111.128 144.819 110.97 144.598C110.812 144.377 110.733 144.108 110.733 143.792C110.733 143.507 110.804 143.252 110.947 143.025C111.089 142.794 111.3 142.612 111.579 142.48C111.863 142.343 112.206 142.275 112.606 142.275C113.006 142.275 113.346 142.343 113.625 142.48C113.91 142.612 114.123 142.794 114.265 143.025C114.413 143.252 114.487 143.507 114.487 143.792C114.487 144.097 114.405 144.366 114.242 144.598C114.078 144.824 113.855 144.993 113.57 145.104C113.897 145.204 114.155 145.38 114.344 145.633C114.539 145.881 114.637 146.181 114.637 146.534C114.637 146.876 114.553 147.177 114.384 147.435C114.215 147.688 113.976 147.885 113.665 148.027C113.359 148.164 113.006 148.233 112.606 148.233C112.206 148.233 111.853 148.164 111.547 148.027C111.247 147.885 111.013 147.688 110.844 147.435C110.675 147.177 110.591 146.876 110.591 146.534C110.591 146.181 110.686 145.878 110.876 145.625C111.065 145.372 111.323 145.198 111.65 145.104ZM113.791 143.879C113.791 143.558 113.686 143.31 113.475 143.136C113.265 142.962 112.975 142.875 112.606 142.875C112.243 142.875 111.955 142.962 111.745 143.136C111.534 143.31 111.429 143.56 111.429 143.887C111.429 144.182 111.537 144.419 111.753 144.598C111.974 144.777 112.258 144.867 112.606 144.867C112.959 144.867 113.243 144.777 113.459 144.598C113.681 144.414 113.791 144.174 113.791 143.879ZM112.606 145.42C112.216 145.42 111.898 145.512 111.65 145.696C111.402 145.875 111.279 146.147 111.279 146.51C111.279 146.847 111.397 147.119 111.634 147.324C111.876 147.529 112.2 147.632 112.606 147.632C113.012 147.632 113.333 147.529 113.57 147.324C113.807 147.119 113.926 146.847 113.926 146.51C113.926 146.157 113.804 145.889 113.562 145.704C113.32 145.515 113.001 145.42 112.606 145.42ZM118.713 144.874V145.483H115.56V144.874H118.713ZM119.857 147.498C120.526 146.961 121.05 146.521 121.429 146.178C121.809 145.831 122.127 145.47 122.386 145.096C122.649 144.716 122.781 144.345 122.781 143.982C122.781 143.639 122.696 143.371 122.528 143.176C122.365 142.975 122.098 142.875 121.73 142.875C121.372 142.875 121.092 142.989 120.892 143.215C120.697 143.436 120.592 143.734 120.576 144.108H119.881C119.902 143.518 120.081 143.062 120.418 142.741C120.755 142.42 121.19 142.259 121.722 142.259C122.264 142.259 122.694 142.409 123.01 142.709C123.331 143.01 123.492 143.423 123.492 143.95C123.492 144.387 123.36 144.814 123.097 145.23C122.839 145.641 122.544 146.004 122.212 146.321C121.88 146.631 121.456 146.995 120.94 147.411H123.658V148.011H119.857V147.498ZM124.299 143.018V142.362H125.785V148.075H125.058V143.018H124.299Z" fill="#979797"/>
<path d="M152.794 146.753C153.463 146.216 153.987 145.776 154.367 145.434C154.746 145.086 155.065 144.725 155.323 144.351C155.586 143.972 155.718 143.6 155.718 143.237C155.718 142.895 155.634 142.626 155.465 142.431C155.302 142.231 155.036 142.131 154.667 142.131C154.309 142.131 154.03 142.244 153.829 142.47C153.635 142.692 153.529 142.989 153.513 143.363H152.818C152.839 142.773 153.018 142.318 153.355 141.996C153.692 141.675 154.127 141.514 154.659 141.514C155.202 141.514 155.631 141.665 155.947 141.965C156.268 142.265 156.429 142.679 156.429 143.205C156.429 143.643 156.297 144.069 156.034 144.485C155.776 144.896 155.481 145.26 155.149 145.576C154.817 145.887 154.393 146.25 153.877 146.666H156.595V147.267H152.794V146.753ZM157.237 142.273V141.617H158.722V147.33H157.995V142.273H157.237ZM163.079 144.13V144.738H159.926V144.13H163.079ZM164.223 146.753C164.892 146.216 165.416 145.776 165.795 145.434C166.174 145.086 166.493 144.725 166.751 144.351C167.015 143.972 167.146 143.6 167.146 143.237C167.146 142.895 167.062 142.626 166.893 142.431C166.73 142.231 166.464 142.131 166.095 142.131C165.737 142.131 165.458 142.244 165.258 142.47C165.063 142.692 164.957 142.989 164.942 143.363H164.246C164.267 142.773 164.446 142.318 164.784 141.996C165.121 141.675 165.555 141.514 166.087 141.514C166.63 141.514 167.059 141.665 167.375 141.965C167.697 142.265 167.857 142.679 167.857 143.205C167.857 143.643 167.726 144.069 167.462 144.485C167.204 144.896 166.909 145.26 166.577 145.576C166.245 145.887 165.821 146.25 165.305 146.666H168.023V147.267H164.223V146.753ZM168.681 146.058V145.513L171.454 141.672H172.316V145.434H173.106V146.058H172.316V147.33H171.604V146.058H168.681ZM171.636 142.423L169.51 145.434H171.636V142.423Z" fill="#979797"/>
<path d="M199.032 147.15C199.701 146.612 200.225 146.173 200.604 145.83C200.984 145.482 201.302 145.122 201.561 144.748C201.824 144.368 201.956 143.997 201.956 143.633C201.956 143.291 201.871 143.022 201.703 142.827C201.539 142.627 201.273 142.527 200.905 142.527C200.546 142.527 200.267 142.64 200.067 142.867C199.872 143.088 199.767 143.386 199.751 143.76H199.056C199.077 143.17 199.256 142.714 199.593 142.393C199.93 142.072 200.365 141.911 200.897 141.911C201.439 141.911 201.869 142.061 202.185 142.361C202.506 142.662 202.667 143.075 202.667 143.602C202.667 144.039 202.535 144.466 202.272 144.882C202.014 145.293 201.719 145.656 201.387 145.972C201.055 146.283 200.631 146.647 200.115 147.063H202.833V147.663H199.032V147.15ZM203.49 146.454V145.909L206.264 142.069H207.125V145.83H207.915V146.454H207.125V147.727H206.414V146.454H203.49ZM206.445 142.82L204.32 145.83H206.445V142.82ZM211.755 144.526V145.135H208.602V144.526H211.755ZM212.899 147.15C213.568 146.612 214.092 146.173 214.471 145.83C214.85 145.482 215.169 145.122 215.427 144.748C215.691 144.368 215.822 143.997 215.822 143.633C215.822 143.291 215.738 143.022 215.569 142.827C215.406 142.627 215.14 142.527 214.771 142.527C214.413 142.527 214.134 142.64 213.934 142.867C213.739 143.088 213.634 143.386 213.618 143.76H212.922C212.943 143.17 213.123 142.714 213.46 142.393C213.797 142.072 214.231 141.911 214.763 141.911C215.306 141.911 215.735 142.061 216.051 142.361C216.373 142.662 216.533 143.075 216.533 143.602C216.533 144.039 216.402 144.466 216.138 144.882C215.88 145.293 215.585 145.656 215.253 145.972C214.921 146.283 214.497 146.647 213.981 147.063H216.699V147.663H212.899V147.15ZM221.047 142.575L218.85 147.727H218.123L220.352 142.646H217.301V142.029H221.047V142.575Z" fill="#979797"/>
<path d="M244.783 146.753C245.452 146.216 245.976 145.776 246.355 145.434C246.734 145.086 247.053 144.725 247.311 144.351C247.575 143.972 247.706 143.6 247.706 143.237C247.706 142.895 247.622 142.626 247.453 142.431C247.29 142.231 247.024 142.131 246.655 142.131C246.297 142.131 246.018 142.244 245.818 142.47C245.623 142.692 245.517 142.989 245.502 143.363H244.806C244.827 142.773 245.006 142.318 245.344 141.996C245.681 141.675 246.115 141.514 246.647 141.514C247.19 141.514 247.619 141.665 247.935 141.965C248.257 142.265 248.417 142.679 248.417 143.205C248.417 143.643 248.286 144.069 248.022 144.485C247.764 144.896 247.469 145.26 247.137 145.576C246.805 145.887 246.381 146.25 245.865 146.666H248.583V147.267H244.783V146.753ZM252.931 142.178L250.734 147.33H250.007L252.236 142.249H249.185V141.633H252.931V142.178ZM256.849 144.13V144.738H253.697V144.13H256.849ZM258.064 143.055C258.101 142.571 258.288 142.191 258.625 141.917C258.963 141.643 259.4 141.506 259.937 141.506C260.295 141.506 260.604 141.572 260.862 141.704C261.125 141.83 261.323 142.004 261.454 142.226C261.591 142.447 261.66 142.697 261.66 142.976C261.66 143.303 261.565 143.585 261.375 143.822C261.191 144.059 260.949 144.212 260.648 144.28V144.32C260.991 144.404 261.262 144.57 261.462 144.817C261.662 145.065 261.762 145.389 261.762 145.789C261.762 146.09 261.694 146.361 261.557 146.603C261.42 146.84 261.215 147.027 260.941 147.164C260.667 147.301 260.338 147.37 259.953 147.37C259.395 147.37 258.936 147.225 258.578 146.935C258.22 146.64 258.02 146.224 257.978 145.687H258.673C258.71 146.003 258.839 146.261 259.06 146.461C259.281 146.661 259.576 146.761 259.945 146.761C260.314 146.761 260.593 146.666 260.783 146.477C260.978 146.282 261.075 146.032 261.075 145.726C261.075 145.331 260.943 145.046 260.68 144.873C260.417 144.699 260.019 144.612 259.487 144.612H259.305V144.011H259.495C259.979 144.006 260.345 143.927 260.593 143.774C260.841 143.616 260.964 143.374 260.964 143.047C260.964 142.768 260.872 142.544 260.688 142.376C260.509 142.207 260.251 142.123 259.913 142.123C259.587 142.123 259.323 142.207 259.123 142.376C258.923 142.544 258.805 142.771 258.768 143.055H258.064ZM262.733 144.414C262.733 143.508 262.881 142.802 263.176 142.297C263.471 141.786 263.987 141.53 264.725 141.53C265.457 141.53 265.97 141.786 266.265 142.297C266.56 142.802 266.708 143.508 266.708 144.414C266.708 145.336 266.56 146.053 266.265 146.564C265.97 147.075 265.457 147.33 264.725 147.33C263.987 147.33 263.471 147.075 263.176 146.564C262.881 146.053 262.733 145.336 262.733 144.414ZM265.997 144.414C265.997 143.956 265.965 143.569 265.902 143.253C265.844 142.931 265.72 142.673 265.531 142.478C265.346 142.283 265.078 142.186 264.725 142.186C264.366 142.186 264.092 142.283 263.903 142.478C263.718 142.673 263.595 142.931 263.531 143.253C263.473 143.569 263.445 143.956 263.445 144.414C263.445 144.888 263.473 145.286 263.531 145.607C263.595 145.929 263.718 146.187 263.903 146.382C264.092 146.577 264.366 146.674 264.725 146.674C265.078 146.674 265.346 146.577 265.531 146.382C265.72 146.187 265.844 145.929 265.902 145.607C265.965 145.286 265.997 144.888 265.997 144.414Z" fill="#979797"/>
<path d="M36.4121 56.623H40.1086" stroke="#979797" stroke-width="0.65848"/>
<path d="M36.4121 95.2788H40.1086" stroke="#979797" stroke-width="0.65848"/>
<path d="M36.4121 134.205H40.1086" stroke="#979797" stroke-width="0.65848"/>
<path d="M94.1035 56.3198L94.1035 134.02" stroke="#EFF3F9" stroke-width="0.65848"/>
<path d="M140.822 56.3198L140.822 134.02" stroke="#EFF3F9" stroke-width="0.65848"/>
<path d="M187.539 56.3198L187.539 134.02" stroke="#EFF3F9" stroke-width="0.65848"/>
<path d="M234.256 56.3198L234.256 134.02" stroke="#EFF3F9" stroke-width="0.65848"/>
<path d="M283.072 56.1738L283.072 135.478" stroke="#EFF3F9" stroke-width="0.65848"/>
<defs>
<filter id="filter0_dd_77_2829" x="113.185" y="95.0926" width="8.62963" height="8.62963" filterUnits="userSpaceOnUse" color-interpolation-filters="sRGB">
<feFlood flood-opacity="0" result="BackgroundImageFix"/>
<feColorMatrix in="SourceAlpha" type="matrix" values="0 0 0 0 0 0 0 0 0 0 0 0 0 0 0 0 0 0 127 0" result="hardAlpha"/>
<feOffset dy="0.907407"/>
<feGaussianBlur stdDeviation="0.907407"/>
<feColorMatrix type="matrix" values="0 0 0 0 0.196487 0 0 0 0 0.196487 0 0 0 0 0.279476 0 0 0 0.06 0"/>
<feBlend mode="multiply" in2="BackgroundImageFix" result="effect1_dropShadow_77_2829"/>
<feColorMatrix in="SourceAlpha" type="matrix" values="0 0 0 0 0 0 0 0 0 0 0 0 0 0 0 0 0 0 127 0" result="hardAlpha"/>
<feOffset dy="0.907407"/>
<feGaussianBlur stdDeviation="0.453704"/>
<feColorMatrix type="matrix" values="0 0 0 0 0.196487 0 0 0 0 0.196487 0 0 0 0 0.279476 0 0 0 0.06 0"/>
<feBlend mode="multiply" in2="effect1_dropShadow_77_2829" result="effect2_dropShadow_77_2829"/>
<feBlend mode="normal" in="SourceGraphic" in2="effect2_dropShadow_77_2829" result="shape"/>
</filter>
<linearGradient id="paint0_linear_77_2829" x1="165.75" y1="80.3872" x2="165.835" y2="141.364" gradientUnits="userSpaceOnUse">
<stop stop-color="#61F5C4" stop-opacity="0.63"/>
<stop offset="0.998978" stop-color="white" stop-opacity="0"/>
</linearGradient>
</defs>
</svg>
