<svg width="198" height="199" viewBox="0 0 198 199" fill="none" xmlns="http://www.w3.org/2000/svg">
<rect x="0.245407" y="0.245407" width="197.509" height="198.509" rx="6.13517" fill="white" stroke="#EBEBEB" stroke-width="0.490814"/>
<path opacity="0.8" d="M27.4681 25.6564C27.2482 25.2532 26.9458 24.9463 26.5609 24.7355C26.1761 24.5248 25.7271 24.4194 25.214 24.4194C24.6459 24.4194 24.1419 24.5477 23.7021 24.8043C23.2622 25.0608 22.9186 25.4273 22.6712 25.9038C22.4238 26.3803 22.3001 26.9301 22.3001 27.5532C22.3001 28.1946 22.4238 28.7535 22.6712 29.23C22.9278 29.7065 23.2806 30.073 23.7296 30.3296C24.1785 30.5861 24.7008 30.7144 25.2964 30.7144C26.0295 30.7144 26.6297 30.522 27.097 30.1371C27.5643 29.7431 27.8713 29.1979 28.0179 28.5015H24.7192V27.0309H29.9146V28.7077C29.7863 29.3766 29.5114 29.9951 29.0899 30.5632C28.6684 31.1313 28.1232 31.5895 27.4543 31.9377C26.7946 32.2767 26.0524 32.4462 25.2277 32.4462C24.3022 32.4462 23.4638 32.2401 22.7125 31.8277C21.9703 31.4062 21.3838 30.8244 20.9532 30.0822C20.5317 29.34 20.3209 28.497 20.3209 27.5532C20.3209 26.6094 20.5317 25.7664 20.9532 25.0242C21.3838 24.2728 21.9703 23.6909 22.7125 23.2786C23.4638 22.8571 24.2977 22.6464 25.214 22.6464C26.2952 22.6464 27.2344 22.9121 28.0316 23.4435C28.8288 23.9658 29.3786 24.7035 29.681 25.6564H27.4681ZM38.1418 28.3916C38.1418 28.6665 38.1235 28.9139 38.0868 29.1338H32.5203C32.5661 29.6836 32.7585 30.1142 33.0976 30.4258C33.4366 30.7373 33.8535 30.8931 34.3483 30.8931C35.063 30.8931 35.5716 30.5861 35.874 29.9722H37.9494C37.7295 30.7053 37.308 31.31 36.6849 31.7865C36.0618 32.2538 35.2967 32.4875 34.3895 32.4875C33.6565 32.4875 32.9968 32.3271 32.4103 32.0064C31.8331 31.6765 31.3795 31.2138 31.0496 30.6182C30.7289 30.0226 30.5686 29.3354 30.5686 28.5565C30.5686 27.7685 30.7289 27.0767 31.0496 26.4811C31.3703 25.8855 31.8193 25.4273 32.3966 25.1066C32.9739 24.7859 33.6382 24.6256 34.3895 24.6256C35.1134 24.6256 35.7594 24.7814 36.3275 25.0929C36.9048 25.4044 37.3492 25.8488 37.6607 26.4261C37.9815 26.9942 38.1418 27.6494 38.1418 28.3916ZM36.1488 27.8418C36.1397 27.347 35.961 26.953 35.6128 26.6598C35.2646 26.3574 34.8385 26.2062 34.3346 26.2062C33.8581 26.2062 33.4549 26.3528 33.125 26.646C32.8043 26.9301 32.6073 27.3287 32.534 27.8418H36.1488ZM42.6526 32.4875C41.9196 32.4875 41.2598 32.3271 40.6734 32.0064C40.0869 31.6765 39.6242 31.2138 39.2852 30.6182C38.9553 30.0226 38.7904 29.3354 38.7904 28.5565C38.7904 27.7777 38.9599 27.0904 39.2989 26.4948C39.6471 25.8992 40.119 25.4411 40.7146 25.1204C41.3102 24.7905 41.9745 24.6256 42.7076 24.6256C43.4406 24.6256 44.1049 24.7905 44.7005 25.1204C45.2961 25.4411 45.7635 25.8992 46.1025 26.4948C46.4507 27.0904 46.6248 27.7777 46.6248 28.5565C46.6248 29.3354 46.4461 30.0226 46.0887 30.6182C45.7405 31.2138 45.2641 31.6765 44.6593 32.0064C44.0637 32.3271 43.3948 32.4875 42.6526 32.4875ZM42.6526 30.8106C43.0008 30.8106 43.3261 30.7282 43.6285 30.5632C43.94 30.3891 44.1874 30.1326 44.3707 29.7935C44.5539 29.4545 44.6456 29.0422 44.6456 28.5565C44.6456 27.8326 44.4531 27.2783 44.0683 26.8934C43.6926 26.4994 43.2299 26.3024 42.6801 26.3024C42.1303 26.3024 41.6676 26.4994 41.2919 26.8934C40.9254 27.2783 40.7421 27.8326 40.7421 28.5565C40.7421 29.2804 40.9208 29.8394 41.2781 30.2334C41.6447 30.6182 42.1028 30.8106 42.6526 30.8106Z" fill="#021206"/>
<path opacity="0.8" d="M140.11 27.9445C140.11 27.544 140.2 27.1847 140.381 26.8666C140.561 26.5447 140.807 26.2934 141.117 26.1128C141.431 25.9321 141.779 25.8418 142.159 25.8418C142.607 25.8418 142.998 25.9498 143.332 26.1658C143.665 26.3817 143.909 26.688 144.062 27.0846H143.42C143.306 26.8372 143.141 26.6468 142.925 26.5133C142.713 26.3798 142.458 26.313 142.159 26.313C141.873 26.313 141.616 26.3798 141.388 26.5133C141.16 26.6468 140.982 26.8372 140.852 27.0846C140.722 27.328 140.658 27.6146 140.658 27.9445C140.658 28.2704 140.722 28.557 140.852 28.8044C140.982 29.0478 141.16 29.2363 141.388 29.3698C141.616 29.5033 141.873 29.57 142.159 29.57C142.458 29.57 142.713 29.5053 142.925 29.3757C143.141 29.2422 143.306 29.0517 143.42 28.8044H144.062C143.909 29.197 143.665 29.5013 143.332 29.7173C142.998 29.9293 142.607 30.0353 142.159 30.0353C141.779 30.0353 141.431 29.947 141.117 29.7703C140.807 29.5897 140.561 29.3403 140.381 29.0223C140.2 28.7043 140.11 28.345 140.11 27.9445ZM146.267 30.053C145.965 30.053 145.69 29.9843 145.443 29.8469C145.199 29.7094 145.007 29.5151 144.866 29.2638C144.728 29.0086 144.659 28.7141 144.659 28.3803C144.659 28.0505 144.73 27.7599 144.871 27.5086C145.017 27.2534 145.213 27.059 145.46 26.9255C145.708 26.7881 145.985 26.7194 146.291 26.7194C146.597 26.7194 146.874 26.7881 147.121 26.9255C147.369 27.059 147.563 27.2514 147.704 27.5027C147.85 27.754 147.922 28.0466 147.922 28.3803C147.922 28.7141 147.848 29.0086 147.699 29.2638C147.553 29.5151 147.355 29.7094 147.104 29.8469C146.852 29.9843 146.574 30.053 146.267 30.053ZM146.267 29.5818C146.46 29.5818 146.64 29.5367 146.809 29.4464C146.978 29.3561 147.114 29.2206 147.216 29.04C147.322 28.8593 147.375 28.6395 147.375 28.3803C147.375 28.1212 147.324 27.9013 147.221 27.7207C147.119 27.54 146.986 27.4065 146.821 27.3202C146.656 27.2298 146.477 27.1847 146.285 27.1847C146.089 27.1847 145.908 27.2298 145.743 27.3202C145.582 27.4065 145.453 27.54 145.354 27.7207C145.256 27.9013 145.207 28.1212 145.207 28.3803C145.207 28.6434 145.254 28.8652 145.349 29.0459C145.447 29.2265 145.576 29.3619 145.737 29.4523C145.898 29.5386 146.075 29.5818 146.267 29.5818ZM151.489 26.7724V30H150.954V29.5229C150.851 29.6878 150.708 29.8174 150.524 29.9117C150.343 30.002 150.143 30.0471 149.923 30.0471C149.672 30.0471 149.446 29.9961 149.245 29.894C149.045 29.788 148.886 29.6309 148.768 29.4228C148.655 29.2147 148.598 28.9614 148.598 28.663V26.7724H149.128V28.5923C149.128 28.9104 149.208 29.1558 149.369 29.3286C149.53 29.4974 149.75 29.5818 150.029 29.5818C150.315 29.5818 150.541 29.4935 150.706 29.3168C150.871 29.1401 150.954 28.8829 150.954 28.5452V26.7724H151.489ZM153.967 26.7135C154.36 26.7135 154.678 26.8333 154.921 27.0728C155.165 27.3084 155.286 27.65 155.286 28.0976V30H154.756V28.1742C154.756 27.8522 154.676 27.6068 154.515 27.438C154.354 27.2652 154.134 27.1788 153.855 27.1788C153.572 27.1788 153.347 27.2671 153.178 27.4438C153.013 27.6205 152.93 27.8777 152.93 28.2154V30H152.394V26.7724H152.93V27.2318C153.036 27.0669 153.18 26.9393 153.36 26.849C153.545 26.7587 153.747 26.7135 153.967 26.7135ZM156.816 27.2141V29.1165C156.816 29.2736 156.849 29.3855 156.916 29.4523C156.982 29.5151 157.098 29.5465 157.263 29.5465H157.658V30H157.175C156.876 30 156.653 29.9313 156.503 29.7939C156.354 29.6564 156.28 29.4307 156.28 29.1165V27.2141H155.861V26.7724H156.28V25.9596H156.816V26.7724H157.658V27.2141H156.816ZM158.843 27.2966C158.937 27.1121 159.071 26.9687 159.244 26.8666C159.42 26.7646 159.634 26.7135 159.886 26.7135V27.2671H159.744C159.144 27.2671 158.843 27.593 158.843 28.2449V30H158.307V26.7724H158.843V27.2966ZM163.284 26.7724L161.341 31.5196H160.787L161.423 29.9647L160.122 26.7724H160.716L161.729 29.3875L162.731 26.7724H163.284Z" fill="#4F4F4F"/>
<path d="M168.79 27.9445C168.79 27.544 168.88 27.1847 169.061 26.8666C169.242 26.5447 169.487 26.2934 169.797 26.1128C170.111 25.9321 170.459 25.8418 170.84 25.8418C171.287 25.8418 171.678 25.9498 172.012 26.1658C172.346 26.3817 172.589 26.688 172.742 27.0846H172.1C171.986 26.8372 171.821 26.6468 171.605 26.5133C171.393 26.3798 171.138 26.313 170.84 26.313C170.553 26.313 170.296 26.3798 170.068 26.5133C169.84 26.6468 169.662 26.8372 169.532 27.0846C169.403 27.328 169.338 27.6146 169.338 27.9445C169.338 28.2704 169.403 28.557 169.532 28.8044C169.662 29.0478 169.84 29.2363 170.068 29.3698C170.296 29.5033 170.553 29.57 170.84 29.57C171.138 29.57 171.393 29.5053 171.605 29.3757C171.821 29.2422 171.986 29.0517 172.1 28.8044H172.742C172.589 29.197 172.346 29.5013 172.012 29.7173C171.678 29.9293 171.287 30.0353 170.84 30.0353C170.459 30.0353 170.111 29.947 169.797 29.7703C169.487 29.5897 169.242 29.3403 169.061 29.0223C168.88 28.7043 168.79 28.345 168.79 27.9445ZM173.817 26.2482C173.715 26.2482 173.628 26.2129 173.558 26.1422C173.487 26.0715 173.452 25.9851 173.452 25.8831C173.452 25.781 173.487 25.6946 173.558 25.6239C173.628 25.5532 173.715 25.5179 173.817 25.5179C173.915 25.5179 173.997 25.5532 174.064 25.6239C174.135 25.6946 174.17 25.781 174.17 25.8831C174.17 25.9851 174.135 26.0715 174.064 26.1422C173.997 26.2129 173.915 26.2482 173.817 26.2482ZM174.076 26.7724V30H173.54V26.7724H174.076ZM175.643 27.2141V29.1165C175.643 29.2736 175.677 29.3855 175.743 29.4523C175.81 29.5151 175.926 29.5465 176.091 29.5465H176.485V30H176.002C175.704 30 175.48 29.9313 175.331 29.7939C175.182 29.6564 175.107 29.4307 175.107 29.1165V27.2141H174.689V26.7724H175.107V25.9596H175.643V26.7724H176.485V27.2141H175.643ZM179.915 26.7724L177.971 31.5196H177.417L178.054 29.9647L176.752 26.7724H177.347L178.36 29.3875L179.361 26.7724H179.915Z" fill="#727272"/>
<rect x="114.344" y="60.3931" width="68.7139" height="4.95444" rx="2.47722" fill="#EFF3F9"/>
<rect x="114.84" y="60.8721" width="19" height="4.03774" rx="2.01887" fill="#FDAF43"/>
<path opacity="0.8" d="M114.562 53.4381C114.562 53.0376 114.654 52.6783 114.838 52.3603C115.027 52.0423 115.28 51.7949 115.598 51.6182C115.92 51.4376 116.272 51.3473 116.653 51.3473C117.088 51.3473 117.475 51.4552 117.813 51.6712C118.154 51.8832 118.402 52.1856 118.555 52.5782H117.748C117.642 52.3623 117.495 52.2013 117.306 52.0953C117.118 51.9892 116.9 51.9362 116.653 51.9362C116.382 51.9362 116.14 51.9971 115.928 52.1188C115.716 52.2405 115.549 52.4153 115.427 52.643C115.31 52.8707 115.251 53.1358 115.251 53.4381C115.251 53.7405 115.31 54.0055 115.427 54.2332C115.549 54.461 115.716 54.6377 115.928 54.7633C116.14 54.885 116.382 54.9459 116.653 54.9459C116.9 54.9459 117.118 54.8929 117.306 54.7869C117.495 54.6809 117.642 54.5199 117.748 54.3039H118.555C118.402 54.6966 118.154 54.9989 117.813 55.2109C117.475 55.423 117.088 55.529 116.653 55.529C116.268 55.529 115.916 55.4406 115.598 55.264C115.28 55.0833 115.027 54.834 114.838 54.516C114.654 54.1979 114.562 53.8386 114.562 53.4381ZM121.019 52.1954C121.267 52.1954 121.487 52.2484 121.679 52.3544C121.875 52.4604 122.029 52.6175 122.138 52.8256C122.252 53.0337 122.309 53.285 122.309 53.5795V55.4937H121.644V53.6796C121.644 53.389 121.571 53.1672 121.426 53.0141C121.281 52.857 121.082 52.7785 120.831 52.7785C120.58 52.7785 120.379 52.857 120.23 53.0141C120.085 53.1672 120.012 53.389 120.012 53.6796V55.4937H119.341V51.1352H120.012V52.6253C120.126 52.4879 120.269 52.3819 120.442 52.3073C120.619 52.2327 120.811 52.1954 121.019 52.1954ZM123.507 51.8184C123.386 51.8184 123.284 51.7772 123.201 51.6948C123.119 51.6123 123.077 51.5102 123.077 51.3885C123.077 51.2668 123.119 51.1647 123.201 51.0822C123.284 50.9998 123.386 50.9585 123.507 50.9585C123.625 50.9585 123.725 50.9998 123.808 51.0822C123.89 51.1647 123.931 51.2668 123.931 51.3885C123.931 51.5102 123.89 51.6123 123.808 51.6948C123.725 51.7772 123.625 51.8184 123.507 51.8184ZM123.837 52.2484V55.4937H123.166V52.2484H123.837ZM126.356 52.1954C126.611 52.1954 126.839 52.2484 127.039 52.3544C127.243 52.4604 127.402 52.6175 127.516 52.8256C127.63 53.0337 127.687 53.285 127.687 53.5795V55.4937H127.022V53.6796C127.022 53.389 126.949 53.1672 126.804 53.0141C126.658 52.857 126.46 52.7785 126.209 52.7785C125.958 52.7785 125.757 52.857 125.608 53.0141C125.463 53.1672 125.39 53.389 125.39 53.6796V55.4937H124.719V52.2484H125.39V52.6194C125.5 52.4859 125.639 52.3819 125.808 52.3073C125.981 52.2327 126.164 52.1954 126.356 52.1954ZM128.32 53.8563C128.32 53.5304 128.387 53.2418 128.52 52.9905C128.657 52.7392 128.842 52.5448 129.074 52.4074C129.309 52.2661 129.568 52.1954 129.851 52.1954C130.106 52.1954 130.328 52.2464 130.517 52.3485C130.709 52.4467 130.862 52.5704 130.976 52.7196V52.2484H131.653V55.4937H130.976V55.0107C130.862 55.1638 130.707 55.2914 130.511 55.3935C130.314 55.4956 130.091 55.5467 129.839 55.5467C129.561 55.5467 129.305 55.476 129.074 55.3346C128.842 55.1893 128.657 54.9891 128.52 54.7339C128.387 54.4747 128.32 54.1822 128.32 53.8563ZM130.976 53.8681C130.976 53.6443 130.929 53.4499 130.835 53.285C130.744 53.1201 130.625 52.9944 130.475 52.908C130.326 52.8217 130.165 52.7785 129.992 52.7785C129.82 52.7785 129.659 52.8217 129.51 52.908C129.36 52.9905 129.239 53.1142 129.144 53.2791C129.054 53.4401 129.009 53.6325 129.009 53.8563C129.009 54.0801 129.054 54.2764 129.144 54.4453C129.239 54.6141 129.36 54.7437 129.51 54.834C129.663 54.9204 129.824 54.9636 129.992 54.9636C130.165 54.9636 130.326 54.9204 130.475 54.834C130.625 54.7476 130.744 54.622 130.835 54.4571C130.929 54.2882 130.976 54.0919 130.976 53.8681Z" fill="#4F4F4F"/>
<path d="M169.45 54.3505C169.489 54.5744 169.579 54.7471 169.72 54.8688C169.866 54.9906 170.06 55.0514 170.304 55.0514C170.629 55.0514 170.869 54.9238 171.022 54.6686C171.179 54.4134 171.254 53.9834 171.246 53.3787C171.163 53.5554 171.026 53.6948 170.834 53.7969C170.641 53.8951 170.427 53.9442 170.192 53.9442C169.929 53.9442 169.693 53.8911 169.485 53.7851C169.281 53.6752 169.12 53.5162 169.002 53.3081C168.884 53.1 168.825 52.8487 168.825 52.5542C168.825 52.134 168.947 51.7964 169.19 51.5411C169.434 51.282 169.779 51.1524 170.227 51.1524C170.777 51.1524 171.161 51.3311 171.381 51.6884C171.605 52.0457 171.717 52.5777 171.717 53.2845C171.717 53.7792 171.672 54.1876 171.582 54.5096C171.495 54.8315 171.346 55.077 171.134 55.2458C170.926 55.4146 170.639 55.4991 170.274 55.4991C169.874 55.4991 169.561 55.3911 169.338 55.1751C169.114 54.9592 168.986 54.6843 168.955 54.3505H169.45ZM170.28 53.4906C170.543 53.4906 170.759 53.4102 170.928 53.2492C171.097 53.0843 171.181 52.8624 171.181 52.5836C171.181 52.2891 171.099 52.0516 170.934 51.871C170.769 51.6903 170.537 51.6 170.239 51.6C169.964 51.6 169.744 51.6864 169.579 51.8592C169.418 52.0319 169.338 52.2597 169.338 52.5424C169.338 52.829 169.418 53.0587 169.579 53.2315C169.74 53.4043 169.974 53.4906 170.28 53.4906ZM175.091 51.653L173.454 55.4932H172.912L174.573 51.706H172.299V51.2466H175.091V51.653ZM176.463 53.2786C176.243 53.1922 176.074 53.0666 175.956 52.9017C175.839 52.7368 175.78 52.5365 175.78 52.3009C175.78 52.0889 175.833 51.8984 175.939 51.7296C176.045 51.5568 176.202 51.4214 176.41 51.3232C176.622 51.2211 176.877 51.1701 177.176 51.1701C177.474 51.1701 177.727 51.2211 177.935 51.3232C178.147 51.4214 178.306 51.5568 178.412 51.7296C178.522 51.8984 178.577 52.0889 178.577 52.3009C178.577 52.5286 178.516 52.7289 178.395 52.9017C178.273 53.0705 178.106 53.1962 177.894 53.2786C178.138 53.3532 178.33 53.4848 178.471 53.6732C178.617 53.8578 178.689 54.0816 178.689 54.3447C178.689 54.5999 178.626 54.8237 178.501 55.0161C178.375 55.2046 178.196 55.3518 177.965 55.4578C177.737 55.5599 177.474 55.611 177.176 55.611C176.877 55.611 176.614 55.5599 176.386 55.4578C176.163 55.3518 175.988 55.2046 175.862 55.0161C175.737 54.8237 175.674 54.5999 175.674 54.3447C175.674 54.0816 175.744 53.8558 175.886 53.6673C176.027 53.4789 176.219 53.3493 176.463 53.2786ZM178.059 52.3657C178.059 52.1262 177.981 51.9416 177.823 51.8121C177.666 51.6825 177.45 51.6177 177.176 51.6177C176.905 51.6177 176.691 51.6825 176.534 51.8121C176.377 51.9416 176.298 52.1281 176.298 52.3716C176.298 52.5915 176.379 52.7682 176.539 52.9017C176.704 53.0352 176.916 53.1019 177.176 53.1019C177.439 53.1019 177.651 53.0352 177.812 52.9017C177.977 52.7642 178.059 52.5856 178.059 52.3657ZM177.176 53.5142C176.885 53.5142 176.647 53.5829 176.463 53.7203C176.278 53.8538 176.186 54.0561 176.186 54.327C176.186 54.5783 176.274 54.7805 176.451 54.9336C176.632 55.0868 176.873 55.1633 177.176 55.1633C177.478 55.1633 177.717 55.0868 177.894 54.9336C178.071 54.7805 178.159 54.5783 178.159 54.327C178.159 54.0639 178.069 53.8637 177.888 53.7262C177.708 53.5849 177.47 53.5142 177.176 53.5142ZM182.552 53.5672H181.298V54.8394H180.797V53.5672H179.548V53.1137H180.797V51.8356H181.298V53.1137H182.552V53.5672Z" fill="#979797"/>
<rect x="19.8398" y="87.1182" width="69" height="5.04717" rx="2.52358" fill="#EFF3F9"/>
<path opacity="0.8" d="M21.2147 78.1551V80.7643C21.2147 81.0745 21.2952 81.3081 21.4562 81.4652C21.6211 81.6223 21.8488 81.7008 22.1394 81.7008C22.4339 81.7008 22.6616 81.6223 22.8226 81.4652C22.9875 81.3081 23.07 81.0745 23.07 80.7643V78.1551H23.7414V80.7525C23.7414 81.0863 23.6688 81.369 23.5235 81.6007C23.3782 81.8323 23.1838 82.0051 22.9404 82.119C22.697 82.2328 22.428 82.2898 22.1335 82.2898C21.839 82.2898 21.57 82.2328 21.3266 82.119C21.0871 82.0051 20.8967 81.8323 20.7553 81.6007C20.6139 81.369 20.5433 81.0863 20.5433 80.7525V78.1551H21.2147ZM25.8996 80.6289L27.3956 82.2485H26.4886L25.2871 80.8527V82.2485H24.6156V77.8901H25.2871V80.4227L26.465 79.0033H27.3956L25.8996 80.6289ZM28.5483 79.4745C28.6464 79.3095 28.776 79.1819 28.937 79.0916C29.1019 78.9974 29.2963 78.9503 29.5201 78.9503V79.6453H29.3493C29.0862 79.6453 28.886 79.712 28.7485 79.8455C28.615 79.979 28.5483 80.2107 28.5483 80.5405V82.2485H27.8768V79.0033H28.5483V79.4745ZM29.9135 80.6112C29.9135 80.2853 29.9802 79.9967 30.1137 79.7454C30.2511 79.4941 30.4357 79.2997 30.6674 79.1623C30.9029 79.0209 31.1621 78.9503 31.4448 78.9503C31.7 78.9503 31.9219 79.0013 32.1103 79.1034C32.3027 79.2016 32.4559 79.3252 32.5697 79.4745V79.0033H33.2471V82.2485H32.5697V81.7656C32.4559 81.9187 32.3008 82.0463 32.1045 82.1484C31.9081 82.2505 31.6843 82.3015 31.433 82.3015C31.1542 82.3015 30.899 82.2309 30.6674 82.0895C30.4357 81.9442 30.2511 81.744 30.1137 81.4888C29.9802 81.2296 29.9135 80.9371 29.9135 80.6112ZM32.5697 80.623C32.5697 80.3991 32.5226 80.2048 32.4284 80.0399C32.3381 79.875 32.2183 79.7493 32.0691 79.6629C31.9199 79.5765 31.7589 79.5334 31.5862 79.5334C31.4134 79.5334 31.2524 79.5765 31.1032 79.6629C30.954 79.7454 30.8323 79.8691 30.738 80.034C30.6477 80.195 30.6026 80.3874 30.6026 80.6112C30.6026 80.835 30.6477 81.0313 30.738 81.2002C30.8323 81.369 30.954 81.4986 31.1032 81.5889C31.2563 81.6753 31.4173 81.7185 31.5862 81.7185C31.7589 81.7185 31.9199 81.6753 32.0691 81.5889C32.2183 81.5025 32.3381 81.3769 32.4284 81.2119C32.5226 81.0431 32.5697 80.8468 32.5697 80.623ZM34.4706 78.5733C34.3489 78.5733 34.2468 78.5321 34.1643 78.4496C34.0819 78.3672 34.0406 78.2651 34.0406 78.1434C34.0406 78.0216 34.0819 77.9196 34.1643 77.8371C34.2468 77.7546 34.3489 77.7134 34.4706 77.7134C34.5884 77.7134 34.6885 77.7546 34.771 77.8371C34.8534 77.9196 34.8946 78.0216 34.8946 78.1434C34.8946 78.2651 34.8534 78.3672 34.771 78.4496C34.6885 78.5321 34.5884 78.5733 34.4706 78.5733ZM34.8004 79.0033V82.2485H34.129V79.0033H34.8004ZM37.3193 78.9503C37.5745 78.9503 37.8023 79.0033 38.0025 79.1093C38.2067 79.2153 38.3657 79.3724 38.4796 79.5805C38.5934 79.7886 38.6504 80.0399 38.6504 80.3344V82.2485H37.9848V80.4345C37.9848 80.1439 37.9122 79.9221 37.7669 79.7689C37.6216 79.6119 37.4233 79.5334 37.172 79.5334C36.9207 79.5334 36.7205 79.6119 36.5713 79.7689C36.426 79.9221 36.3534 80.1439 36.3534 80.4345V82.2485H35.6819V79.0033H36.3534V79.3743C36.4633 79.2408 36.6027 79.1368 36.7715 79.0622C36.9443 78.9876 37.1269 78.9503 37.3193 78.9503ZM42.4812 80.5464C42.4812 80.6681 42.4733 80.7781 42.4576 80.8762H39.978C39.9976 81.1354 40.0938 81.3435 40.2666 81.5005C40.4394 81.6576 40.6514 81.7361 40.9027 81.7361C41.2639 81.7361 41.5192 81.585 41.6684 81.2826H42.3928C42.2947 81.581 42.116 81.8264 41.8568 82.0188C41.6016 82.2073 41.2836 82.3015 40.9027 82.3015C40.5925 82.3015 40.3137 82.2328 40.0664 82.0954C39.8229 81.954 39.6305 81.7577 39.4892 81.5064C39.3517 81.2512 39.283 80.9567 39.283 80.623C39.283 80.2892 39.3498 79.9967 39.4833 79.7454C39.6207 79.4902 39.8111 79.2938 40.0546 79.1564C40.302 79.019 40.5847 78.9503 40.9027 78.9503C41.209 78.9503 41.4819 79.017 41.7214 79.1505C41.9609 79.284 42.1474 79.4725 42.2809 79.7159C42.4144 79.9555 42.4812 80.2323 42.4812 80.5464ZM41.7803 80.3344C41.7764 80.087 41.688 79.8887 41.5152 79.7395C41.3425 79.5903 41.1285 79.5157 40.8733 79.5157C40.6416 79.5157 40.4433 79.5903 40.2784 79.7395C40.1135 79.8848 40.0153 80.0831 39.9839 80.3344H41.7803Z" fill="#4F4F4F"/>
<path d="M77.122 78.4079L75.4847 82.248H74.9428L76.6037 78.4609H74.3303V78.0015H77.122V78.4079ZM78.4054 81.1054C78.4446 81.3292 78.535 81.502 78.6763 81.6237C78.8216 81.7455 79.016 81.8063 79.2594 81.8063C79.5853 81.8063 79.8248 81.6787 79.9779 81.4235C80.135 81.1683 80.2096 80.7383 80.2018 80.1336C80.1193 80.3103 79.9819 80.4497 79.7895 80.5518C79.5971 80.65 79.3831 80.699 79.1475 80.699C78.8844 80.699 78.6488 80.646 78.4407 80.54C78.2365 80.4301 78.0756 80.271 77.9578 80.0629C77.84 79.8548 77.7811 79.6035 77.7811 79.3091C77.7811 78.8889 77.9028 78.5512 78.1462 78.296C78.3897 78.0369 78.7352 77.9073 79.1828 77.9073C79.7325 77.9073 80.1173 78.0859 80.3372 78.4433C80.561 78.8006 80.6729 79.3326 80.6729 80.0394C80.6729 80.5341 80.6278 80.9425 80.5375 81.2645C80.4511 81.5864 80.3019 81.8318 80.0899 82.0007C79.8817 82.1695 79.5951 82.2539 79.2299 82.2539C78.8294 82.2539 78.5173 82.146 78.2935 81.93C78.0697 81.714 77.9421 81.4392 77.9106 81.1054H78.4054ZM79.2358 80.2455C79.4989 80.2455 79.7149 80.165 79.8837 80.004C80.0526 79.8391 80.137 79.6173 80.137 79.3385C80.137 79.044 80.0545 78.8065 79.8896 78.6258C79.7247 78.4452 79.493 78.3549 79.1946 78.3549C78.9198 78.3549 78.6999 78.4413 78.535 78.6141C78.374 78.7868 78.2935 79.0146 78.2935 79.2973C78.2935 79.5839 78.374 79.8136 78.535 79.9864C78.6959 80.1591 78.9296 80.2455 79.2358 80.2455ZM83.7997 79.0028C83.7133 78.5669 83.4444 78.349 82.9928 78.349C82.6434 78.349 82.3822 78.4845 82.2095 78.7554C82.0367 79.0224 81.9523 79.4642 81.9562 80.0806C82.0465 79.8764 82.1957 79.7174 82.4038 79.6035C82.6159 79.4857 82.8515 79.4268 83.1106 79.4268C83.515 79.4268 83.837 79.5525 84.0765 79.8038C84.32 80.0551 84.4417 80.4026 84.4417 80.8463C84.4417 81.1133 84.3887 81.3528 84.2827 81.5648C84.1806 81.7769 84.0235 81.9457 83.8115 82.0714C83.6034 82.197 83.3501 82.2598 83.0517 82.2598C82.6473 82.2598 82.3312 82.1695 82.1035 81.9889C81.8757 81.8083 81.7167 81.5589 81.6264 81.2409C81.5361 80.9228 81.4909 80.5302 81.4909 80.0629C81.4909 78.6219 81.9935 77.9014 82.9987 77.9014C83.3835 77.9014 83.6858 78.0055 83.9057 78.2136C84.1256 78.4217 84.2552 78.6847 84.2945 79.0028H83.7997ZM82.9987 79.8804C82.8299 79.8804 82.6708 79.9157 82.5216 79.9864C82.3724 80.0531 82.2507 80.1572 82.1565 80.2985C82.0662 80.436 82.021 80.6048 82.021 80.8051C82.021 81.1035 82.1074 81.3469 82.2802 81.5354C82.4529 81.7199 82.7003 81.8122 83.0223 81.8122C83.2971 81.8122 83.515 81.7278 83.676 81.5589C83.8409 81.3862 83.9234 81.1545 83.9234 80.864C83.9234 80.5577 83.8449 80.3182 83.6878 80.1454C83.5307 79.9687 83.301 79.8804 82.9987 79.8804ZM88.3158 80.3221H87.0613V81.5943H86.5606V80.3221H85.312V79.8686H86.5606V78.5905H87.0613V79.8686H88.3158V80.3221Z" fill="#979797"/>
<rect x="20.1074" y="60.8896" width="68.7139" height="4.95444" rx="2.47722" fill="#EFF3F9"/>
<rect x="19.8398" y="114.372" width="68.7139" height="4.95444" rx="2.47722" fill="#EFF3F9"/>
<rect x="20.1074" y="60.8896" width="52.5171" height="4.95444" rx="2.47722" fill="#F56060"/>
<rect x="19.8398" y="114.372" width="27" height="5.04717" rx="2.52358" fill="#F56060"/>
<rect x="19.8398" y="87.1177" width="13" height="5.04717" rx="2.52358" fill="#FDAF43"/>
<path opacity="0.8" d="M22.6754 55.4946L21.733 53.8573H21.2206V55.4946H20.5492V51.4012H21.9627C22.2768 51.4012 22.5419 51.4562 22.7578 51.5662C22.9777 51.6761 23.1407 51.8233 23.2467 52.0079C23.3566 52.1924 23.4116 52.3986 23.4116 52.6263C23.4116 52.8933 23.333 53.1368 23.176 53.3566C23.0229 53.5726 22.7853 53.7198 22.4633 53.7984L23.4764 55.4946H22.6754ZM21.2206 53.3213H21.9627C22.214 53.3213 22.4025 53.2585 22.5281 53.1328C22.6577 53.0072 22.7225 52.8383 22.7225 52.6263C22.7225 52.4143 22.6597 52.2494 22.534 52.1316C22.4084 52.0099 22.2179 51.949 21.9627 51.949H21.2206V53.3213ZM27.2095 52.2494V55.4946H26.5381V55.1118C26.4321 55.2453 26.2927 55.3513 26.1199 55.4298C25.9511 55.5044 25.7704 55.5417 25.578 55.5417C25.3228 55.5417 25.0931 55.4887 24.8889 55.3827C24.6887 55.2767 24.5297 55.1196 24.4119 54.9115C24.298 54.7034 24.2411 54.4521 24.2411 54.1577V52.2494H24.9066V54.0575C24.9066 54.3481 24.9793 54.5719 25.1245 54.729C25.2698 54.8821 25.4681 54.9587 25.7194 54.9587C25.9707 54.9587 26.169 54.8821 26.3143 54.729C26.4635 54.5719 26.5381 54.3481 26.5381 54.0575V52.2494H27.2095ZM29.2734 55.5476C29.0181 55.5476 28.7884 55.5025 28.5843 55.4122C28.384 55.3179 28.225 55.1923 28.1072 55.0352C27.9894 54.8742 27.9266 54.6956 27.9187 54.4993H28.6137C28.6255 54.6367 28.6903 54.7525 28.8081 54.8468C28.9298 54.9371 29.081 54.9822 29.2616 54.9822C29.4501 54.9822 29.5953 54.9469 29.6974 54.8762C29.8034 54.8016 29.8565 54.7074 29.8565 54.5935C29.8565 54.4718 29.7976 54.3815 29.6798 54.3226C29.5659 54.2637 29.3833 54.1989 29.132 54.1282C28.8886 54.0615 28.6903 53.9967 28.5371 53.9338C28.384 53.871 28.2505 53.7748 28.1366 53.6452C28.0267 53.5157 27.9717 53.3449 27.9717 53.1328C27.9717 52.9601 28.0228 52.803 28.1249 52.6617C28.227 52.5164 28.3722 52.4025 28.5607 52.32C28.7531 52.2376 28.973 52.1964 29.2204 52.1964C29.5895 52.1964 29.8859 52.2906 30.1097 52.4791C30.3375 52.6636 30.4592 52.9169 30.4749 53.2388H29.8034C29.7917 53.0936 29.7328 52.9777 29.6268 52.8914C29.5207 52.805 29.3774 52.7618 29.1968 52.7618C29.0201 52.7618 28.8846 52.7952 28.7904 52.8619C28.6962 52.9287 28.6491 53.017 28.6491 53.1269C28.6491 53.2133 28.6805 53.286 28.7433 53.3449C28.8061 53.4038 28.8827 53.4509 28.973 53.4862C29.0633 53.5176 29.1968 53.5589 29.3735 53.6099C29.6091 53.6727 29.8015 53.7375 29.9507 53.8043C30.1038 53.8671 30.2354 53.9613 30.3453 54.087C30.4552 54.2126 30.5122 54.3795 30.5161 54.5876C30.5161 54.7722 30.4651 54.9371 30.363 55.0823C30.2609 55.2276 30.1156 55.3415 29.9271 55.424C29.7426 55.5064 29.5247 55.5476 29.2734 55.5476ZM32.4196 55.5476C32.1643 55.5476 31.9346 55.5025 31.7305 55.4122C31.5302 55.3179 31.3712 55.1923 31.2534 55.0352C31.1356 54.8742 31.0728 54.6956 31.0649 54.4993H31.7599C31.7717 54.6367 31.8365 54.7525 31.9543 54.8468C32.076 54.9371 32.2272 54.9822 32.4078 54.9822C32.5963 54.9822 32.7415 54.9469 32.8436 54.8762C32.9496 54.8016 33.0026 54.7074 33.0026 54.5935C33.0026 54.4718 32.9437 54.3815 32.826 54.3226C32.7121 54.2637 32.5295 54.1989 32.2782 54.1282C32.0348 54.0615 31.8365 53.9967 31.6833 53.9338C31.5302 53.871 31.3967 53.7748 31.2828 53.6452C31.1729 53.5157 31.1179 53.3449 31.1179 53.1328C31.1179 52.9601 31.169 52.803 31.2711 52.6617C31.3731 52.5164 31.5184 52.4025 31.7069 52.32C31.8993 52.2376 32.1192 52.1964 32.3666 52.1964C32.7356 52.1964 33.0321 52.2906 33.2559 52.4791C33.4836 52.6636 33.6054 52.9169 33.6211 53.2388H32.9496C32.9379 53.0936 32.879 52.9777 32.7729 52.8914C32.6669 52.805 32.5236 52.7618 32.343 52.7618C32.1663 52.7618 32.0308 52.7952 31.9366 52.8619C31.8424 52.9287 31.7952 53.017 31.7952 53.1269C31.7952 53.2133 31.8267 53.286 31.8895 53.3449C31.9523 53.4038 32.0289 53.4509 32.1192 53.4862C32.2095 53.5176 32.343 53.5589 32.5197 53.6099C32.7553 53.6727 32.9477 53.7375 33.0969 53.8043C33.25 53.8671 33.3816 53.9613 33.4915 54.087C33.6014 54.2126 33.6584 54.3795 33.6623 54.5876C33.6623 54.7722 33.6113 54.9371 33.5092 55.0823C33.4071 55.2276 33.2618 55.3415 33.0733 55.424C32.8888 55.5064 32.6709 55.5476 32.4196 55.5476ZM34.7294 51.8194C34.6077 51.8194 34.5056 51.7782 34.4231 51.6957C34.3407 51.6133 34.2995 51.5112 34.2995 51.3895C34.2995 51.2677 34.3407 51.1657 34.4231 51.0832C34.5056 51.0007 34.6077 50.9595 34.7294 50.9595C34.8472 50.9595 34.9473 51.0007 35.0298 51.0832C35.1122 51.1657 35.1535 51.2677 35.1535 51.3895C35.1535 51.5112 35.1122 51.6133 35.0298 51.6957C34.9473 51.7782 34.8472 51.8194 34.7294 51.8194ZM35.0592 52.2494V55.4946H34.3878V52.2494H35.0592ZM35.717 53.8573C35.717 53.5314 35.7837 53.2428 35.9172 52.9915C36.0546 52.7402 36.2392 52.5458 36.4708 52.4084C36.7064 52.267 36.9656 52.1964 37.2483 52.1964C37.5035 52.1964 37.7254 52.2474 37.9138 52.3495C38.1062 52.4477 38.2594 52.5713 38.3732 52.7206V52.2494H39.0506V55.4946H38.3732V55.0117C38.2594 55.1648 38.1043 55.2924 37.9079 55.3945C37.7116 55.4966 37.4878 55.5476 37.2365 55.5476C36.9577 55.5476 36.7025 55.477 36.4708 55.3356C36.2392 55.1903 36.0546 54.9901 35.9172 54.7348C35.7837 54.4757 35.717 54.1832 35.717 53.8573ZM38.3732 53.8691C38.3732 53.6452 38.3261 53.4509 38.2319 53.286C38.1416 53.1211 38.0218 52.9954 37.8726 52.909C37.7234 52.8226 37.5624 52.7794 37.3896 52.7794C37.2169 52.7794 37.0559 52.8226 36.9067 52.909C36.7575 52.9915 36.6358 53.1152 36.5415 53.2801C36.4512 53.4411 36.4061 53.6335 36.4061 53.8573C36.4061 54.0811 36.4512 54.2774 36.5415 54.4463C36.6358 54.6151 36.7575 54.7447 36.9067 54.835C37.0598 54.9214 37.2208 54.9646 37.3896 54.9646C37.5624 54.9646 37.7234 54.9214 37.8726 54.835C38.0218 54.7486 38.1416 54.6229 38.2319 54.458C38.3261 54.2892 38.3732 54.0929 38.3732 53.8691Z" fill="#4F4F4F"/>
<path d="M70.5481 55.0637C71.0468 54.6632 71.4375 54.3353 71.7202 54.0801C72.0029 53.821 72.2404 53.552 72.4328 53.2732C72.6292 52.9905 72.7273 52.7137 72.7273 52.4428C72.7273 52.1875 72.6645 51.9873 72.5389 51.842C72.4171 51.6928 72.2188 51.6182 71.944 51.6182C71.677 51.6182 71.4689 51.7026 71.3197 51.8714C71.1744 52.0364 71.0959 52.2582 71.0841 52.537H70.5658C70.5815 52.0972 70.715 51.7576 70.9663 51.5181C71.2176 51.2785 71.5415 51.1588 71.9381 51.1588C72.3425 51.1588 72.6625 51.2707 72.8981 51.4945C73.1376 51.7183 73.2574 52.0265 73.2574 52.4192C73.2574 52.7451 73.1592 53.0631 72.9629 53.3733C72.7705 53.6796 72.5506 53.9505 72.3033 54.1861C72.0559 54.4178 71.7398 54.6887 71.355 54.9989H73.3811V55.4465H70.5481V55.0637ZM74.7781 53.2791C74.5582 53.1927 74.3894 53.0671 74.2716 52.9022C74.1538 52.7372 74.0949 52.537 74.0949 52.3014C74.0949 52.0894 74.1479 51.8989 74.2539 51.7301C74.3599 51.5573 74.517 51.4219 74.7251 51.3237C74.9371 51.2216 75.1924 51.1706 75.4908 51.1706C75.7892 51.1706 76.0425 51.2216 76.2506 51.3237C76.4626 51.4219 76.6216 51.5573 76.7276 51.7301C76.8376 51.8989 76.8925 52.0894 76.8925 52.3014C76.8925 52.5291 76.8317 52.7294 76.71 52.9022C76.5882 53.071 76.4214 53.1966 76.2093 53.2791C76.4528 53.3537 76.6452 53.4852 76.7865 53.6737C76.9318 53.8583 77.0044 54.0821 77.0044 54.3451C77.0044 54.6004 76.9416 54.8242 76.816 55.0166C76.6903 55.2051 76.5117 55.3523 76.28 55.4583C76.0523 55.5604 75.7892 55.6114 75.4908 55.6114C75.1924 55.6114 74.9293 55.5604 74.7015 55.4583C74.4777 55.3523 74.303 55.2051 74.1774 55.0166C74.0517 54.8242 73.9889 54.6004 73.9889 54.3451C73.9889 54.0821 74.0596 53.8563 74.2009 53.6678C74.3423 53.4794 74.5347 53.3498 74.7781 53.2791ZM76.3742 52.3662C76.3742 52.1267 76.2957 51.9421 76.1387 51.8125C75.9816 51.683 75.7656 51.6182 75.4908 51.6182C75.2198 51.6182 75.0059 51.683 74.8488 51.8125C74.6917 51.9421 74.6132 52.1286 74.6132 52.3721C74.6132 52.592 74.6937 52.7687 74.8547 52.9022C75.0196 53.0357 75.2316 53.1024 75.4908 53.1024C75.7539 53.1024 75.9659 53.0357 76.1269 52.9022C76.2918 52.7647 76.3742 52.5861 76.3742 52.3662ZM75.4908 53.5147C75.2002 53.5147 74.9627 53.5834 74.7781 53.7208C74.5936 53.8543 74.5013 54.0565 74.5013 54.3275C74.5013 54.5788 74.5896 54.781 74.7663 54.9341C74.947 55.0873 75.1884 55.1638 75.4908 55.1638C75.7931 55.1638 76.0326 55.0873 76.2093 54.9341C76.386 54.781 76.4744 54.5788 76.4744 54.3275C76.4744 54.0644 76.3841 53.8642 76.2034 53.7267C76.0228 53.5854 75.7853 53.5147 75.4908 53.5147ZM78.4054 54.351C78.4446 54.5748 78.535 54.7476 78.6763 54.8693C78.8216 54.9911 79.016 55.0519 79.2594 55.0519C79.5853 55.0519 79.8248 54.9243 79.9779 54.6691C80.135 54.4139 80.2096 53.9839 80.2018 53.3792C80.1193 53.5559 79.9819 53.6953 79.7895 53.7974C79.5971 53.8956 79.3831 53.9446 79.1475 53.9446C78.8844 53.9446 78.6488 53.8916 78.4407 53.7856C78.2365 53.6757 78.0756 53.5167 77.9578 53.3085C77.84 53.1004 77.7811 52.8491 77.7811 52.5547C77.7811 52.1345 77.9028 51.7968 78.1462 51.5416C78.3897 51.2825 78.7352 51.1529 79.1828 51.1529C79.7325 51.1529 80.1173 51.3316 80.3372 51.6889C80.561 52.0462 80.6729 52.5782 80.6729 53.285C80.6729 53.7797 80.6278 54.1881 80.5375 54.5101C80.4511 54.832 80.3019 55.0774 80.0899 55.2463C79.8817 55.4151 79.5951 55.4995 79.2299 55.4995C78.8294 55.4995 78.5173 55.3916 78.2935 55.1756C78.0697 54.9596 77.9421 54.6848 77.9106 54.351H78.4054ZM79.2358 53.4911C79.4989 53.4911 79.7149 53.4106 79.8837 53.2497C80.0526 53.0847 80.137 52.8629 80.137 52.5841C80.137 52.2896 80.0545 52.0521 79.8896 51.8714C79.7247 51.6908 79.493 51.6005 79.1946 51.6005C78.9198 51.6005 78.6999 51.6869 78.535 51.8597C78.374 52.0324 78.2935 52.2602 78.2935 52.5429C78.2935 52.8295 78.374 53.0592 78.535 53.232C78.6959 53.4047 78.9296 53.4911 79.2358 53.4911ZM83.7997 52.2484C83.7133 51.8125 83.4444 51.5946 82.9928 51.5946C82.6434 51.5946 82.3822 51.7301 82.2095 52.001C82.0367 52.268 81.9523 52.7098 81.9562 53.3262C82.0465 53.122 82.1957 52.963 82.4038 52.8491C82.6159 52.7314 82.8515 52.6725 83.1106 52.6725C83.515 52.6725 83.837 52.7981 84.0765 53.0494C84.32 53.3007 84.4417 53.6482 84.4417 54.0919C84.4417 54.3589 84.3887 54.5984 84.2827 54.8104C84.1806 55.0225 84.0235 55.1913 83.8115 55.317C83.6034 55.4426 83.3501 55.5054 83.0517 55.5054C82.6473 55.5054 82.3312 55.4151 82.1035 55.2345C81.8757 55.0539 81.7167 54.8045 81.6264 54.4865C81.5361 54.1685 81.4909 53.7758 81.4909 53.3085C81.4909 51.8675 81.9935 51.147 82.9987 51.147C83.3835 51.147 83.6858 51.2511 83.9057 51.4592C84.1256 51.6673 84.2552 51.9303 84.2945 52.2484H83.7997ZM82.9987 53.126C82.8299 53.126 82.6708 53.1613 82.5216 53.232C82.3724 53.2987 82.2507 53.4028 82.1565 53.5441C82.0662 53.6816 82.021 53.8504 82.021 54.0507C82.021 54.3491 82.1074 54.5925 82.2802 54.781C82.4529 54.9655 82.7003 55.0578 83.0223 55.0578C83.2971 55.0578 83.515 54.9734 83.676 54.8045C83.8409 54.6318 83.9234 54.4001 83.9234 54.1096C83.9234 53.8033 83.8449 53.5638 83.6878 53.391C83.5307 53.2143 83.301 53.126 82.9987 53.126ZM88.3158 53.5677H87.0613V54.8399H86.5606V53.5677H85.312V53.1142H86.5606V51.8361H87.0613V53.1142H88.3158V53.5677Z" fill="#979797"/>
<rect x="114.344" y="87.1465" width="68.7139" height="4.95444" rx="2.47722" fill="#EFF3F9"/>
<rect x="114.344" y="87.1465" width="16.1969" height="4.95444" rx="2.47722" fill="#35D19E"/>
<path opacity="0.8" d="M115.451 77.6591V80.2682C115.451 80.5784 115.532 80.812 115.693 80.9691C115.857 81.1262 116.085 81.2047 116.376 81.2047C116.67 81.2047 116.898 81.1262 117.059 80.9691C117.224 80.812 117.306 80.5784 117.306 80.2682V77.6591H117.978V80.2564C117.978 80.5902 117.905 80.8729 117.76 81.1046C117.615 81.3362 117.42 81.509 117.177 81.6229C116.933 81.7367 116.664 81.7937 116.37 81.7937C116.075 81.7937 115.806 81.7367 115.563 81.6229C115.323 81.509 115.133 81.3362 114.992 81.1046C114.85 80.8729 114.78 80.5902 114.78 80.2564V77.6591H115.451ZM120.201 81.7937C119.926 81.7937 119.678 81.7466 119.459 81.6523C119.239 81.5542 119.066 81.4167 118.94 81.24C118.815 81.0633 118.752 80.8572 118.752 80.6216H119.47C119.486 80.7983 119.555 80.9436 119.677 81.0574C119.802 81.1713 119.977 81.2283 120.201 81.2283C120.432 81.2283 120.613 81.1733 120.743 81.0633C120.872 80.9495 120.937 80.8042 120.937 80.6275C120.937 80.4901 120.896 80.3782 120.813 80.2918C120.735 80.2054 120.635 80.1386 120.513 80.0915C120.395 80.0444 120.23 79.9934 120.018 79.9384C119.751 79.8677 119.533 79.797 119.364 79.7264C119.199 79.6518 119.058 79.5379 118.94 79.3848C118.823 79.2316 118.764 79.0274 118.764 78.7722C118.764 78.5366 118.823 78.3305 118.94 78.1538C119.058 77.9771 119.223 77.8416 119.435 77.7474C119.647 77.6532 119.892 77.606 120.171 77.606C120.568 77.606 120.892 77.7062 121.143 77.9064C121.398 78.1028 121.54 78.3737 121.567 78.7192H120.825C120.813 78.57 120.743 78.4424 120.613 78.3364C120.483 78.2304 120.313 78.1774 120.101 78.1774C119.908 78.1774 119.751 78.2264 119.629 78.3246C119.508 78.4228 119.447 78.5641 119.447 78.7487C119.447 78.8743 119.484 78.9784 119.559 79.0608C119.637 79.1393 119.735 79.2022 119.853 79.2493C119.971 79.2964 120.132 79.3475 120.336 79.4024C120.607 79.477 120.827 79.5516 120.996 79.6262C121.169 79.7008 121.314 79.8167 121.432 79.9737C121.553 80.1269 121.614 80.333 121.614 80.5922C121.614 80.8003 121.557 80.9966 121.443 81.1811C121.334 81.3657 121.171 81.5149 120.955 81.6288C120.743 81.7387 120.491 81.7937 120.201 81.7937ZM124.874 80.9161H123.16L122.866 81.7524H122.165L123.632 77.6532H124.409L125.876 81.7524H125.169L124.874 80.9161ZM124.686 80.3683L124.02 78.466L123.349 80.3683H124.686Z" fill="#4F4F4F"/>
<path d="M169.014 79.5374C168.795 79.451 168.626 79.3254 168.508 79.1605C168.39 78.9955 168.331 78.7953 168.331 78.5597C168.331 78.3477 168.384 78.1572 168.49 77.9884C168.596 77.8156 168.753 77.6802 168.961 77.582C169.173 77.4799 169.429 77.4289 169.727 77.4289C170.026 77.4289 170.279 77.4799 170.487 77.582C170.699 77.6802 170.858 77.8156 170.964 77.9884C171.074 78.1572 171.129 78.3477 171.129 78.5597C171.129 78.7874 171.068 78.9877 170.946 79.1605C170.825 79.3293 170.658 79.4549 170.446 79.5374C170.689 79.612 170.881 79.7435 171.023 79.932C171.168 80.1166 171.241 80.3404 171.241 80.6034C171.241 80.8587 171.178 81.0825 171.052 81.2749C170.927 81.4634 170.748 81.6106 170.516 81.7166C170.289 81.8187 170.026 81.8697 169.727 81.8697C169.429 81.8697 169.166 81.8187 168.938 81.7166C168.714 81.6106 168.539 81.4634 168.414 81.2749C168.288 81.0825 168.225 80.8587 168.225 80.6034C168.225 80.3404 168.296 80.1146 168.437 79.9261C168.579 79.7377 168.771 79.6081 169.014 79.5374ZM170.611 78.6245C170.611 78.385 170.532 78.2004 170.375 78.0709C170.218 77.9413 170.002 77.8765 169.727 77.8765C169.456 77.8765 169.242 77.9413 169.085 78.0709C168.928 78.2004 168.85 78.3869 168.85 78.6304C168.85 78.8503 168.93 79.027 169.091 79.1605C169.256 79.294 169.468 79.3607 169.727 79.3607C169.99 79.3607 170.202 79.294 170.363 79.1605C170.528 79.023 170.611 78.8444 170.611 78.6245ZM169.727 79.773C169.437 79.773 169.199 79.8417 169.014 79.9791C168.83 80.1126 168.738 80.3149 168.738 80.5858C168.738 80.8371 168.826 81.0393 169.003 81.1924C169.183 81.3456 169.425 81.4221 169.727 81.4221C170.029 81.4221 170.269 81.3456 170.446 81.1924C170.622 81.0393 170.711 80.8371 170.711 80.5858C170.711 80.3227 170.62 80.1225 170.44 79.985C170.259 79.8437 170.022 79.773 169.727 79.773ZM172.642 80.6093C172.681 80.8331 172.771 81.0059 172.913 81.1276C173.058 81.2494 173.252 81.3102 173.496 81.3102C173.822 81.3102 174.061 81.1826 174.214 80.9274C174.371 80.6722 174.446 80.2422 174.438 79.6375C174.356 79.8142 174.218 79.9536 174.026 80.0557C173.833 80.1539 173.619 80.2029 173.384 80.2029C173.121 80.2029 172.885 80.1499 172.677 80.0439C172.473 79.934 172.312 79.775 172.194 79.5669C172.076 79.3587 172.017 79.1074 172.017 78.813C172.017 78.3928 172.139 78.0551 172.383 77.7999C172.626 77.5408 172.972 77.4112 173.419 77.4112C173.969 77.4112 174.354 77.5899 174.574 77.9472C174.797 78.3045 174.909 78.8365 174.909 79.5433C174.909 80.038 174.864 80.4464 174.774 80.7684C174.687 81.0903 174.538 81.3357 174.326 81.5046C174.118 81.6734 173.831 81.7578 173.466 81.7578C173.066 81.7578 172.754 81.6499 172.53 81.4339C172.306 81.2179 172.178 80.9431 172.147 80.6093H172.642ZM173.472 79.7494C173.735 79.7494 173.951 79.6689 174.12 79.508C174.289 79.343 174.373 79.1212 174.373 78.8424C174.373 78.5479 174.291 78.3104 174.126 78.1297C173.961 77.9491 173.729 77.8588 173.431 77.8588C173.156 77.8588 172.936 77.9452 172.771 78.118C172.61 78.2907 172.53 78.5185 172.53 78.8012C172.53 79.0878 172.61 79.3175 172.771 79.4903C172.932 79.6631 173.166 79.7494 173.472 79.7494ZM178.036 78.5067C177.95 78.0709 177.681 77.8529 177.229 77.8529C176.88 77.8529 176.619 77.9884 176.446 78.2593C176.273 78.5263 176.189 78.9681 176.193 79.5845C176.283 79.3803 176.432 79.2213 176.64 79.1074C176.852 78.9897 177.088 78.9308 177.347 78.9308C177.751 78.9308 178.073 79.0564 178.313 79.3077C178.556 79.559 178.678 79.9065 178.678 80.3502C178.678 80.6172 178.625 80.8567 178.519 81.0687C178.417 81.2808 178.26 81.4496 178.048 81.5753C177.84 81.7009 177.586 81.7637 177.288 81.7637C176.884 81.7637 176.568 81.6734 176.34 81.4928C176.112 81.3122 175.953 81.0629 175.863 80.7448C175.772 80.4268 175.727 80.0341 175.727 79.5669C175.727 78.1258 176.23 77.4053 177.235 77.4053C177.62 77.4053 177.922 77.5094 178.142 77.7175C178.362 77.9256 178.492 78.1886 178.531 78.5067H178.036ZM177.235 79.3843C177.066 79.3843 176.907 79.4196 176.758 79.4903C176.609 79.557 176.487 79.6611 176.393 79.8024C176.302 79.9399 176.257 80.1087 176.257 80.309C176.257 80.6074 176.344 80.8508 176.516 81.0393C176.689 81.2238 176.937 81.3161 177.259 81.3161C177.533 81.3161 177.751 81.2317 177.912 81.0629C178.077 80.8901 178.16 80.6584 178.16 80.3679C178.16 80.0616 178.081 79.8221 177.924 79.6493C177.767 79.4726 177.537 79.3843 177.235 79.3843ZM182.552 79.826H181.298V81.0982H180.797V79.826H179.548V79.3725H180.797V78.0944H181.298V79.3725H182.552V79.826Z" fill="#979797"/>
<path opacity="0.8" d="M24.8605 104.91V109.003H24.189V106.199L22.9404 109.003H22.4751L21.2206 106.199V109.003H20.5492V104.91H21.2736L22.7107 108.119L24.1419 104.91H24.8605ZM27.1506 109.056C26.8443 109.056 26.5675 108.987 26.3202 108.85C26.0728 108.708 25.8784 108.512 25.7371 108.261C25.5957 108.006 25.525 107.711 25.525 107.377C25.525 107.048 25.5977 106.755 25.743 106.5C25.8882 106.245 26.0865 106.048 26.3378 105.911C26.5891 105.773 26.8699 105.705 27.1801 105.705C27.4903 105.705 27.771 105.773 28.0223 105.911C28.2736 106.048 28.4719 106.245 28.6172 106.5C28.7624 106.755 28.8351 107.048 28.8351 107.377C28.8351 107.707 28.7605 108 28.6113 108.255C28.4621 108.51 28.2579 108.708 27.9987 108.85C27.7435 108.987 27.4608 109.056 27.1506 109.056ZM27.1506 108.473C27.3234 108.473 27.4844 108.432 27.6336 108.349C27.7867 108.267 27.9104 108.143 28.0046 107.978C28.0989 107.813 28.146 107.613 28.146 107.377C28.146 107.142 28.1008 106.943 28.0105 106.782C27.9202 106.618 27.8005 106.494 27.6512 106.411C27.502 106.329 27.341 106.288 27.1683 106.288C26.9955 106.288 26.8345 106.329 26.6853 106.411C26.54 106.494 26.4242 106.618 26.3378 106.782C26.2514 106.943 26.2083 107.142 26.2083 107.377C26.2083 107.727 26.2966 107.998 26.4733 108.19C26.6539 108.379 26.8797 108.473 27.1506 108.473ZM31.1362 105.705C31.3914 105.705 31.6191 105.758 31.8194 105.864C32.0236 105.97 32.1826 106.127 32.2965 106.335C32.4103 106.543 32.4673 106.794 32.4673 107.089V109.003H31.8017V107.189C31.8017 106.898 31.7291 106.676 31.5838 106.523C31.4385 106.366 31.2402 106.288 30.9889 106.288C30.7376 106.288 30.5374 106.366 30.3882 106.523C30.2429 106.676 30.1703 106.898 30.1703 107.189V109.003H29.4988V105.758H30.1703V106.129C30.2802 105.995 30.4196 105.891 30.5884 105.817C30.7612 105.742 30.9438 105.705 31.1362 105.705ZM34.6313 105.705C34.8826 105.705 35.1044 105.756 35.2968 105.858C35.4931 105.956 35.6463 106.08 35.7562 106.229V105.758H36.4335V109.056C36.4335 109.354 36.3707 109.619 36.2451 109.851C36.1194 110.087 35.9368 110.271 35.6973 110.405C35.4617 110.538 35.179 110.605 34.8492 110.605C34.4094 110.605 34.0442 110.501 33.7537 110.293C33.4631 110.089 33.2982 109.81 33.2589 109.456H33.9245C33.9755 109.625 34.0835 109.761 34.2484 109.863C34.4173 109.969 34.6175 110.022 34.8492 110.022C35.1201 110.022 35.338 109.939 35.5029 109.774C35.6718 109.61 35.7562 109.37 35.7562 109.056V108.514C35.6423 108.667 35.4872 108.797 35.2909 108.903C35.0985 109.005 34.8786 109.056 34.6313 109.056C34.3485 109.056 34.0894 108.985 33.8538 108.844C33.6221 108.699 33.4376 108.498 33.3002 108.243C33.1667 107.984 33.0999 107.691 33.0999 107.366C33.0999 107.04 33.1667 106.751 33.3002 106.5C33.4376 106.248 33.6221 106.054 33.8538 105.917C34.0894 105.775 34.3485 105.705 34.6313 105.705ZM35.7562 107.377C35.7562 107.154 35.7091 106.959 35.6148 106.794C35.5245 106.629 35.4048 106.504 35.2556 106.417C35.1064 106.331 34.9454 106.288 34.7726 106.288C34.5998 106.288 34.4389 106.331 34.2897 106.417C34.1404 106.5 34.0187 106.623 33.9245 106.788C33.8342 106.949 33.789 107.142 33.789 107.366C33.789 107.589 33.8342 107.786 33.9245 107.955C34.0187 108.123 34.1404 108.253 34.2897 108.343C34.4428 108.43 34.6038 108.473 34.7726 108.473C34.9454 108.473 35.1064 108.43 35.2556 108.343C35.4048 108.257 35.5245 108.131 35.6148 107.966C35.7091 107.797 35.7562 107.601 35.7562 107.377ZM38.7231 109.056C38.4168 109.056 38.14 108.987 37.8926 108.85C37.6453 108.708 37.4509 108.512 37.3095 108.261C37.1682 108.006 37.0975 107.711 37.0975 107.377C37.0975 107.048 37.1701 106.755 37.3154 106.5C37.4607 106.245 37.659 106.048 37.9103 105.911C38.1616 105.773 38.4423 105.705 38.7525 105.705C39.0627 105.705 39.3435 105.773 39.5948 105.911C39.8461 106.048 40.0443 106.245 40.1896 106.5C40.3349 106.755 40.4076 107.048 40.4076 107.377C40.4076 107.707 40.3329 108 40.1837 108.255C40.0345 108.51 39.8304 108.708 39.5712 108.85C39.316 108.987 39.0333 109.056 38.7231 109.056ZM38.7231 108.473C38.8958 108.473 39.0568 108.432 39.206 108.349C39.3592 108.267 39.4829 108.143 39.5771 107.978C39.6713 107.813 39.7184 107.613 39.7184 107.377C39.7184 107.142 39.6733 106.943 39.583 106.782C39.4927 106.618 39.3729 106.494 39.2237 106.411C39.0745 106.329 38.9135 106.288 38.7407 106.288C38.568 106.288 38.407 106.329 38.2578 106.411C38.1125 106.494 37.9967 106.618 37.9103 106.782C37.8239 106.943 37.7807 107.142 37.7807 107.377C37.7807 107.727 37.8691 107.998 38.0458 108.19C38.2264 108.379 38.4522 108.473 38.7231 108.473ZM41.7427 104.645V109.003H41.0713V104.645H41.7427ZM42.9659 105.328C42.8442 105.328 42.7421 105.286 42.6596 105.204C42.5771 105.122 42.5359 105.019 42.5359 104.898C42.5359 104.776 42.5771 104.674 42.6596 104.591C42.7421 104.509 42.8442 104.468 42.9659 104.468C43.0837 104.468 43.1838 104.509 43.2662 104.591C43.3487 104.674 43.3899 104.776 43.3899 104.898C43.3899 105.019 43.3487 105.122 43.2662 105.204C43.1838 105.286 43.0837 105.328 42.9659 105.328ZM43.2957 105.758V109.003H42.6243V105.758H43.2957ZM43.9534 107.366C43.9534 107.04 44.0202 106.751 44.1537 106.5C44.2911 106.248 44.4756 106.054 44.7073 105.917C44.9429 105.775 45.202 105.705 45.4848 105.705C45.74 105.705 45.9618 105.756 46.1503 105.858C46.3427 105.956 46.4958 106.08 46.6097 106.229V105.758H47.287V109.003H46.6097V108.52C46.4958 108.673 46.3407 108.801 46.1444 108.903C45.9481 109.005 45.7243 109.056 45.473 109.056C45.1942 109.056 44.939 108.985 44.7073 108.844C44.4756 108.699 44.2911 108.498 44.1537 108.243C44.0202 107.984 43.9534 107.691 43.9534 107.366ZM46.6097 107.377C46.6097 107.154 46.5626 106.959 46.4683 106.794C46.378 106.629 46.2583 106.504 46.1091 106.417C45.9599 106.331 45.7989 106.288 45.6261 106.288C45.4533 106.288 45.2924 106.331 45.1432 106.417C44.9939 106.5 44.8722 106.623 44.778 106.788C44.6877 106.949 44.6425 107.142 44.6425 107.366C44.6425 107.589 44.6877 107.786 44.778 107.955C44.8722 108.123 44.9939 108.253 45.1432 108.343C45.2963 108.43 45.4573 108.473 45.6261 108.473C45.7989 108.473 45.9599 108.43 46.1091 108.343C46.2583 108.257 46.378 108.131 46.4683 107.966C46.5626 107.797 46.6097 107.601 46.6097 107.377Z" fill="#4F4F4F"/>
<path d="M73.8018 105.233V104.744H74.9091V109.002H74.3672V105.233H73.8018ZM75.6884 105.233V104.744H76.7956V109.002H76.2538V105.233H75.6884ZM78.4054 107.86C78.4446 108.084 78.535 108.256 78.6763 108.378C78.8216 108.5 79.016 108.561 79.2594 108.561C79.5853 108.561 79.8248 108.433 79.9779 108.178C80.135 107.923 80.2096 107.493 80.2018 106.888C80.1193 107.065 79.9819 107.204 79.7895 107.306C79.5971 107.404 79.3831 107.453 79.1475 107.453C78.8844 107.453 78.6488 107.4 78.4407 107.294C78.2365 107.184 78.0756 107.025 77.9578 106.817C77.84 106.609 77.7811 106.358 77.7811 106.063C77.7811 105.643 77.9028 105.306 78.1462 105.05C78.3897 104.791 78.7352 104.662 79.1828 104.662C79.7325 104.662 80.1173 104.84 80.3372 105.198C80.561 105.555 80.6729 106.087 80.6729 106.794C80.6729 107.289 80.6278 107.697 80.5375 108.019C80.4511 108.341 80.3019 108.586 80.0899 108.755C79.8817 108.924 79.5951 109.008 79.2299 109.008C78.8294 109.008 78.5173 108.9 78.2935 108.684C78.0697 108.468 77.9421 108.194 77.9106 107.86H78.4054ZM79.2358 107C79.4989 107 79.7149 106.919 79.8837 106.758C80.0526 106.594 80.137 106.372 80.137 106.093C80.137 105.798 80.0545 105.561 79.8896 105.38C79.7247 105.2 79.493 105.109 79.1946 105.109C78.9198 105.109 78.6999 105.196 78.535 105.368C78.374 105.541 78.2935 105.769 78.2935 106.052C78.2935 106.338 78.374 106.568 78.535 106.741C78.6959 106.914 78.9296 107 79.2358 107ZM83.7997 105.757C83.7133 105.321 83.4444 105.103 82.9928 105.103C82.6434 105.103 82.3822 105.239 82.2095 105.51C82.0367 105.777 81.9523 106.219 81.9562 106.835C82.0465 106.631 82.1957 106.472 82.4038 106.358C82.6159 106.24 82.8515 106.181 83.1106 106.181C83.515 106.181 83.837 106.307 84.0765 106.558C84.32 106.809 84.4417 107.157 84.4417 107.601C84.4417 107.868 84.3887 108.107 84.2827 108.319C84.1806 108.531 84.0235 108.7 83.8115 108.826C83.6034 108.951 83.3501 109.014 83.0517 109.014C82.6473 109.014 82.3312 108.924 82.1035 108.743C81.8757 108.563 81.7167 108.313 81.6264 107.995C81.5361 107.677 81.4909 107.285 81.4909 106.817C81.4909 105.376 81.9935 104.656 82.9987 104.656C83.3835 104.656 83.6858 104.76 83.9057 104.968C84.1256 105.176 84.2552 105.439 84.2945 105.757H83.7997ZM82.9987 106.635C82.8299 106.635 82.6708 106.67 82.5216 106.741C82.3724 106.808 82.2507 106.912 82.1565 107.053C82.0662 107.19 82.021 107.359 82.021 107.559C82.021 107.858 82.1074 108.101 82.2802 108.29C82.4529 108.474 82.7003 108.567 83.0223 108.567C83.2971 108.567 83.515 108.482 83.676 108.313C83.8409 108.141 83.9234 107.909 83.9234 107.618C83.9234 107.312 83.8449 107.073 83.6878 106.9C83.5307 106.723 83.301 106.635 82.9987 106.635ZM88.3158 107.076H87.0613V108.349H86.5606V107.076H85.312V106.623H86.5606V105.345H87.0613V106.623H88.3158V107.076Z" fill="#979797"/>
<rect x="114.344" y="113.406" width="68.7139" height="4.95444" rx="2.47722" fill="#EFF3F9"/>
<rect x="114.84" y="113.26" width="26" height="5.04717" rx="2.52358" fill="#F56060"/>
<path opacity="0.8" d="M117.253 107.67H115.539L115.245 108.506H114.544L116.011 104.407H116.788L118.255 108.506H117.548L117.253 107.67ZM117.065 107.122L116.399 105.22L115.728 107.122H117.065ZM119.564 104.148V108.506H118.892V104.148H119.564ZM121.753 105.208C122.004 105.208 122.226 105.259 122.418 105.361C122.615 105.459 122.768 105.583 122.878 105.732V105.261H123.555V108.559C123.555 108.858 123.492 109.123 123.367 109.354C123.241 109.59 123.058 109.775 122.819 109.908C122.583 110.042 122.3 110.108 121.971 110.108C121.531 110.108 121.166 110.004 120.875 109.796C120.585 109.592 120.42 109.313 120.38 108.96H121.046C121.097 109.129 121.205 109.264 121.37 109.366C121.539 109.472 121.739 109.525 121.971 109.525C122.242 109.525 122.459 109.443 122.624 109.278C122.793 109.113 122.878 108.873 122.878 108.559V108.017C122.764 108.171 122.609 108.3 122.412 108.406C122.22 108.508 122 108.559 121.753 108.559C121.47 108.559 121.211 108.489 120.975 108.347C120.744 108.202 120.559 108.002 120.422 107.747C120.288 107.487 120.221 107.195 120.221 106.869C120.221 106.543 120.288 106.254 120.422 106.003C120.559 105.752 120.744 105.558 120.975 105.42C121.211 105.279 121.47 105.208 121.753 105.208ZM122.878 106.881C122.878 106.657 122.831 106.463 122.736 106.298C122.646 106.133 122.526 106.007 122.377 105.921C122.228 105.834 122.067 105.791 121.894 105.791C121.721 105.791 121.56 105.834 121.411 105.921C121.262 106.003 121.14 106.127 121.046 106.292C120.956 106.453 120.91 106.645 120.91 106.869C120.91 107.093 120.956 107.289 121.046 107.458C121.14 107.627 121.262 107.756 121.411 107.847C121.564 107.933 121.725 107.976 121.894 107.976C122.067 107.976 122.228 107.933 122.377 107.847C122.526 107.76 122.646 107.635 122.736 107.47C122.831 107.301 122.878 107.105 122.878 106.881ZM127.411 106.804C127.411 106.926 127.403 107.036 127.388 107.134H124.908C124.928 107.393 125.024 107.601 125.197 107.758C125.369 107.915 125.581 107.994 125.833 107.994C126.194 107.994 126.449 107.843 126.598 107.54H127.323C127.225 107.839 127.046 108.084 126.787 108.277C126.532 108.465 126.214 108.559 125.833 108.559C125.523 108.559 125.244 108.491 124.996 108.353C124.753 108.212 124.561 108.016 124.419 107.764C124.282 107.509 124.213 107.215 124.213 106.881C124.213 106.547 124.28 106.254 124.413 106.003C124.551 105.748 124.741 105.552 124.985 105.414C125.232 105.277 125.515 105.208 125.833 105.208C126.139 105.208 126.412 105.275 126.651 105.408C126.891 105.542 127.077 105.73 127.211 105.974C127.344 106.213 127.411 106.49 127.411 106.804ZM126.71 106.592C126.706 106.345 126.618 106.147 126.445 105.997C126.273 105.848 126.059 105.773 125.803 105.773C125.572 105.773 125.373 105.848 125.208 105.997C125.044 106.143 124.945 106.341 124.914 106.592H126.71ZM128.743 105.732C128.842 105.567 128.971 105.44 129.132 105.349C129.297 105.255 129.491 105.208 129.715 105.208V105.903H129.544C129.281 105.903 129.081 105.97 128.944 106.103C128.81 106.237 128.743 106.468 128.743 106.798V108.506H128.072V105.261H128.743V105.732ZM130.674 104.831C130.552 104.831 130.45 104.79 130.368 104.707C130.285 104.625 130.244 104.523 130.244 104.401C130.244 104.279 130.285 104.177 130.368 104.095C130.45 104.012 130.552 103.971 130.674 103.971C130.792 103.971 130.892 104.012 130.974 104.095C131.057 104.177 131.098 104.279 131.098 104.401C131.098 104.523 131.057 104.625 130.974 104.707C130.892 104.79 130.792 104.831 130.674 104.831ZM131.004 105.261V108.506H130.332V105.261H131.004ZM131.662 106.869C131.662 106.543 131.728 106.254 131.862 106.003C131.999 105.752 132.184 105.558 132.415 105.42C132.651 105.279 132.91 105.208 133.193 105.208C133.448 105.208 133.67 105.259 133.858 105.361C134.051 105.459 134.204 105.583 134.318 105.732V105.261H134.995V108.506H134.318V108.023C134.204 108.177 134.049 108.304 133.853 108.406C133.656 108.508 133.432 108.559 133.181 108.559C132.902 108.559 132.647 108.489 132.415 108.347C132.184 108.202 131.999 108.002 131.862 107.747C131.728 107.487 131.662 107.195 131.662 106.869ZM134.318 106.881C134.318 106.657 134.271 106.463 134.176 106.298C134.086 106.133 133.966 106.007 133.817 105.921C133.668 105.834 133.507 105.791 133.334 105.791C133.161 105.791 133 105.834 132.851 105.921C132.702 106.003 132.58 106.127 132.486 106.292C132.396 106.453 132.351 106.645 132.351 106.869C132.351 107.093 132.396 107.289 132.486 107.458C132.58 107.627 132.702 107.756 132.851 107.847C133.004 107.933 133.165 107.976 133.334 107.976C133.507 107.976 133.668 107.933 133.817 107.847C133.966 107.76 134.086 107.635 134.176 107.47C134.271 107.301 134.318 107.105 134.318 106.881Z" fill="#4F4F4F"/>
<path d="M169.925 104.737V104.248H171.032V108.506H170.49V104.737H169.925ZM172.642 107.364C172.681 107.588 172.771 107.76 172.913 107.882C173.058 108.004 173.252 108.065 173.496 108.065C173.822 108.065 174.061 107.937 174.214 107.682C174.371 107.427 174.446 106.997 174.438 106.392C174.356 106.569 174.218 106.708 174.026 106.81C173.833 106.908 173.619 106.957 173.384 106.957C173.121 106.957 172.885 106.904 172.677 106.798C172.473 106.688 172.312 106.529 172.194 106.321C172.076 106.113 172.017 105.862 172.017 105.567C172.017 105.147 172.139 104.81 172.383 104.554C172.626 104.295 172.972 104.166 173.419 104.166C173.969 104.166 174.354 104.344 174.574 104.702C174.797 105.059 174.909 105.591 174.909 106.298C174.909 106.792 174.864 107.201 174.774 107.523C174.687 107.845 174.538 108.09 174.326 108.259C174.118 108.428 173.831 108.512 173.466 108.512C173.066 108.512 172.754 108.404 172.53 108.188C172.306 107.972 172.178 107.697 172.147 107.364H172.642ZM173.472 106.504C173.735 106.504 173.951 106.423 174.12 106.262C174.289 106.097 174.373 105.876 174.373 105.597C174.373 105.302 174.291 105.065 174.126 104.884C173.961 104.704 173.729 104.613 173.431 104.613C173.156 104.613 172.936 104.7 172.771 104.872C172.61 105.045 172.53 105.273 172.53 105.556C172.53 105.842 172.61 106.072 172.771 106.245C172.932 106.417 173.166 106.504 173.472 106.504ZM178.036 105.261C177.95 104.825 177.681 104.607 177.229 104.607C176.88 104.607 176.619 104.743 176.446 105.014C176.273 105.281 176.189 105.722 176.193 106.339C176.283 106.135 176.432 105.976 176.64 105.862C176.852 105.744 177.088 105.685 177.347 105.685C177.751 105.685 178.073 105.811 178.313 106.062C178.556 106.313 178.678 106.661 178.678 107.105C178.678 107.372 178.625 107.611 178.519 107.823C178.417 108.035 178.26 108.204 178.048 108.33C177.84 108.455 177.586 108.518 177.288 108.518C176.884 108.518 176.568 108.428 176.34 108.247C176.112 108.067 175.953 107.817 175.863 107.499C175.772 107.181 175.727 106.788 175.727 106.321C175.727 104.88 176.23 104.16 177.235 104.16C177.62 104.16 177.922 104.264 178.142 104.472C178.362 104.68 178.492 104.943 178.531 105.261H178.036ZM177.235 106.139C177.066 106.139 176.907 106.174 176.758 106.245C176.609 106.311 176.487 106.415 176.393 106.557C176.302 106.694 176.257 106.863 176.257 107.063C176.257 107.362 176.344 107.605 176.516 107.794C176.689 107.978 176.937 108.071 177.259 108.071C177.533 108.071 177.751 107.986 177.912 107.817C178.077 107.644 178.16 107.413 178.16 107.122C178.16 106.816 178.081 106.576 177.924 106.404C177.767 106.227 177.537 106.139 177.235 106.139ZM182.552 106.58H181.298V107.853H180.797V106.58H179.548V106.127H180.797V104.849H181.298V106.127H182.552V106.58Z" fill="#979797"/>
</svg>
