<svg width="257" height="237" viewBox="0 0 257 237" fill="none" xmlns="http://www.w3.org/2000/svg">
<rect y="0.960938" width="257" height="236" rx="12.2043" fill="white"/>
<path opacity="0.8" d="M25.4811 36.1503C25.4811 35.2065 25.6918 34.3635 26.1133 33.6213C26.544 32.87 27.1258 32.2881 27.8589 31.8758C28.6011 31.4543 29.4303 31.2435 30.3466 31.2435C31.4187 31.2435 32.3579 31.5184 33.1643 32.0682C33.9706 32.618 34.5341 33.3785 34.8549 34.3498H32.642C32.4221 33.8916 32.1105 33.548 31.7073 33.319C31.3133 33.0899 30.8552 32.9753 30.3329 32.9753C29.7739 32.9753 29.2746 33.1082 28.8347 33.3739C28.4041 33.6305 28.065 33.997 27.8176 34.4735C27.5794 34.95 27.4603 35.5089 27.4603 36.1503C27.4603 36.7826 27.5794 37.3415 27.8176 37.8272C28.065 38.3037 28.4041 38.6748 28.8347 38.9405C29.2746 39.1971 29.7739 39.3253 30.3329 39.3253C30.8552 39.3253 31.3133 39.2108 31.7073 38.9817C32.1105 38.7435 32.4221 38.3953 32.642 37.9371H34.8549C34.5341 38.9176 33.9706 39.6827 33.1643 40.2325C32.3671 40.7731 31.4279 41.0434 30.3466 41.0434C29.4303 41.0434 28.6011 40.8372 27.8589 40.4249C27.1258 40.0034 26.544 39.4215 26.1133 38.6793C25.6918 37.9371 25.4811 37.0941 25.4811 36.1503ZM43.4119 33.3464V40.9609H41.4739V39.9988C41.2265 40.3287 40.9012 40.5898 40.4981 40.7823C40.1041 40.9655 39.6734 41.0571 39.2061 41.0571C38.6105 41.0571 38.0836 40.9334 37.6255 40.686C37.1673 40.4295 36.8054 40.0584 36.5396 39.5727C36.2831 39.0779 36.1548 38.4915 36.1548 37.8134V33.3464H38.079V37.5385C38.079 38.1433 38.2302 38.6106 38.5326 38.9405C38.835 39.2612 39.2473 39.4215 39.7696 39.4215C40.3011 39.4215 40.718 39.2612 41.0204 38.9405C41.3227 38.6106 41.4739 38.1433 41.4739 37.5385V33.3464H43.4119ZM46.9598 34.5285C47.2072 34.1253 47.528 33.8092 47.922 33.5801C48.3251 33.351 48.7833 33.2365 49.2964 33.2365V35.2569H48.7879C48.1831 35.2569 47.725 35.399 47.4134 35.683C47.111 35.9671 46.9598 36.4619 46.9598 37.1674V40.9609H45.0356V33.3464H46.9598V34.5285ZM52.2418 34.5285C52.4892 34.1253 52.8099 33.8092 53.204 33.5801C53.6071 33.351 54.0653 33.2365 54.5784 33.2365V35.2569H54.0699C53.4651 35.2569 53.0069 35.399 52.6954 35.683C52.393 35.9671 52.2418 36.4619 52.2418 37.1674V40.9609H50.3176V33.3464H52.2418V34.5285ZM62.678 36.9888C62.678 37.2636 62.6597 37.5111 62.6231 37.731H57.0565C57.1023 38.2807 57.2948 38.7114 57.6338 39.023C57.9728 39.3345 58.3897 39.4903 58.8845 39.4903C59.5993 39.4903 60.1078 39.1833 60.4102 38.5694H62.4856C62.2657 39.3024 61.8442 39.9072 61.2211 40.3837C60.598 40.851 59.8329 41.0846 58.9258 41.0846C58.1927 41.0846 57.533 40.9243 56.9466 40.6036C56.3693 40.2737 55.9157 39.811 55.5858 39.2154C55.2651 38.6198 55.1048 37.9326 55.1048 37.1537C55.1048 36.3657 55.2651 35.6739 55.5858 35.0783C55.9066 34.4827 56.3555 34.0245 56.9328 33.7038C57.5101 33.3831 58.1744 33.2227 58.9258 33.2227C59.6497 33.2227 60.2956 33.3785 60.8638 33.6901C61.441 34.0016 61.8854 34.446 62.197 35.0233C62.5177 35.5914 62.678 36.2466 62.678 36.9888ZM60.6851 36.439C60.6759 35.9442 60.4972 35.5502 60.149 35.2569C59.8008 34.9546 59.3748 34.8034 58.8708 34.8034C58.3943 34.8034 57.9911 34.95 57.6613 35.2432C57.3406 35.5273 57.1436 35.9258 57.0703 36.439H60.6851ZM68.0273 33.2365C68.9344 33.2365 69.6674 33.5251 70.2264 34.1024C70.7853 34.6705 71.0648 35.4677 71.0648 36.494V40.9609H69.1406V36.7551C69.1406 36.1503 68.9894 35.6876 68.687 35.3669C68.3846 35.037 67.9723 34.8721 67.45 34.8721C66.9185 34.8721 66.497 35.037 66.1855 35.3669C65.8831 35.6876 65.7319 36.1503 65.7319 36.7551V40.9609H63.8077V33.3464H65.7319V34.2948C65.9885 33.965 66.3138 33.7084 66.7078 33.5251C67.111 33.3327 67.5508 33.2365 68.0273 33.2365ZM74.8601 34.9271V38.6106C74.8601 38.8672 74.9197 39.055 75.0388 39.1741C75.1671 39.2841 75.3778 39.3391 75.6711 39.3391H76.5645V40.9609H75.3549C73.7331 40.9609 72.9221 40.1729 72.9221 38.5969V34.9271H72.015V33.3464H72.9221V31.4634H74.8601V33.3464H76.5645V34.9271H74.8601ZM87.6697 34.3361C87.6697 34.8492 87.546 35.3302 87.2986 35.7792C87.0604 36.2282 86.6801 36.5902 86.1578 36.8651C85.6447 37.1399 84.9941 37.2774 84.2061 37.2774H82.598V40.9609H80.6738V31.3672H84.2061C84.9483 31.3672 85.5806 31.4955 86.1029 31.7521C86.6252 32.0086 87.0146 32.3614 87.2712 32.8104C87.5369 33.2594 87.6697 33.7679 87.6697 34.3361ZM84.1236 35.7243C84.6551 35.7243 85.0491 35.6051 85.3057 35.3669C85.5622 35.1195 85.6905 34.7759 85.6905 34.3361C85.6905 33.4014 85.1682 32.9341 84.1236 32.9341H82.598V35.7243H84.1236ZM90.6853 30.79V40.9609H88.761V30.79H90.6853ZM91.8167 37.1262C91.8167 36.3565 91.9679 35.6739 92.2703 35.0783C92.5819 34.4827 92.9988 34.0245 93.5211 33.7038C94.0525 33.3831 94.6435 33.2227 95.2941 33.2227C95.8622 33.2227 96.357 33.3373 96.7785 33.5664C97.2092 33.7954 97.5528 34.0841 97.8094 34.4323V33.3464H99.7474V40.9609H97.8094V39.8476C97.562 40.205 97.2184 40.5028 96.7785 40.741C96.3479 40.9701 95.8485 41.0846 95.2804 41.0846C94.639 41.0846 94.0525 40.9197 93.5211 40.5898C92.9988 40.26 92.5819 39.7972 92.2703 39.2016C91.9679 38.5969 91.8167 37.9051 91.8167 37.1262ZM97.8094 37.1537C97.8094 36.6864 97.7177 36.2878 97.5345 35.9579C97.3512 35.6189 97.1038 35.3623 96.7923 35.1882C96.4807 35.005 96.1463 34.9133 95.7889 34.9133C95.4316 34.9133 95.1017 35.0004 94.7993 35.1745C94.4969 35.3486 94.2495 35.6051 94.0571 35.9442C93.8738 36.274 93.7822 36.6681 93.7822 37.1262C93.7822 37.5844 93.8738 37.9875 94.0571 38.3357C94.2495 38.6748 94.4969 38.9359 94.7993 39.1192C95.1109 39.3024 95.4407 39.3941 95.7889 39.3941C96.1463 39.3941 96.4807 39.307 96.7923 39.1329C97.1038 38.9496 97.3512 38.6931 97.5345 38.3632C97.7177 38.0242 97.8094 37.621 97.8094 37.1537ZM105.571 33.2365C106.479 33.2365 107.212 33.5251 107.771 34.1024C108.329 34.6705 108.609 35.4677 108.609 36.494V40.9609H106.685V36.7551C106.685 36.1503 106.534 35.6876 106.231 35.3669C105.929 35.037 105.516 34.8721 104.994 34.8721C104.463 34.8721 104.041 35.037 103.73 35.3669C103.427 35.6876 103.276 36.1503 103.276 36.7551V40.9609H101.352V33.3464H103.276V34.2948C103.533 33.965 103.858 33.7084 104.252 33.5251C104.655 33.3327 105.095 33.2365 105.571 33.2365Z" fill="#021206"/>
<path d="M26.2552 51.606V57.1943H25.5256V51.606H26.2552ZM29.6394 52.7205C30.1739 52.7205 30.6068 52.8835 30.9382 53.2096C31.2696 53.5303 31.4353 53.9953 31.4353 54.6046V57.1943H30.7137V54.7089C30.7137 54.2706 30.6042 53.9365 30.385 53.7067C30.1659 53.4715 29.8665 53.3539 29.487 53.3539C29.1022 53.3539 28.7948 53.4741 28.565 53.7147C28.3405 53.9552 28.2283 54.3053 28.2283 54.765V57.1943H27.4987V52.8007H28.2283V53.426C28.3726 53.2015 28.5677 53.0278 28.8136 52.9049C29.0648 52.7819 29.34 52.7205 29.6394 52.7205ZM34.4151 53.402H33.4931V57.1943H32.7634V53.402H32.1942V52.8007H32.7634V52.488C32.7634 51.9962 32.8891 51.6381 33.1403 51.4136C33.3968 51.1838 33.8057 51.0688 34.367 51.0688V51.6782C34.0463 51.6782 33.8191 51.7423 33.6855 51.8706C33.5572 51.9935 33.4931 52.1993 33.4931 52.488V52.8007H34.4151V53.402ZM37.182 57.2665C36.7704 57.2665 36.3963 57.173 36.0595 56.9859C35.7281 56.7988 35.4662 56.5342 35.2738 56.1921C35.0867 55.8447 34.9932 55.4438 34.9932 54.9895C34.9932 54.5405 35.0894 54.145 35.2818 53.8029C35.4796 53.4554 35.7468 53.1908 36.0836 53.0091C36.4203 52.822 36.7971 52.7285 37.2141 52.7285C37.631 52.7285 38.0078 52.822 38.3446 53.0091C38.6813 53.1908 38.9459 53.4528 39.1383 53.7948C39.3361 54.1369 39.435 54.5351 39.435 54.9895C39.435 55.4438 39.3334 55.8447 39.1303 56.1921C38.9325 56.5342 38.6626 56.7988 38.3205 56.9859C37.9784 57.173 37.5989 57.2665 37.182 57.2665ZM37.182 56.6251C37.4439 56.6251 37.6898 56.5636 37.9196 56.4407C38.1495 56.3177 38.3339 56.1333 38.4728 55.8875C38.6172 55.6416 38.6893 55.3423 38.6893 54.9895C38.6893 54.6367 38.6198 54.3374 38.4809 54.0915C38.3419 53.8456 38.1601 53.6639 37.9357 53.5463C37.7112 53.4234 37.468 53.3619 37.206 53.3619C36.9388 53.3619 36.6929 53.4234 36.4684 53.5463C36.2493 53.6639 36.0729 53.8456 35.9393 54.0915C35.8056 54.3374 35.7388 54.6367 35.7388 54.9895C35.7388 55.3476 35.803 55.6496 35.9312 55.8955C36.0649 56.1413 36.2413 56.3258 36.4604 56.4487C36.6796 56.5663 36.9201 56.6251 37.182 56.6251ZM41.1239 53.5142C41.2521 53.263 41.4339 53.0679 41.6691 52.9289C41.9096 52.79 42.2009 52.7205 42.543 52.7205V53.4741H42.3506C41.5328 53.4741 41.1239 53.9178 41.1239 54.8051V57.1943H40.3943V52.8007H41.1239V53.5142ZM48.6689 52.7205C49.0109 52.7205 49.3156 52.7926 49.5829 52.937C49.8501 53.0759 50.0613 53.2871 50.2163 53.5704C50.3713 53.8536 50.4488 54.1984 50.4488 54.6046V57.1943H49.7272V54.7089C49.7272 54.2706 49.6176 53.9365 49.3985 53.7067C49.1847 53.4715 48.8934 53.3539 48.5245 53.3539C48.145 53.3539 47.843 53.4768 47.6185 53.7227C47.3941 53.9632 47.2818 54.3133 47.2818 54.773V57.1943H46.5602V54.7089C46.5602 54.2706 46.4506 53.9365 46.2315 53.7067C46.0177 53.4715 45.7264 53.3539 45.3576 53.3539C44.9781 53.3539 44.6761 53.4768 44.4516 53.7227C44.2271 53.9632 44.1148 54.3133 44.1148 54.773V57.1943H43.3852V52.8007H44.1148V53.4341C44.2591 53.2042 44.4516 53.0278 44.6921 52.9049C44.938 52.7819 45.2079 52.7205 45.5019 52.7205C45.8707 52.7205 46.1967 52.8033 46.48 52.969C46.7633 53.1347 46.9745 53.3779 47.1134 53.6986C47.2364 53.3886 47.4395 53.1481 47.7228 52.977C48.0061 52.806 48.3214 52.7205 48.6689 52.7205ZM51.373 54.9815C51.373 54.5325 51.4639 54.1396 51.6456 53.8029C51.8273 53.4608 52.0759 53.1962 52.3912 53.0091C52.712 52.822 53.0674 52.7285 53.4576 52.7285C53.8424 52.7285 54.1765 52.8113 54.4598 52.977C54.7431 53.1427 54.9542 53.3512 55.0932 53.6024V52.8007H55.8308V57.1943H55.0932V56.3765C54.9489 56.6331 54.7324 56.8469 54.4438 57.0179C54.1605 57.1836 53.8291 57.2665 53.4496 57.2665C53.0594 57.2665 52.7066 57.1703 52.3912 56.9779C52.0759 56.7854 51.8273 56.5155 51.6456 56.1681C51.4639 55.8206 51.373 55.4251 51.373 54.9815ZM55.0932 54.9895C55.0932 54.6581 55.0264 54.3694 54.8928 54.1236C54.7591 53.8777 54.5774 53.6906 54.3476 53.5623C54.1231 53.4287 53.8745 53.3619 53.6019 53.3619C53.3293 53.3619 53.0808 53.426 52.8563 53.5543C52.6318 53.6826 52.4527 53.8697 52.3191 54.1156C52.1855 54.3614 52.1186 54.6501 52.1186 54.9815C52.1186 55.3182 52.1855 55.6122 52.3191 55.8634C52.4527 56.1093 52.6318 56.299 52.8563 56.4327C53.0808 56.5609 53.3293 56.6251 53.6019 56.6251C53.8745 56.6251 54.1231 56.5609 54.3476 56.4327C54.5774 56.299 54.7591 56.1093 54.8928 55.8634C55.0264 55.6122 55.0932 55.3209 55.0932 54.9895ZM57.9538 53.402V55.9917C57.9538 56.2055 57.9992 56.3578 58.0901 56.4487C58.1809 56.5342 58.3386 56.577 58.5631 56.577H59.1003V57.1943H58.4428C58.0366 57.1943 57.7319 57.1008 57.5288 56.9137C57.3257 56.7266 57.2241 56.4193 57.2241 55.9917V53.402H56.6549V52.8007H57.2241V51.6942H57.9538V52.8007H59.1003V53.402H57.9538ZM60.3611 52.0871C60.2221 52.0871 60.1046 52.039 60.0083 51.9428C59.9121 51.8466 59.864 51.729 59.864 51.59C59.864 51.451 59.9121 51.3334 60.0083 51.2372C60.1046 51.141 60.2221 51.0929 60.3611 51.0929C60.4947 51.0929 60.607 51.141 60.6979 51.2372C60.7941 51.3334 60.8422 51.451 60.8422 51.59C60.8422 51.729 60.7941 51.8466 60.6979 51.9428C60.607 52.039 60.4947 52.0871 60.3611 52.0871ZM60.7139 52.8007V57.1943H59.9843V52.8007H60.7139ZM63.8736 57.2665C63.462 57.2665 63.0879 57.173 62.7511 56.9859C62.4197 56.7988 62.1578 56.5342 61.9654 56.1921C61.7783 55.8447 61.6848 55.4438 61.6848 54.9895C61.6848 54.5405 61.781 54.145 61.9734 53.8029C62.1712 53.4554 62.4384 53.1908 62.7752 53.0091C63.1119 52.822 63.4888 52.7285 63.9057 52.7285C64.3226 52.7285 64.6994 52.822 65.0362 53.0091C65.3729 53.1908 65.6375 53.4528 65.8299 53.7948C66.0277 54.1369 66.1266 54.5351 66.1266 54.9895C66.1266 55.4438 66.025 55.8447 65.8219 56.1921C65.6241 56.5342 65.3542 56.7988 65.0121 56.9859C64.67 57.173 64.2905 57.2665 63.8736 57.2665ZM63.8736 56.6251C64.1355 56.6251 64.3814 56.5636 64.6112 56.4407C64.8411 56.3177 65.0255 56.1333 65.1645 55.8875C65.3088 55.6416 65.3809 55.3423 65.3809 54.9895C65.3809 54.6367 65.3114 54.3374 65.1725 54.0915C65.0335 53.8456 64.8518 53.6639 64.6273 53.5463C64.4028 53.4234 64.1596 53.3619 63.8977 53.3619C63.6304 53.3619 63.3845 53.4234 63.16 53.5463C62.9409 53.6639 62.7645 53.8456 62.6309 54.0915C62.4972 54.3374 62.4304 54.6367 62.4304 54.9895C62.4304 55.3476 62.4946 55.6496 62.6229 55.8955C62.7565 56.1413 62.9329 56.3258 63.152 56.4487C63.3712 56.5663 63.6117 56.6251 63.8736 56.6251ZM69.2266 52.7205C69.7611 52.7205 70.1941 52.8835 70.5254 53.2096C70.8568 53.5303 71.0225 53.9953 71.0225 54.6046V57.1943H70.301V54.7089C70.301 54.2706 70.1914 53.9365 69.9722 53.7067C69.7531 53.4715 69.4538 53.3539 69.0743 53.3539C68.6894 53.3539 68.3821 53.4741 68.1522 53.7147C67.9277 53.9552 67.8155 54.3053 67.8155 54.765V57.1943H67.0859V52.8007H67.8155V53.426C67.9598 53.2015 68.1549 53.0278 68.4008 52.9049C68.652 52.7819 68.9273 52.7205 69.2266 52.7205ZM74.0793 54.9815C74.0793 54.5325 74.1701 54.1396 74.3519 53.8029C74.5336 53.4608 74.7822 53.1962 75.0975 53.0091C75.4182 52.822 75.7737 52.7285 76.1639 52.7285C76.5487 52.7285 76.8828 52.8113 77.1661 52.977C77.4494 53.1427 77.6605 53.3512 77.7995 53.6024V52.8007H78.5371V57.1943H77.7995V56.3765C77.6552 56.6331 77.4387 56.8469 77.15 57.0179C76.8668 57.1836 76.5354 57.2665 76.1559 57.2665C75.7657 57.2665 75.4129 57.1703 75.0975 56.9779C74.7822 56.7854 74.5336 56.5155 74.3519 56.1681C74.1701 55.8206 74.0793 55.4251 74.0793 54.9815ZM77.7995 54.9895C77.7995 54.6581 77.7327 54.3694 77.599 54.1236C77.4654 53.8777 77.2837 53.6906 77.0538 53.5623C76.8293 53.4287 76.5808 53.3619 76.3082 53.3619C76.0356 53.3619 75.787 53.426 75.5625 53.5543C75.3381 53.6826 75.159 53.8697 75.0254 54.1156C74.8917 54.3614 74.8249 54.6501 74.8249 54.9815C74.8249 55.3182 74.8917 55.6122 75.0254 55.8634C75.159 56.1093 75.3381 56.299 75.5625 56.4327C75.787 56.5609 76.0356 56.6251 76.3082 56.6251C76.5808 56.6251 76.8293 56.5609 77.0538 56.4327C77.2837 56.299 77.4654 56.1093 77.599 55.8634C77.7327 55.6122 77.7995 55.3209 77.7995 54.9895ZM81.9108 52.7205C82.4453 52.7205 82.8782 52.8835 83.2096 53.2096C83.541 53.5303 83.7067 53.9953 83.7067 54.6046V57.1943H82.9851V54.7089C82.9851 54.2706 82.8756 53.9365 82.6564 53.7067C82.4373 53.4715 82.1379 53.3539 81.7584 53.3539C81.3736 53.3539 81.0663 53.4741 80.8364 53.7147C80.6119 53.9552 80.4997 54.3053 80.4997 54.765V57.1943H79.7701V52.8007H80.4997V53.426C80.644 53.2015 80.8391 53.0278 81.085 52.9049C81.3362 52.7819 81.6115 52.7205 81.9108 52.7205ZM84.6259 54.9815C84.6259 54.5325 84.7168 54.1396 84.8985 53.8029C85.0803 53.4608 85.3288 53.1962 85.6442 53.0091C85.9649 52.822 86.323 52.7285 86.7186 52.7285C87.0606 52.7285 87.3787 52.8087 87.6727 52.969C87.9666 53.124 88.1911 53.3298 88.3461 53.5864V51.2613H89.0838V57.1943H88.3461V56.3685C88.2018 56.6304 87.988 56.8469 87.7047 57.0179C87.4214 57.1836 87.09 57.2665 86.7105 57.2665C86.3203 57.2665 85.9649 57.1703 85.6442 56.9779C85.3288 56.7854 85.0803 56.5155 84.8985 56.1681C84.7168 55.8206 84.6259 55.4251 84.6259 54.9815ZM88.3461 54.9895C88.3461 54.6581 88.2793 54.3694 88.1457 54.1236C88.0121 53.8777 87.8303 53.6906 87.6005 53.5623C87.376 53.4287 87.1275 53.3619 86.8549 53.3619C86.5823 53.3619 86.3337 53.426 86.1092 53.5543C85.8847 53.6826 85.7057 53.8697 85.572 54.1156C85.4384 54.3614 85.3716 54.6501 85.3716 54.9815C85.3716 55.3182 85.4384 55.6122 85.572 55.8634C85.7057 56.1093 85.8847 56.299 86.1092 56.4327C86.3337 56.5609 86.5823 56.6251 86.8549 56.6251C87.1275 56.6251 87.376 56.5609 87.6005 56.4327C87.8303 56.299 88.0121 56.1093 88.1457 55.8634C88.2793 55.6122 88.3461 55.3209 88.3461 54.9895ZM96.3508 52.8007V57.1943H95.6212V56.5449C95.4823 56.7694 95.2872 56.9458 95.0359 57.0741C94.7901 57.197 94.5175 57.2585 94.2181 57.2585C93.8761 57.2585 93.5687 57.189 93.2961 57.05C93.0235 56.9057 92.807 56.6919 92.6467 56.4086C92.4917 56.1253 92.4142 55.7806 92.4142 55.3743V52.8007H93.1358V55.2781C93.1358 55.7111 93.2453 56.0451 93.4645 56.2803C93.6836 56.5102 93.983 56.6251 94.3625 56.6251C94.7527 56.6251 95.06 56.5048 95.2845 56.2643C95.509 56.0238 95.6212 55.6737 95.6212 55.214V52.8007H96.3508ZM99.1382 57.2665C98.8014 57.2665 98.4994 57.2104 98.2322 57.0981C97.9649 56.9805 97.7538 56.8202 97.5988 56.6171C97.4438 56.4086 97.3583 56.1707 97.3422 55.9035H98.0959C98.1173 56.1226 98.2188 56.3017 98.4005 56.4407C98.5876 56.5796 98.8308 56.6491 99.1302 56.6491C99.4081 56.6491 99.6272 56.5877 99.7876 56.4647C99.948 56.3418 100.028 56.1868 100.028 55.9997C100.028 55.8073 99.9426 55.6656 99.7716 55.5748C99.6005 55.4786 99.3359 55.385 98.9778 55.2941C98.6518 55.2086 98.3845 55.1231 98.1761 55.0376C97.9729 54.9467 97.7965 54.8158 97.6469 54.6447C97.5026 54.4683 97.4304 54.2385 97.4304 53.9552C97.4304 53.7307 97.4972 53.5249 97.6309 53.3378C97.7645 53.1508 97.9542 53.0038 98.2001 52.8969C98.446 52.7846 98.7266 52.7285 99.042 52.7285C99.5284 52.7285 99.9212 52.8514 100.221 53.0973C100.52 53.3432 100.68 53.6799 100.702 54.1075H99.972C99.956 53.8777 99.8624 53.6933 99.6914 53.5543C99.5257 53.4153 99.3012 53.3459 99.0179 53.3459C98.756 53.3459 98.5475 53.402 98.3925 53.5142C98.2375 53.6265 98.16 53.7735 98.16 53.9552C98.16 54.0995 98.2055 54.2198 98.2963 54.316C98.3925 54.4069 98.5101 54.4817 98.6491 54.5405C98.7934 54.5939 98.9912 54.6554 99.2424 54.7249C99.5578 54.8104 99.8143 54.8959 100.012 54.9815C100.21 55.0616 100.378 55.1846 100.517 55.3503C100.662 55.516 100.736 55.7324 100.742 55.9997C100.742 56.2402 100.675 56.4567 100.541 56.6491C100.408 56.8416 100.218 56.9939 99.972 57.1061C99.7315 57.213 99.4535 57.2665 99.1382 57.2665ZM101.499 54.9815C101.499 54.5325 101.59 54.1396 101.772 53.8029C101.953 53.4608 102.202 53.1962 102.517 53.0091C102.838 52.822 103.193 52.7285 103.584 52.7285C103.968 52.7285 104.303 52.8113 104.586 52.977C104.869 53.1427 105.08 53.3512 105.219 53.6024V52.8007H105.957V57.1943H105.219V56.3765C105.075 56.6331 104.858 56.8469 104.57 57.0179C104.287 57.1836 103.955 57.2665 103.576 57.2665C103.185 57.2665 102.833 57.1703 102.517 56.9779C102.202 56.7854 101.953 56.5155 101.772 56.1681C101.59 55.8206 101.499 55.4251 101.499 54.9815ZM105.219 54.9895C105.219 54.6581 105.152 54.3694 105.019 54.1236C104.885 53.8777 104.703 53.6906 104.474 53.5623C104.249 53.4287 104.001 53.3619 103.728 53.3619C103.455 53.3619 103.207 53.426 102.982 53.5543C102.758 53.6826 102.579 53.8697 102.445 54.1156C102.312 54.3614 102.245 54.6501 102.245 54.9815C102.245 55.3182 102.312 55.6122 102.445 55.8634C102.579 56.1093 102.758 56.299 102.982 56.4327C103.207 56.5609 103.455 56.6251 103.728 56.6251C104.001 56.6251 104.249 56.5609 104.474 56.4327C104.703 56.299 104.885 56.1093 105.019 55.8634C105.152 55.6122 105.219 55.3209 105.219 54.9895ZM109.002 52.7285C109.381 52.7285 109.713 52.8113 109.996 52.977C110.285 53.1427 110.498 53.3512 110.637 53.6024V52.8007H111.375V57.2905C111.375 57.6914 111.29 58.0469 111.119 58.3569C110.947 58.6723 110.702 58.9181 110.381 59.0945C110.066 59.2709 109.697 59.3591 109.274 59.3591C108.697 59.3591 108.216 59.2228 107.831 58.9502C107.446 58.6776 107.219 58.3061 107.15 57.8357H107.871C107.952 58.103 108.117 58.3168 108.368 58.4772C108.62 58.6429 108.922 58.7257 109.274 58.7257C109.675 58.7257 110.001 58.6001 110.253 58.3489C110.509 58.0977 110.637 57.7449 110.637 57.2905V56.3685C110.493 56.6251 110.279 56.8389 109.996 57.0099C109.713 57.181 109.381 57.2665 109.002 57.2665C108.612 57.2665 108.256 57.1703 107.935 56.9779C107.62 56.7854 107.372 56.5155 107.19 56.1681C107.008 55.8206 106.917 55.4251 106.917 54.9815C106.917 54.5325 107.008 54.1396 107.19 53.8029C107.372 53.4608 107.62 53.1962 107.935 53.0091C108.256 52.822 108.612 52.7285 109.002 52.7285ZM110.637 54.9895C110.637 54.6581 110.571 54.3694 110.437 54.1236C110.303 53.8777 110.122 53.6906 109.892 53.5623C109.667 53.4287 109.419 53.3619 109.146 53.3619C108.874 53.3619 108.625 53.426 108.401 53.5543C108.176 53.6826 107.997 53.8697 107.863 54.1156C107.73 54.3614 107.663 54.6501 107.663 54.9815C107.663 55.3182 107.73 55.6122 107.863 55.8634C107.997 56.1093 108.176 56.299 108.401 56.4327C108.625 56.5609 108.874 56.6251 109.146 56.6251C109.419 56.6251 109.667 56.5609 109.892 56.4327C110.122 56.299 110.303 56.1093 110.437 55.8634C110.571 55.6122 110.637 55.3209 110.637 54.9895ZM116.617 54.8291C116.617 54.9681 116.609 55.1151 116.593 55.2701H113.081C113.108 55.7031 113.255 56.0425 113.522 56.2883C113.795 56.5289 114.123 56.6491 114.508 56.6491C114.824 56.6491 115.085 56.577 115.294 56.4327C115.508 56.283 115.657 56.0852 115.743 55.8394H116.529C116.411 56.2616 116.176 56.6064 115.823 56.8736C115.47 57.1355 115.032 57.2665 114.508 57.2665C114.091 57.2665 113.717 57.173 113.386 56.9859C113.06 56.7988 112.803 56.5342 112.616 56.1921C112.429 55.8447 112.335 55.4438 112.335 54.9895C112.335 54.5351 112.426 54.1369 112.608 53.7948C112.79 53.4528 113.044 53.1908 113.37 53.0091C113.701 52.822 114.081 52.7285 114.508 52.7285C114.925 52.7285 115.294 52.8194 115.615 53.0011C115.935 53.1828 116.181 53.4341 116.352 53.7548C116.529 54.0701 116.617 54.4282 116.617 54.8291ZM115.863 54.6768C115.863 54.3988 115.802 54.161 115.679 53.9632C115.556 53.7601 115.387 53.6078 115.174 53.5062C114.965 53.3993 114.733 53.3459 114.476 53.3459C114.107 53.3459 113.792 53.4634 113.53 53.6986C113.273 53.9338 113.127 54.2599 113.089 54.6768H115.863ZM119.135 57.2665C118.799 57.2665 118.497 57.2104 118.229 57.0981C117.962 56.9805 117.751 56.8202 117.596 56.6171C117.441 56.4086 117.355 56.1707 117.339 55.9035H118.093C118.114 56.1226 118.216 56.3017 118.398 56.4407C118.585 56.5796 118.828 56.6491 119.127 56.6491C119.405 56.6491 119.624 56.5877 119.785 56.4647C119.945 56.3418 120.025 56.1868 120.025 55.9997C120.025 55.8073 119.94 55.6656 119.769 55.5748C119.598 55.4786 119.333 55.385 118.975 55.2941C118.649 55.2086 118.382 55.1231 118.173 55.0376C117.97 54.9467 117.794 54.8158 117.644 54.6447C117.5 54.4683 117.428 54.2385 117.428 53.9552C117.428 53.7307 117.494 53.5249 117.628 53.3378C117.762 53.1508 117.951 53.0038 118.197 52.8969C118.443 52.7846 118.724 52.7285 119.039 52.7285C119.526 52.7285 119.918 52.8514 120.218 53.0973C120.517 53.3432 120.677 53.6799 120.699 54.1075H119.969C119.953 53.8777 119.86 53.6933 119.689 53.5543C119.523 53.4153 119.298 53.3459 119.015 53.3459C118.753 53.3459 118.545 53.402 118.39 53.5142C118.235 53.6265 118.157 53.7735 118.157 53.9552C118.157 54.0995 118.203 54.2198 118.293 54.316C118.39 54.4069 118.507 54.4817 118.646 54.5405C118.791 54.5939 118.988 54.6554 119.24 54.7249C119.555 54.8104 119.812 54.8959 120.009 54.9815C120.207 55.0616 120.375 55.1846 120.514 55.3503C120.659 55.516 120.734 55.7324 120.739 55.9997C120.739 56.2402 120.672 56.4567 120.538 56.6491C120.405 56.8416 120.215 56.9939 119.969 57.1061C119.729 57.213 119.451 57.2665 119.135 57.2665ZM125.823 57.2665C125.411 57.2665 125.037 57.173 124.7 56.9859C124.369 56.7988 124.107 56.5342 123.914 56.1921C123.727 55.8447 123.634 55.4438 123.634 54.9895C123.634 54.5405 123.73 54.145 123.922 53.8029C124.12 53.4554 124.387 53.1908 124.724 53.0091C125.061 52.822 125.438 52.7285 125.855 52.7285C126.272 52.7285 126.648 52.822 126.985 53.0091C127.322 53.1908 127.586 53.4528 127.779 53.7948C127.977 54.1369 128.076 54.5351 128.076 54.9895C128.076 55.4438 127.974 55.8447 127.771 56.1921C127.573 56.5342 127.303 56.7988 126.961 56.9859C126.619 57.173 126.24 57.2665 125.823 57.2665ZM125.823 56.6251C126.084 56.6251 126.33 56.5636 126.56 56.4407C126.79 56.3177 126.974 56.1333 127.113 55.8875C127.258 55.6416 127.33 55.3423 127.33 54.9895C127.33 54.6367 127.26 54.3374 127.121 54.0915C126.982 53.8456 126.801 53.6639 126.576 53.5463C126.352 53.4234 126.109 53.3619 125.847 53.3619C125.579 53.3619 125.334 53.4234 125.109 53.5463C124.89 53.6639 124.713 53.8456 124.58 54.0915C124.446 54.3374 124.379 54.6367 124.379 54.9895C124.379 55.3476 124.444 55.6496 124.572 55.8955C124.705 56.1413 124.882 56.3258 125.101 56.4487C125.32 56.5663 125.561 56.6251 125.823 56.6251ZM130.823 53.402H129.901V57.1943H129.171V53.402H128.602V52.8007H129.171V52.488C129.171 51.9962 129.297 51.6381 129.548 51.4136C129.805 51.1838 130.213 51.0688 130.775 51.0688V51.6782C130.454 51.6782 130.227 51.7423 130.093 51.8706C129.965 51.9935 129.901 52.1993 129.901 52.488V52.8007H130.823V53.402ZM137.595 52.8007L134.95 59.2629H134.196L135.062 57.1462L133.29 52.8007H134.1L135.479 56.3605L136.842 52.8007H137.595ZM140.245 57.2665C139.833 57.2665 139.459 57.173 139.123 56.9859C138.791 56.7988 138.529 56.5342 138.337 56.1921C138.15 55.8447 138.056 55.4438 138.056 54.9895C138.056 54.5405 138.152 54.145 138.345 53.8029C138.543 53.4554 138.81 53.1908 139.147 53.0091C139.483 52.822 139.86 52.7285 140.277 52.7285C140.694 52.7285 141.071 52.822 141.408 53.0091C141.744 53.1908 142.009 53.4528 142.201 53.7948C142.399 54.1369 142.498 54.5351 142.498 54.9895C142.498 55.4438 142.396 55.8447 142.193 56.1921C141.995 56.5342 141.726 56.7988 141.383 56.9859C141.041 57.173 140.662 57.2665 140.245 57.2665ZM140.245 56.6251C140.507 56.6251 140.753 56.5636 140.983 56.4407C141.212 56.3177 141.397 56.1333 141.536 55.8875C141.68 55.6416 141.752 55.3423 141.752 54.9895C141.752 54.6367 141.683 54.3374 141.544 54.0915C141.405 53.8456 141.223 53.6639 140.999 53.5463C140.774 53.4234 140.531 53.3619 140.269 53.3619C140.002 53.3619 139.756 53.4234 139.531 53.5463C139.312 53.6639 139.136 53.8456 139.002 54.0915C138.869 54.3374 138.802 54.6367 138.802 54.9895C138.802 55.3476 138.866 55.6496 138.994 55.8955C139.128 56.1413 139.304 56.3258 139.523 56.4487C139.743 56.5663 139.983 56.6251 140.245 56.6251ZM147.354 52.8007V57.1943H146.624V56.5449C146.485 56.7694 146.29 56.9458 146.039 57.0741C145.793 57.197 145.52 57.2585 145.221 57.2585C144.879 57.2585 144.572 57.189 144.299 57.05C144.026 56.9057 143.81 56.6919 143.65 56.4086C143.495 56.1253 143.417 55.7806 143.417 55.3743V52.8007H144.139V55.2781C144.139 55.7111 144.248 56.0451 144.467 56.2803C144.687 56.5102 144.986 56.6251 145.365 56.6251C145.756 56.6251 146.063 56.5048 146.287 56.2643C146.512 56.0238 146.624 55.6737 146.624 55.214V52.8007H147.354ZM149.315 53.5142C149.444 53.263 149.625 53.0679 149.861 52.9289C150.101 52.79 150.392 52.7205 150.734 52.7205V53.4741H150.542C149.724 53.4741 149.315 53.9178 149.315 54.8051V57.1943H148.586V52.8007H149.315V53.5142ZM153.442 54.9895C153.442 54.5351 153.532 54.1396 153.714 53.8029C153.896 53.4608 154.147 53.1962 154.468 53.0091C154.794 52.822 155.165 52.7285 155.582 52.7285C156.122 52.7285 156.566 52.8595 156.913 53.1214C157.266 53.3833 157.499 53.7467 157.611 54.2118H156.825C156.75 53.9445 156.603 53.7334 156.384 53.5784C156.17 53.4234 155.903 53.3459 155.582 53.3459C155.165 53.3459 154.829 53.4902 154.572 53.7788C154.316 54.0621 154.187 54.4657 154.187 54.9895C154.187 55.5186 154.316 55.9275 154.572 56.2162C154.829 56.5048 155.165 56.6491 155.582 56.6491C155.903 56.6491 156.17 56.5743 156.384 56.4246C156.598 56.275 156.745 56.0612 156.825 55.7832H157.611C157.493 56.2322 157.258 56.593 156.905 56.8656C156.552 57.1329 156.111 57.2665 155.582 57.2665C155.165 57.2665 154.794 57.173 154.468 56.9859C154.147 56.7988 153.896 56.5342 153.714 56.1921C153.532 55.85 153.442 55.4492 153.442 54.9895ZM162.481 52.8007V57.1943H161.751V56.5449C161.612 56.7694 161.417 56.9458 161.166 57.0741C160.92 57.197 160.648 57.2585 160.348 57.2585C160.006 57.2585 159.699 57.189 159.426 57.05C159.154 56.9057 158.937 56.6919 158.777 56.4086C158.622 56.1253 158.544 55.7806 158.544 55.3743V52.8007H159.266V55.2781C159.266 55.7111 159.375 56.0451 159.595 56.2803C159.814 56.5102 160.113 56.6251 160.493 56.6251C160.883 56.6251 161.19 56.5048 161.415 56.2643C161.639 56.0238 161.751 55.6737 161.751 55.214V52.8007H162.481ZM164.442 53.5142C164.571 53.263 164.752 53.0679 164.988 52.9289C165.228 52.79 165.519 52.7205 165.862 52.7205V53.4741H165.669C164.851 53.4741 164.442 53.9178 164.442 54.8051V57.1943H163.713V52.8007H164.442V53.5142ZM167.433 53.5142C167.562 53.263 167.743 53.0679 167.979 52.9289C168.219 52.79 168.51 52.7205 168.853 52.7205V53.4741H168.66C167.842 53.4741 167.433 53.9178 167.433 54.8051V57.1943H166.704V52.8007H167.433V53.5142ZM173.704 54.8291C173.704 54.9681 173.696 55.1151 173.68 55.2701H170.168C170.195 55.7031 170.341 56.0425 170.609 56.2883C170.881 56.5289 171.21 56.6491 171.595 56.6491C171.91 56.6491 172.172 56.577 172.381 56.4327C172.594 56.283 172.744 56.0852 172.83 55.8394H173.615C173.498 56.2616 173.263 56.6064 172.91 56.8736C172.557 57.1355 172.119 57.2665 171.595 57.2665C171.178 57.2665 170.804 57.173 170.472 56.9859C170.146 56.7988 169.89 56.5342 169.703 56.1921C169.516 55.8447 169.422 55.4438 169.422 54.9895C169.422 54.5351 169.513 54.1369 169.695 53.7948C169.876 53.4528 170.13 53.1908 170.456 53.0091C170.788 52.822 171.167 52.7285 171.595 52.7285C172.012 52.7285 172.381 52.8194 172.701 53.0011C173.022 53.1828 173.268 53.4341 173.439 53.7548C173.615 54.0701 173.704 54.4282 173.704 54.8291ZM172.95 54.6768C172.95 54.3988 172.888 54.161 172.766 53.9632C172.643 53.7601 172.474 53.6078 172.26 53.5062C172.052 53.3993 171.819 53.3459 171.563 53.3459C171.194 53.3459 170.879 53.4634 170.617 53.6986C170.36 53.9338 170.213 54.2599 170.176 54.6768H172.95ZM176.807 52.7205C177.342 52.7205 177.775 52.8835 178.106 53.2096C178.438 53.5303 178.603 53.9953 178.603 54.6046V57.1943H177.882V54.7089C177.882 54.2706 177.772 53.9365 177.553 53.7067C177.334 53.4715 177.034 53.3539 176.655 53.3539C176.27 53.3539 175.963 53.4741 175.733 53.7147C175.508 53.9552 175.396 54.3053 175.396 54.765V57.1943H174.667V52.8007H175.396V53.426C175.541 53.2015 175.736 53.0278 175.982 52.9049C176.233 52.7819 176.508 52.7205 176.807 52.7205ZM180.685 53.402V55.9917C180.685 56.2055 180.731 56.3578 180.821 56.4487C180.912 56.5342 181.07 56.577 181.294 56.577H181.832V57.1943H181.174C180.768 57.1943 180.463 57.1008 180.26 56.9137C180.057 56.7266 179.955 56.4193 179.955 55.9917V53.402H179.386V52.8007H179.955V51.6942H180.685V52.8007H181.832V53.402H180.685ZM185.583 53.6104C185.727 53.3592 185.941 53.1508 186.224 52.9851C186.513 52.814 186.847 52.7285 187.226 52.7285C187.617 52.7285 187.969 52.822 188.285 53.0091C188.605 53.1962 188.857 53.4608 189.038 53.8029C189.22 54.1396 189.311 54.5325 189.311 54.9815C189.311 55.4251 189.22 55.8206 189.038 56.1681C188.857 56.5155 188.605 56.7854 188.285 56.9779C187.969 57.1703 187.617 57.2665 187.226 57.2665C186.852 57.2665 186.521 57.1836 186.232 57.0179C185.949 56.8469 185.732 56.6358 185.583 56.3846V59.2789L184.853 59.2789V52.8007H185.583V53.6104ZM188.565 54.9815C188.565 54.6501 188.498 54.3614 188.365 54.1156C188.231 53.8697 188.049 53.6826 187.82 53.5543C187.595 53.426 187.347 53.3619 187.074 53.3619C186.807 53.3619 186.558 53.4287 186.328 53.5623C186.104 53.6906 185.922 53.8804 185.783 54.1316C185.65 54.3775 185.583 54.6634 185.583 54.9895C185.583 55.3209 185.65 55.6122 185.783 55.8634C185.922 56.1093 186.104 56.299 186.328 56.4327C186.558 56.5609 186.807 56.6251 187.074 56.6251C187.347 56.6251 187.595 56.5609 187.82 56.4327C188.049 56.299 188.231 56.1093 188.365 55.8634C188.498 55.6122 188.565 55.3182 188.565 54.9815ZM191.001 51.2613V57.1943H190.271V51.2613H191.001ZM191.972 54.9815C191.972 54.5325 192.063 54.1396 192.244 53.8029C192.426 53.4608 192.675 53.1962 192.99 53.0091C193.311 52.822 193.666 52.7285 194.056 52.7285C194.441 52.7285 194.775 52.8113 195.059 52.977C195.342 53.1427 195.553 53.3512 195.692 53.6024V52.8007H196.43V57.1943H195.692V56.3765C195.548 56.6331 195.331 56.8469 195.043 57.0179C194.759 57.1836 194.428 57.2665 194.048 57.2665C193.658 57.2665 193.305 57.1703 192.99 56.9779C192.675 56.7854 192.426 56.5155 192.244 56.1681C192.063 55.8206 191.972 55.4251 191.972 54.9815ZM195.692 54.9895C195.692 54.6581 195.625 54.3694 195.492 54.1236C195.358 53.8777 195.176 53.6906 194.946 53.5623C194.722 53.4287 194.473 53.3619 194.201 53.3619C193.928 53.3619 193.68 53.426 193.455 53.5543C193.231 53.6826 193.052 53.8697 192.918 54.1156C192.784 54.3614 192.717 54.6501 192.717 54.9815C192.717 55.3182 192.784 55.6122 192.918 55.8634C193.052 56.1093 193.231 56.299 193.455 56.4327C193.68 56.5609 193.928 56.6251 194.201 56.6251C194.473 56.6251 194.722 56.5609 194.946 56.4327C195.176 56.299 195.358 56.1093 195.492 55.8634C195.625 55.6122 195.692 55.3209 195.692 54.9895ZM199.803 52.7205C200.338 52.7205 200.771 52.8835 201.102 53.2096C201.434 53.5303 201.599 53.9953 201.599 54.6046V57.1943H200.878V54.7089C200.878 54.2706 200.768 53.9365 200.549 53.7067C200.33 53.4715 200.03 53.3539 199.651 53.3539C199.266 53.3539 198.959 53.4741 198.729 53.7147C198.504 53.9552 198.392 54.3053 198.392 54.765V57.1943H197.663V52.8007H198.392V53.426C198.537 53.2015 198.732 53.0278 198.977 52.9049C199.229 52.7819 199.504 52.7205 199.803 52.7205Z" fill="#92959E"/>
<path opacity="0.7" d="M224.65 131.427V130.666H226.173V136.004H225.331V131.427H224.65ZM229.992 129.091L228.001 137.285H227.18L229.165 129.091H229.992ZM230.773 131.984C230.803 131.53 230.976 131.176 231.293 130.922C231.616 130.668 232.026 130.541 232.524 130.541C232.865 130.541 233.161 130.602 233.41 130.724C233.659 130.846 233.846 131.012 233.973 131.222C234.1 131.432 234.164 131.669 234.164 131.933C234.164 132.235 234.083 132.494 233.922 132.709C233.761 132.924 233.568 133.068 233.344 133.141V133.17C233.632 133.258 233.856 133.419 234.017 133.653C234.178 133.883 234.259 134.178 234.259 134.539C234.259 134.827 234.193 135.084 234.061 135.308C233.929 135.533 233.734 135.711 233.475 135.843C233.217 135.97 232.907 136.033 232.545 136.033C232.018 136.033 231.584 135.899 231.242 135.63C230.905 135.357 230.725 134.967 230.7 134.459H231.506C231.525 134.718 231.625 134.93 231.806 135.096C231.987 135.257 232.231 135.338 232.538 135.338C232.836 135.338 233.065 135.257 233.226 135.096C233.388 134.93 233.468 134.718 233.468 134.459C233.468 134.117 233.358 133.875 233.139 133.734C232.924 133.587 232.592 133.514 232.143 133.514H231.952V132.826H232.15C232.545 132.821 232.846 132.755 233.051 132.628C233.261 132.501 233.366 132.301 233.366 132.028C233.366 131.793 233.29 131.608 233.139 131.471C232.987 131.33 232.772 131.259 232.494 131.259C232.221 131.259 232.009 131.33 231.857 131.471C231.706 131.608 231.616 131.779 231.586 131.984H230.773Z" fill="#021206"/>
<path opacity="0.8" d="M29.2792 132.278C29.2792 132.561 29.2123 132.828 29.0787 133.08C28.9451 133.331 28.7313 133.537 28.4373 133.697C28.1433 133.852 27.7665 133.929 27.3068 133.929H26.2966V136.19H25.3826V130.618H27.3068C27.7344 130.618 28.0952 130.693 28.3892 130.843C28.6885 130.987 28.9103 131.185 29.0547 131.436C29.2043 131.687 29.2792 131.968 29.2792 132.278ZM27.3068 133.184C27.6542 133.184 27.9135 133.106 28.0845 132.951C28.2556 132.791 28.3411 132.566 28.3411 132.278C28.3411 131.668 27.9963 131.364 27.3068 131.364H26.2966V133.184H27.3068ZM30.9046 132.414C31.0382 132.19 31.2146 132.016 31.4337 131.893C31.6582 131.765 31.9228 131.701 32.2275 131.701V132.647H31.995C31.6368 132.647 31.3642 132.737 31.1772 132.919C30.9954 133.101 30.9046 133.416 30.9046 133.865V136.19H29.9905V131.773H30.9046V132.414ZM34.8235 136.263C34.4066 136.263 34.0297 136.169 33.693 135.982C33.3563 135.79 33.0917 135.522 32.8993 135.18C32.7068 134.833 32.6106 134.432 32.6106 133.978C32.6106 133.529 32.7095 133.13 32.9073 132.783C33.105 132.435 33.375 132.168 33.7171 131.981C34.0591 131.794 34.4413 131.701 34.8636 131.701C35.2859 131.701 35.668 131.794 36.0101 131.981C36.3522 132.168 36.6221 132.435 36.8199 132.783C37.0177 133.13 37.1166 133.529 37.1166 133.978C37.1166 134.427 37.015 134.825 36.8119 135.172C36.6088 135.52 36.3308 135.79 35.978 135.982C35.6306 136.169 35.2458 136.263 34.8235 136.263ZM34.8235 135.469C35.0587 135.469 35.2778 135.413 35.4809 135.3C35.6894 135.188 35.8578 135.02 35.9861 134.795C36.1143 134.571 36.1785 134.298 36.1785 133.978C36.1785 133.657 36.117 133.387 35.9941 133.168C35.8711 132.943 35.7081 132.775 35.505 132.663C35.3019 132.55 35.0827 132.494 34.8476 132.494C34.6124 132.494 34.3932 132.55 34.1901 132.663C33.9923 132.775 33.8347 132.943 33.7171 133.168C33.5995 133.387 33.5407 133.657 33.5407 133.978C33.5407 134.453 33.6609 134.822 33.9015 135.084C34.1473 135.341 34.4547 135.469 34.8235 135.469ZM38.3248 131.187C38.1591 131.187 38.0201 131.131 37.9079 131.019C37.7956 130.907 37.7395 130.768 37.7395 130.602C37.7395 130.436 37.7956 130.297 37.9079 130.185C38.0201 130.073 38.1591 130.017 38.3248 130.017C38.4851 130.017 38.6214 130.073 38.7337 130.185C38.8459 130.297 38.902 130.436 38.902 130.602C38.902 130.768 38.8459 130.907 38.7337 131.019C38.6214 131.131 38.4851 131.187 38.3248 131.187ZM38.7738 137.056C38.7738 137.489 38.6642 137.802 38.445 137.994C38.2312 138.192 37.9185 138.291 37.507 138.291H37.0339V137.521H37.3466C37.5337 137.521 37.6647 137.484 37.7395 137.409C37.8197 137.34 37.8598 137.222 37.8598 137.056V131.773H38.7738V137.056ZM43.8623 133.873C43.8623 134.039 43.8517 134.189 43.8303 134.322H40.4548C40.4816 134.675 40.6125 134.958 40.8477 135.172C41.0829 135.386 41.3715 135.493 41.7136 135.493C42.2054 135.493 42.5528 135.287 42.7559 134.876H43.7421C43.6085 135.282 43.3653 135.616 43.0125 135.878C42.665 136.134 42.2321 136.263 41.7136 136.263C41.2914 136.263 40.9118 136.169 40.5751 135.982C40.2437 135.79 39.9818 135.522 39.7894 135.18C39.6023 134.833 39.5088 134.432 39.5088 133.978C39.5088 133.523 39.5996 133.125 39.7814 132.783C39.9684 132.435 40.2277 132.168 40.5591 131.981C40.8958 131.794 41.2807 131.701 41.7136 131.701C42.1305 131.701 42.502 131.791 42.8281 131.973C43.1541 132.155 43.408 132.411 43.5897 132.743C43.7715 133.069 43.8623 133.446 43.8623 133.873ZM42.9082 133.585C42.9029 133.248 42.7826 132.978 42.5475 132.775C42.3123 132.572 42.021 132.47 41.6735 132.47C41.3582 132.47 41.0882 132.572 40.8637 132.775C40.6392 132.973 40.5056 133.243 40.4629 133.585H42.9082ZM44.2968 133.978C44.2968 133.523 44.3877 133.125 44.5694 132.783C44.7565 132.435 45.0131 132.168 45.3391 131.981C45.6652 131.794 46.0393 131.701 46.4616 131.701C46.9961 131.701 47.4371 131.829 47.7845 132.085C48.1373 132.337 48.3751 132.697 48.4981 133.168H47.5119C47.4317 132.949 47.3034 132.778 47.127 132.655C46.9507 132.532 46.7288 132.47 46.4616 132.47C46.0874 132.47 45.7881 132.604 45.5636 132.871C45.3444 133.133 45.2349 133.502 45.2349 133.978C45.2349 134.453 45.3444 134.825 45.5636 135.092C45.7881 135.359 46.0874 135.493 46.4616 135.493C46.9907 135.493 47.3408 135.26 47.5119 134.795H48.4981C48.3698 135.244 48.1292 135.602 47.7765 135.87C47.4237 136.132 46.9854 136.263 46.4616 136.263C46.0393 136.263 45.6652 136.169 45.3391 135.982C45.0131 135.79 44.7565 135.522 44.5694 135.18C44.3877 134.833 44.2968 134.432 44.2968 133.978ZM50.3149 132.518V134.964C50.3149 135.129 50.3524 135.25 50.4272 135.325C50.5074 135.394 50.641 135.429 50.8281 135.429H51.3893V136.19H50.6677C50.2561 136.19 49.9408 136.094 49.7216 135.902C49.5025 135.709 49.3929 135.397 49.3929 134.964V132.518H48.8718V131.773H49.3929V130.674H50.3149V131.773H51.3893V132.518H50.3149ZM53.6749 136.263C53.3275 136.263 53.0148 136.201 52.7368 136.078C52.4642 135.95 52.2478 135.779 52.0874 135.565C51.9271 135.346 51.8415 135.103 51.8308 134.835H52.7769C52.793 135.023 52.8812 135.18 53.0415 135.308C53.2072 135.431 53.413 135.493 53.6589 135.493C53.9154 135.493 54.1132 135.445 54.2522 135.349C54.3965 135.247 54.4687 135.119 54.4687 134.964C54.4687 134.798 54.3885 134.675 54.2281 134.595C54.0731 134.515 53.8246 134.427 53.4825 134.33C53.1511 134.239 52.8812 134.151 52.6727 134.066C52.4642 133.98 52.2825 133.849 52.1275 133.673C51.9778 133.496 51.903 133.264 51.903 132.975C51.903 132.74 51.9725 132.526 52.1115 132.334C52.2504 132.136 52.4482 131.981 52.7048 131.869C52.9667 131.757 53.266 131.701 53.6027 131.701C54.1052 131.701 54.5087 131.829 54.8134 132.085C55.1234 132.337 55.2891 132.681 55.3105 133.12H54.3965C54.3805 132.922 54.3003 132.764 54.156 132.647C54.0116 132.529 53.8165 132.47 53.5707 132.47C53.3301 132.47 53.1457 132.516 53.0175 132.607C52.8892 132.697 52.825 132.818 52.825 132.967C52.825 133.085 52.8678 133.184 52.9533 133.264C53.0388 133.344 53.1431 133.408 53.266 133.456C53.3889 133.499 53.5707 133.555 53.8112 133.625C54.1319 133.71 54.3938 133.798 54.5969 133.889C54.8054 133.975 54.9845 134.103 55.1341 134.274C55.2838 134.445 55.3613 134.672 55.3666 134.956C55.3666 135.207 55.2971 135.431 55.1582 135.629C55.0192 135.827 54.8214 135.982 54.5649 136.094C54.3136 136.206 54.017 136.263 53.6749 136.263Z" fill="#021206"/>
<rect opacity="0.1" x="24.9062" y="141.688" width="209.605" height="3.43614" rx="1.71807" fill="#F56060"/>
<rect x="24.9062" y="141.688" width="61.8506" height="3.43614" rx="1.71807" fill="#F56060"/>
<path opacity="0.7" d="M224.321 164.786V164.025H225.844V169.363H225.002V164.786H224.321ZM229.663 162.45L227.672 170.644H226.851L228.836 162.45H229.663ZM233.901 164.742H231.448V166.199C231.55 166.063 231.702 165.948 231.902 165.855C232.107 165.763 232.324 165.716 232.553 165.716C232.963 165.716 233.295 165.804 233.549 165.98C233.808 166.155 233.991 166.378 234.098 166.646C234.211 166.915 234.267 167.198 234.267 167.496C234.267 167.857 234.196 168.179 234.055 168.462C233.918 168.74 233.71 168.96 233.432 169.121C233.159 169.282 232.822 169.363 232.422 169.363C231.889 169.363 231.462 169.231 231.14 168.967C230.818 168.704 230.625 168.355 230.562 167.92H231.374C231.428 168.15 231.548 168.333 231.733 168.469C231.919 168.601 232.151 168.667 232.429 168.667C232.776 168.667 233.034 168.562 233.205 168.352C233.381 168.142 233.469 167.864 233.469 167.518C233.469 167.166 233.381 166.898 233.205 166.712C233.029 166.522 232.771 166.426 232.429 166.426C232.19 166.426 231.987 166.487 231.821 166.609C231.66 166.727 231.543 166.888 231.47 167.093H230.679V164.01H233.901V164.742Z" fill="#021206"/>
<path opacity="0.8" d="M26.2886 163.977V167.528C26.2886 167.951 26.3981 168.269 26.6173 168.482C26.8418 168.696 27.1518 168.803 27.5473 168.803C27.9482 168.803 28.2582 168.696 28.4774 168.482C28.7019 168.269 28.8141 167.951 28.8141 167.528V163.977H29.7281V167.512C29.7281 167.967 29.6293 168.352 29.4315 168.667C29.2337 168.982 28.9691 169.217 28.6377 169.372C28.3063 169.527 27.9402 169.605 27.5393 169.605C27.1384 169.605 26.7723 169.527 26.4409 169.372C26.1149 169.217 25.8556 168.982 25.6632 168.667C25.4708 168.352 25.3746 167.967 25.3746 167.512V163.977H26.2886ZM32.3614 169.621C32.014 169.621 31.7013 169.56 31.4233 169.437C31.1507 169.308 30.9342 169.137 30.7739 168.923C30.6135 168.704 30.528 168.461 30.5173 168.194H31.4634C31.4794 168.381 31.5676 168.539 31.728 168.667C31.8937 168.79 32.0995 168.851 32.3454 168.851C32.6019 168.851 32.7997 168.803 32.9387 168.707C33.083 168.605 33.1551 168.477 33.1551 168.322C33.1551 168.156 33.075 168.033 32.9146 167.953C32.7596 167.873 32.511 167.785 32.169 167.689C31.8376 167.598 31.5676 167.51 31.3592 167.424C31.1507 167.339 30.969 167.208 30.814 167.031C30.6643 166.855 30.5895 166.622 30.5895 166.334C30.5895 166.099 30.659 165.885 30.7979 165.692C30.9369 165.495 31.1347 165.34 31.3912 165.227C31.6532 165.115 31.9525 165.059 32.2892 165.059C32.7917 165.059 33.1952 165.187 33.4999 165.444C33.8099 165.695 33.9756 166.04 33.997 166.478H33.083C33.0669 166.28 32.9868 166.123 32.8424 166.005C32.6981 165.887 32.503 165.829 32.2572 165.829C32.0166 165.829 31.8322 165.874 31.7039 165.965C31.5757 166.056 31.5115 166.176 31.5115 166.326C31.5115 166.443 31.5543 166.542 31.6398 166.622C31.7253 166.703 31.8295 166.767 31.9525 166.815C32.0754 166.858 32.2572 166.914 32.4977 166.983C32.8184 167.069 33.0803 167.157 33.2834 167.248C33.4919 167.333 33.6709 167.462 33.8206 167.633C33.9703 167.804 34.0478 168.031 34.0531 168.314C34.0531 168.565 33.9836 168.79 33.8447 168.988C33.7057 169.185 33.5079 169.34 33.2513 169.453C33.0001 169.565 32.7035 169.621 32.3614 169.621ZM38.9293 167.232C38.9293 167.397 38.9186 167.547 38.8972 167.681H35.5218C35.5485 168.033 35.6795 168.317 35.9147 168.531C36.1498 168.744 36.4385 168.851 36.7806 168.851C37.2723 168.851 37.6197 168.646 37.8229 168.234H38.809C38.6754 168.64 38.4322 168.974 38.0794 169.236C37.732 169.493 37.299 169.621 36.7806 169.621C36.3583 169.621 35.9788 169.527 35.6421 169.34C35.3107 169.148 35.0487 168.881 34.8563 168.539C34.6692 168.191 34.5757 167.79 34.5757 167.336C34.5757 166.882 34.6666 166.483 34.8483 166.141C35.0354 165.794 35.2946 165.527 35.626 165.34C35.9628 165.152 36.3476 165.059 36.7806 165.059C37.1975 165.059 37.569 165.15 37.895 165.332C38.2211 165.513 38.475 165.77 38.6567 166.101C38.8384 166.427 38.9293 166.804 38.9293 167.232ZM37.9752 166.943C37.9698 166.606 37.8496 166.336 37.6144 166.133C37.3792 165.93 37.0879 165.829 36.7405 165.829C36.4251 165.829 36.1552 165.93 35.9307 166.133C35.7062 166.331 35.5726 166.601 35.5298 166.943H37.9752ZM40.5824 165.773C40.7161 165.548 40.8925 165.374 41.1116 165.251C41.3361 165.123 41.6007 165.059 41.9053 165.059V166.005H41.6728C41.3147 166.005 41.0421 166.096 40.855 166.278C40.6733 166.459 40.5824 166.775 40.5824 167.224V169.549H39.6684V165.131H40.5824V165.773ZM44.1887 169.621C43.8413 169.621 43.5286 169.56 43.2506 169.437C42.978 169.308 42.7615 169.137 42.6012 168.923C42.4408 168.704 42.3553 168.461 42.3446 168.194H43.2907C43.3067 168.381 43.3949 168.539 43.5553 168.667C43.721 168.79 43.9268 168.851 44.1727 168.851C44.4292 168.851 44.627 168.803 44.766 168.707C44.9103 168.605 44.9824 168.477 44.9824 168.322C44.9824 168.156 44.9023 168.033 44.7419 167.953C44.5869 167.873 44.3384 167.785 43.9963 167.689C43.6649 167.598 43.3949 167.51 43.1865 167.424C42.978 167.339 42.7963 167.208 42.6413 167.031C42.4916 166.855 42.4168 166.622 42.4168 166.334C42.4168 166.099 42.4863 165.885 42.6252 165.692C42.7642 165.495 42.962 165.34 43.2186 165.227C43.4805 165.115 43.7798 165.059 44.1165 165.059C44.619 165.059 45.0225 165.187 45.3272 165.444C45.6372 165.695 45.8029 166.04 45.8243 166.478H44.9103C44.8942 166.28 44.8141 166.123 44.6698 166.005C44.5254 165.887 44.3303 165.829 44.0845 165.829C43.8439 165.829 43.6595 165.874 43.5312 165.965C43.403 166.056 43.3388 166.176 43.3388 166.326C43.3388 166.443 43.3816 166.542 43.4671 166.622C43.5526 166.703 43.6569 166.767 43.7798 166.815C43.9027 166.858 44.0845 166.914 44.325 166.983C44.6457 167.069 44.9076 167.157 45.1107 167.248C45.3192 167.333 45.4982 167.462 45.6479 167.633C45.7976 167.804 45.8751 168.031 45.8804 168.314C45.8804 168.565 45.8109 168.79 45.672 168.988C45.533 169.185 45.3352 169.34 45.0787 169.453C44.8274 169.565 44.5308 169.621 44.1887 169.621Z" fill="#021206"/>
<rect opacity="0.1" x="24.9062" y="174.905" width="209.605" height="3.43614" rx="1.71807" fill="#74DFBC"/>
<rect x="24.9062" y="174.905" width="166.08" height="3.43614" rx="1.71807" fill="#74DFBC"/>
<path opacity="0.7" d="M209.881 198.027L207.845 202.721H207.003L209.06 198.115H206.351V197.405H209.881V198.027ZM210.895 202.772C210.744 202.772 210.617 202.721 210.514 202.618C210.412 202.516 210.361 202.389 210.361 202.237C210.361 202.086 210.412 201.959 210.514 201.857C210.617 201.754 210.744 201.703 210.895 201.703C211.042 201.703 211.166 201.754 211.269 201.857C211.371 201.959 211.422 202.086 211.422 202.237C211.422 202.389 211.371 202.516 211.269 202.618C211.166 202.721 211.042 202.772 210.895 202.772ZM215.51 198.1H213.057V199.557C213.159 199.421 213.311 199.306 213.511 199.213C213.716 199.12 213.933 199.074 214.163 199.074C214.573 199.074 214.905 199.162 215.159 199.338C215.417 199.513 215.6 199.736 215.708 200.004C215.82 200.273 215.876 200.556 215.876 200.853C215.876 201.215 215.805 201.537 215.664 201.82C215.527 202.098 215.32 202.318 215.041 202.479C214.768 202.64 214.431 202.721 214.031 202.721C213.499 202.721 213.072 202.589 212.749 202.325C212.427 202.062 212.234 201.713 212.171 201.278H212.984C213.037 201.508 213.157 201.691 213.343 201.827C213.528 201.959 213.76 202.025 214.038 202.025C214.385 202.025 214.644 201.92 214.814 201.71C214.99 201.5 215.078 201.222 215.078 200.875C215.078 200.524 214.99 200.255 214.814 200.07C214.639 199.88 214.38 199.784 214.038 199.784C213.799 199.784 213.596 199.845 213.43 199.967C213.269 200.085 213.152 200.246 213.079 200.451H212.288V197.368H215.51V198.1ZM218.305 200.707L220.165 202.721H219.037L217.543 200.985V202.721H216.709V197.302H217.543V200.451L219.008 198.686H220.165L218.305 200.707ZM223.326 195.808L221.334 204.002H220.514L222.499 195.808H223.326ZM224.012 198.144V197.383H225.535V202.721H224.693V198.144H224.012ZM226.535 199.982C226.535 199.138 226.677 198.478 226.96 198.005C227.248 197.527 227.741 197.287 228.439 197.287C229.137 197.287 229.628 197.527 229.911 198.005C230.199 198.478 230.343 199.138 230.343 199.982C230.343 200.836 230.199 201.505 229.911 201.988C229.628 202.467 229.137 202.706 228.439 202.706C227.741 202.706 227.248 202.467 226.96 201.988C226.677 201.505 226.535 200.836 226.535 199.982ZM229.523 199.982C229.523 199.587 229.496 199.252 229.442 198.979C229.394 198.705 229.291 198.483 229.135 198.313C228.979 198.137 228.747 198.049 228.439 198.049C228.132 198.049 227.9 198.137 227.744 198.313C227.587 198.483 227.482 198.705 227.429 198.979C227.38 199.252 227.356 199.587 227.356 199.982C227.356 200.392 227.38 200.736 227.429 201.015C227.478 201.293 227.58 201.517 227.736 201.688C227.897 201.859 228.132 201.945 228.439 201.945C228.747 201.945 228.979 201.859 229.135 201.688C229.296 201.517 229.401 201.293 229.45 201.015C229.499 200.736 229.523 200.392 229.523 199.982ZM232.786 200.707L234.646 202.721H233.518L232.025 200.985V202.721H231.19V197.302H232.025V200.451L233.489 198.686H234.646L232.786 200.707Z" fill="#021206"/>
<path opacity="0.8" d="M28.277 202.907L26.9941 200.678H26.2966V202.907H25.3826V197.335H27.3068C27.7344 197.335 28.0952 197.41 28.3892 197.559C28.6885 197.709 28.9103 197.91 29.0547 198.161C29.2043 198.412 29.2792 198.693 29.2792 199.003C29.2792 199.366 29.1723 199.697 28.9585 199.997C28.75 200.291 28.4266 200.491 27.9883 200.598L29.3674 202.907H28.277ZM26.2966 199.949H27.3068C27.6489 199.949 27.9055 199.863 28.0765 199.692C28.2529 199.521 28.3411 199.291 28.3411 199.003C28.3411 198.714 28.2556 198.489 28.0845 198.329C27.9135 198.163 27.6542 198.081 27.3068 198.081H26.2966V199.949ZM34.337 200.59C34.337 200.756 34.3263 200.905 34.3049 201.039H30.9295C30.9562 201.392 31.0872 201.675 31.3223 201.889C31.5575 202.103 31.8462 202.21 32.1883 202.21C32.68 202.21 33.0274 202.004 33.2306 201.592H34.2167C34.0831 201.999 33.8399 202.333 33.4871 202.595C33.1397 202.851 32.7067 202.979 32.1883 202.979C31.766 202.979 31.3865 202.886 31.0497 202.699C30.7184 202.506 30.4564 202.239 30.264 201.897C30.0769 201.55 29.9834 201.149 29.9834 200.694C29.9834 200.24 30.0743 199.842 30.256 199.5C30.4431 199.152 30.7023 198.885 31.0337 198.698C31.3705 198.511 31.7553 198.417 32.1883 198.417C32.6052 198.417 32.9767 198.508 33.3027 198.69C33.6288 198.872 33.8827 199.128 34.0644 199.46C34.2461 199.786 34.337 200.163 34.337 200.59ZM33.3829 200.301C33.3775 199.965 33.2573 199.695 33.0221 199.492C32.7869 199.289 32.4956 199.187 32.1482 199.187C31.8328 199.187 31.5629 199.289 31.3384 199.492C31.1139 199.689 30.9803 199.959 30.9375 200.301H33.3829ZM34.7714 200.678C34.7714 200.235 34.8623 199.842 35.044 199.5C35.2311 199.158 35.4823 198.893 35.7977 198.706C36.1184 198.514 36.4739 198.417 36.8641 198.417C37.2061 198.417 37.5081 198.487 37.7701 198.626C38.0373 198.765 38.2431 198.933 38.3874 199.131V198.489H39.3094V205.008H38.3874V202.266C38.2431 202.464 38.0346 202.632 37.762 202.771C37.4894 202.91 37.1794 202.979 36.832 202.979C36.4525 202.979 36.1051 202.883 35.7897 202.691C35.4797 202.493 35.2311 202.22 35.044 201.873C34.8623 201.52 34.7714 201.122 34.7714 200.678ZM38.3874 200.694C38.3874 200.39 38.3233 200.125 38.195 199.901C38.0721 199.676 37.909 199.505 37.7059 199.387C37.5028 199.27 37.2836 199.211 37.0485 199.211C36.8133 199.211 36.5941 199.27 36.391 199.387C36.1879 199.5 36.0222 199.668 35.8939 199.893C35.771 200.112 35.7095 200.374 35.7095 200.678C35.7095 200.983 35.771 201.25 35.8939 201.48C36.0222 201.71 36.1879 201.886 36.391 202.009C36.5995 202.127 36.8186 202.186 37.0485 202.186C37.2836 202.186 37.5028 202.127 37.7059 202.009C37.909 201.892 38.0721 201.721 38.195 201.496C38.3233 201.266 38.3874 200.999 38.3874 200.694ZM44.3504 198.489V202.907H43.4364V202.386C43.2921 202.568 43.1023 202.712 42.8672 202.819C42.6373 202.921 42.3914 202.971 42.1295 202.971C41.7821 202.971 41.4694 202.899 41.1915 202.755C40.9189 202.611 40.7024 202.397 40.542 202.113C40.387 201.83 40.3095 201.488 40.3095 201.087V198.489H41.2155V200.951C41.2155 201.346 41.3144 201.651 41.5122 201.865C41.7099 202.073 41.9799 202.178 42.322 202.178C42.664 202.178 42.934 202.073 43.1317 201.865C43.3349 201.651 43.4364 201.346 43.4364 200.951V198.489H44.3504ZM49.445 200.59C49.445 200.756 49.4343 200.905 49.4129 201.039H46.0375C46.0642 201.392 46.1951 201.675 46.4303 201.889C46.6655 202.103 46.9541 202.21 47.2962 202.21C47.788 202.21 48.1354 202.004 48.3385 201.592H49.3247C49.1911 201.999 48.9479 202.333 48.5951 202.595C48.2477 202.851 47.8147 202.979 47.2962 202.979C46.874 202.979 46.4945 202.886 46.1577 202.699C45.8263 202.506 45.5644 202.239 45.372 201.897C45.1849 201.55 45.0914 201.149 45.0914 200.694C45.0914 200.24 45.1822 199.842 45.364 199.5C45.551 199.152 45.8103 198.885 46.1417 198.698C46.4784 198.511 46.8633 198.417 47.2962 198.417C47.7131 198.417 48.0846 198.508 48.4107 198.69C48.7367 198.872 48.9906 199.128 49.1724 199.46C49.3541 199.786 49.445 200.163 49.445 200.59ZM48.4909 200.301C48.4855 199.965 48.3652 199.695 48.1301 199.492C47.8949 199.289 47.6036 199.187 47.2561 199.187C46.9408 199.187 46.6708 199.289 46.4464 199.492C46.2219 199.689 46.0882 199.959 46.0455 200.301H48.4909ZM51.7876 202.979C51.4402 202.979 51.1275 202.918 50.8496 202.795C50.577 202.667 50.3605 202.496 50.2001 202.282C50.0398 202.063 49.9542 201.819 49.9436 201.552H50.8896C50.9057 201.739 50.9939 201.897 51.1542 202.025C51.3199 202.148 51.5257 202.21 51.7716 202.21C52.0282 202.21 52.2259 202.162 52.3649 202.065C52.5092 201.964 52.5814 201.836 52.5814 201.681C52.5814 201.515 52.5012 201.392 52.3408 201.312C52.1858 201.232 51.9373 201.143 51.5952 201.047C51.2638 200.956 50.9939 200.868 50.7854 200.783C50.577 200.697 50.3952 200.566 50.2402 200.39C50.0905 200.213 50.0157 199.981 50.0157 199.692C50.0157 199.457 50.0852 199.243 50.2242 199.051C50.3631 198.853 50.5609 198.698 50.8175 198.586C51.0794 198.473 51.3787 198.417 51.7155 198.417C52.2179 198.417 52.6215 198.546 52.9261 198.802C53.2361 199.053 53.4018 199.398 53.4232 199.836H52.5092C52.4932 199.639 52.413 199.481 52.2687 199.363C52.1244 199.246 51.9293 199.187 51.6834 199.187C51.4429 199.187 51.2585 199.232 51.1302 199.323C51.0019 199.414 50.9377 199.534 50.9377 199.684C50.9377 199.802 50.9805 199.901 51.066 199.981C51.1516 200.061 51.2558 200.125 51.3787 200.173C51.5017 200.216 51.6834 200.272 51.9239 200.342C52.2446 200.427 52.5065 200.515 52.7097 200.606C52.9181 200.692 53.0972 200.82 53.2468 200.991C53.3965 201.162 53.474 201.389 53.4793 201.673C53.4793 201.924 53.4099 202.148 53.2709 202.346C53.1319 202.544 52.9341 202.699 52.6776 202.811C52.4264 202.923 52.1297 202.979 51.7876 202.979ZM55.373 199.235V201.681C55.373 201.846 55.4104 201.966 55.4852 202.041C55.5654 202.111 55.699 202.146 55.8861 202.146H56.4473V202.907H55.7257C55.3142 202.907 54.9988 202.811 54.7796 202.619C54.5605 202.426 54.4509 202.113 54.4509 201.681V199.235H53.9298V198.489H54.4509V197.391H55.373V198.489H56.4473V199.235H55.373ZM58.7329 202.979C58.3855 202.979 58.0728 202.918 57.7949 202.795C57.5223 202.667 57.3058 202.496 57.1454 202.282C56.9851 202.063 56.8995 201.819 56.8889 201.552H57.8349C57.851 201.739 57.9392 201.897 58.0995 202.025C58.2652 202.148 58.471 202.21 58.7169 202.21C58.9735 202.21 59.1712 202.162 59.3102 202.065C59.4545 201.964 59.5267 201.836 59.5267 201.681C59.5267 201.515 59.4465 201.392 59.2861 201.312C59.1311 201.232 58.8826 201.143 58.5405 201.047C58.2091 200.956 57.9392 200.868 57.7307 200.783C57.5223 200.697 57.3405 200.566 57.1855 200.39C57.0358 200.213 56.961 199.981 56.961 199.692C56.961 199.457 57.0305 199.243 57.1695 199.051C57.3084 198.853 57.5062 198.698 57.7628 198.586C58.0247 198.473 58.324 198.417 58.6608 198.417C59.1632 198.417 59.5668 198.546 59.8714 198.802C60.1814 199.053 60.3471 199.398 60.3685 199.836H59.4545C59.4385 199.639 59.3583 199.481 59.214 199.363C59.0697 199.246 58.8746 199.187 58.6287 199.187C58.3882 199.187 58.2038 199.232 58.0755 199.323C57.9472 199.414 57.883 199.534 57.883 199.684C57.883 199.802 57.9258 199.901 58.0113 199.981C58.0969 200.061 58.2011 200.125 58.324 200.173C58.447 200.216 58.6287 200.272 58.8692 200.342C59.1899 200.427 59.4518 200.515 59.655 200.606C59.8634 200.692 60.0425 200.82 60.1921 200.991C60.3418 201.162 60.4193 201.389 60.4246 201.673C60.4246 201.924 60.3552 202.148 60.2162 202.346C60.0772 202.544 59.8794 202.699 59.6229 202.811C59.3717 202.923 59.075 202.979 58.7329 202.979ZM64.2184 195.339L62.0376 204.31H61.1397L63.3124 195.339H64.2184ZM64.9053 200.678C64.9053 200.235 64.9962 199.842 65.1779 199.5C65.365 199.158 65.6162 198.893 65.9316 198.706C66.2523 198.514 66.6077 198.417 66.9979 198.417C67.2866 198.417 67.5699 198.481 67.8478 198.61C68.1311 198.733 68.3556 198.898 68.5213 199.107V196.974H69.4433V202.907H68.5213V202.242C68.3716 202.456 68.1632 202.632 67.8959 202.771C67.634 202.91 67.332 202.979 66.9899 202.979C66.6051 202.979 66.2523 202.883 65.9316 202.691C65.6162 202.493 65.365 202.22 65.1779 201.873C64.9962 201.52 64.9053 201.122 64.9053 200.678ZM68.5213 200.694C68.5213 200.39 68.4572 200.125 68.3289 199.901C68.2059 199.676 68.0429 199.505 67.8398 199.387C67.6367 199.27 67.4175 199.211 67.1823 199.211C66.9472 199.211 66.728 199.27 66.5249 199.387C66.3218 199.5 66.1561 199.668 66.0278 199.893C65.9049 200.112 65.8434 200.374 65.8434 200.678C65.8434 200.983 65.9049 201.25 66.0278 201.48C66.1561 201.71 66.3218 201.886 66.5249 202.009C66.7334 202.127 66.9525 202.186 67.1823 202.186C67.4175 202.186 67.6367 202.127 67.8398 202.009C68.0429 201.892 68.2059 201.721 68.3289 201.496C68.4572 201.266 68.5213 200.999 68.5213 200.694ZM70.1788 200.678C70.1788 200.235 70.2697 199.842 70.4514 199.5C70.6385 199.158 70.8897 198.893 71.2051 198.706C71.5258 198.514 71.8786 198.417 72.2634 198.417C72.6108 198.417 72.9128 198.487 73.1694 198.626C73.4313 198.759 73.6398 198.928 73.7948 199.131V198.489H74.7168V202.907H73.7948V202.25C73.6398 202.458 73.4287 202.632 73.1614 202.771C72.8941 202.91 72.5895 202.979 72.2474 202.979C71.8679 202.979 71.5204 202.883 71.2051 202.691C70.8897 202.493 70.6385 202.22 70.4514 201.873C70.2697 201.52 70.1788 201.122 70.1788 200.678ZM73.7948 200.694C73.7948 200.39 73.7307 200.125 73.6024 199.901C73.4794 199.676 73.3164 199.505 73.1133 199.387C72.9102 199.27 72.691 199.211 72.4558 199.211C72.2207 199.211 72.0015 199.27 71.7984 199.387C71.5953 199.5 71.4296 199.668 71.3013 199.893C71.1784 200.112 71.1169 200.374 71.1169 200.678C71.1169 200.983 71.1784 201.25 71.3013 201.48C71.4296 201.71 71.5953 201.886 71.7984 202.009C72.0069 202.127 72.226 202.186 72.4558 202.186C72.691 202.186 72.9102 202.127 73.1133 202.009C73.3164 201.892 73.4794 201.721 73.6024 201.496C73.7307 201.266 73.7948 200.999 73.7948 200.694ZM79.7337 198.489L77.0238 204.984H76.0777L76.9757 202.835L75.2358 198.489H76.2541L77.4968 201.857L78.7877 198.489H79.7337Z" fill="#021206"/>
<rect opacity="0.1" x="24.9062" y="208.12" width="209.605" height="3.43614" rx="1.71807" fill="#FBBA5A"/>
<rect x="24.9062" y="208.12" width="116.256" height="3.43614" rx="1.71807" fill="#FBBA5A"/>
<path opacity="0.7" d="M72.7737 81.7852V82.3785H71.2504V87.3735H70.5208V82.3785H68.9894V81.7852H72.7737ZM77.5203 85.0083C77.5203 85.1473 77.5123 85.2943 77.4963 85.4493H73.9845C74.0113 85.8822 74.1582 86.2217 74.4255 86.4675C74.6981 86.7081 75.0268 86.8283 75.4117 86.8283C75.727 86.8283 75.9889 86.7562 76.1974 86.6119C76.4112 86.4622 76.5609 86.2644 76.6464 86.0185H77.4321C77.3145 86.4408 77.0793 86.7856 76.7266 87.0528C76.3738 87.3147 75.9355 87.4457 75.4117 87.4457C74.9948 87.4457 74.6206 87.3522 74.2892 87.1651C73.9631 86.978 73.7066 86.7134 73.5195 86.3713C73.3324 86.0239 73.2389 85.623 73.2389 85.1687C73.2389 84.7143 73.3298 84.3161 73.5115 83.974C73.6932 83.632 73.9471 83.37 74.2732 83.1883C74.6046 83.0012 74.9841 82.9077 75.4117 82.9077C75.8286 82.9077 76.1974 82.9986 76.5181 83.1803C76.8388 83.362 77.0847 83.6133 77.2557 83.934C77.4321 84.2493 77.5203 84.6074 77.5203 85.0083ZM76.7667 84.856C76.7667 84.578 76.7052 84.3402 76.5822 84.1424C76.4593 83.9393 76.2909 83.787 76.0771 83.6854C75.8687 83.5785 75.6362 83.5251 75.3796 83.5251C75.0108 83.5251 74.6954 83.6426 74.4335 83.8778C74.177 84.113 74.03 84.4391 73.9925 84.856H76.7667ZM78.0504 85.1607C78.0504 84.7117 78.1413 84.3188 78.323 83.9821C78.5048 83.64 78.7533 83.3754 79.0687 83.1883C79.3894 83.0012 79.7448 82.9077 80.135 82.9077C80.5199 82.9077 80.8539 82.9905 81.1372 83.1562C81.4205 83.3219 81.6316 83.5304 81.7706 83.7816V82.9799H82.5082V87.3735H81.7706V86.5557C81.6263 86.8123 81.4098 87.0261 81.1212 87.1971C80.8379 87.3628 80.5065 87.4457 80.127 87.4457C79.7368 87.4457 79.384 87.3495 79.0687 87.1571C78.7533 86.9646 78.5048 86.6947 78.323 86.3473C78.1413 85.9998 78.0504 85.6043 78.0504 85.1607ZM81.7706 85.1687C81.7706 84.8373 81.7038 84.5486 81.5702 84.3028C81.4365 84.0569 81.2548 83.8698 81.025 83.7415C80.8005 83.6079 80.5519 83.5411 80.2793 83.5411C80.0067 83.5411 79.7582 83.6052 79.5337 83.7335C79.3092 83.8618 79.1301 84.0489 78.9965 84.2948C78.8629 84.5406 78.7961 84.8293 78.7961 85.1607C78.7961 85.4974 78.8629 85.7914 78.9965 86.0426C79.1301 86.2885 79.3092 86.4782 79.5337 86.6119C79.7582 86.7401 80.0067 86.8043 80.2793 86.8043C80.5519 86.8043 80.8005 86.7401 81.025 86.6119C81.2548 86.4782 81.4365 86.2885 81.5702 86.0426C81.7038 85.7914 81.7706 85.5001 81.7706 85.1687ZM88.8645 82.8997C89.2066 82.8997 89.5113 82.9718 89.7785 83.1162C90.0458 83.2551 90.2569 83.4663 90.4119 83.7496C90.5669 84.0328 90.6444 84.3776 90.6444 84.7838V87.3735H89.9228V84.8881C89.9228 84.4498 89.8133 84.1157 89.5941 83.8859C89.3803 83.6507 89.089 83.5331 88.7202 83.5331C88.3407 83.5331 88.0387 83.656 87.8142 83.9019C87.5897 84.1424 87.4774 84.4925 87.4774 84.9522V87.3735H86.7558V84.8881C86.7558 84.4498 86.6463 84.1157 86.4271 83.8859C86.2133 83.6507 85.922 83.5331 85.5532 83.5331C85.1737 83.5331 84.8717 83.656 84.6472 83.9019C84.4227 84.1424 84.3105 84.4925 84.3105 84.9522V87.3735H83.5809V82.9799H84.3105V83.6133C84.4548 83.3834 84.6472 83.207 84.8877 83.0841C85.1336 82.9611 85.4035 82.8997 85.6975 82.8997C86.0663 82.8997 86.3924 82.9825 86.6757 83.1482C86.959 83.3139 87.1701 83.5571 87.3091 83.8778C87.432 83.5678 87.6351 83.3273 87.9184 83.1562C88.2017 82.9852 88.5171 82.8997 88.8645 82.8997ZM93.2363 87.4457C92.8996 87.4457 92.5976 87.3896 92.3303 87.2773C92.0631 87.1597 91.8519 86.9994 91.6969 86.7963C91.5419 86.5878 91.4564 86.3499 91.4404 86.0827H92.194C92.2154 86.3018 92.317 86.4809 92.4987 86.6199C92.6858 86.7588 92.929 86.8283 93.2283 86.8283C93.5062 86.8283 93.7254 86.7669 93.8857 86.6439C94.0461 86.521 94.1263 86.366 94.1263 86.1789C94.1263 85.9865 94.0408 85.8448 93.8697 85.754C93.6987 85.6578 93.4341 85.5642 93.076 85.4733C92.7499 85.3878 92.4827 85.3023 92.2742 85.2168C92.0711 85.1259 91.8947 84.995 91.745 84.8239C91.6007 84.6475 91.5286 84.4177 91.5286 84.1344C91.5286 83.9099 91.5954 83.7041 91.729 83.517C91.8626 83.33 92.0524 83.183 92.2982 83.0761C92.5441 82.9638 92.8247 82.9077 93.1401 82.9077C93.6265 82.9077 94.0194 83.0306 94.3187 83.2765C94.618 83.5224 94.7784 83.8591 94.7998 84.2867H94.0702C94.0541 84.0569 93.9606 83.8725 93.7895 83.7335C93.6238 83.5945 93.3993 83.5251 93.116 83.5251C92.8541 83.5251 92.6457 83.5812 92.4907 83.6934C92.3357 83.8057 92.2582 83.9527 92.2582 84.1344C92.2582 84.2787 92.3036 84.399 92.3945 84.4952C92.4907 84.5861 92.6083 84.6609 92.7472 84.7197C92.8916 84.7731 93.0893 84.8346 93.3405 84.9041C93.6559 84.9896 93.9125 85.0751 94.1102 85.1607C94.308 85.2408 94.4764 85.3638 94.6154 85.5295C94.7597 85.6952 94.8345 85.9116 94.8398 86.1789C94.8398 86.4194 94.773 86.6359 94.6394 86.8283C94.5058 87.0208 94.316 87.1731 94.0702 87.2853C93.8296 87.3922 93.5517 87.4457 93.2363 87.4457ZM101.423 83.4208C101.423 83.8859 101.262 84.2734 100.942 84.5834C100.626 84.8881 100.143 85.0404 99.4906 85.0404H98.4162V87.3735H97.6866V81.7852H99.4906C100.121 81.7852 100.6 81.9376 100.926 82.2422C101.257 82.5469 101.423 82.9398 101.423 83.4208ZM99.4906 84.4391C99.8968 84.4391 100.196 84.3509 100.389 84.1745C100.581 83.9981 100.677 83.7469 100.677 83.4208C100.677 82.7313 100.282 82.3865 99.4906 82.3865H98.4162V84.4391H99.4906ZM102.899 81.4405V87.3735H102.169V81.4405H102.899ZM103.709 85.1607C103.709 84.7117 103.8 84.3188 103.982 83.9821C104.164 83.64 104.412 83.3754 104.728 83.1883C105.048 83.0012 105.404 82.9077 105.794 82.9077C106.179 82.9077 106.513 82.9905 106.796 83.1562C107.08 83.3219 107.291 83.5304 107.43 83.7816V82.9799H108.167V87.3735H107.43V86.5557C107.285 86.8123 107.069 87.0261 106.78 87.1971C106.497 87.3628 106.166 87.4457 105.786 87.4457C105.396 87.4457 105.043 87.3495 104.728 87.1571C104.412 86.9646 104.164 86.6947 103.982 86.3473C103.8 85.9998 103.709 85.6043 103.709 85.1607ZM107.43 85.1687C107.43 84.8373 107.363 84.5486 107.229 84.3028C107.096 84.0569 106.914 83.8698 106.684 83.7415C106.46 83.6079 106.211 83.5411 105.938 83.5411C105.666 83.5411 105.417 83.6052 105.193 83.7335C104.968 83.8618 104.789 84.0489 104.656 84.2948C104.522 84.5406 104.455 84.8293 104.455 85.1607C104.455 85.4974 104.522 85.7914 104.656 86.0426C104.789 86.2885 104.968 86.4782 105.193 86.6119C105.417 86.7401 105.666 86.8043 105.938 86.8043C106.211 86.8043 106.46 86.7401 106.684 86.6119C106.914 86.4782 107.096 86.2885 107.229 86.0426C107.363 85.7914 107.43 85.5001 107.43 85.1687ZM111.381 82.8997C111.915 82.8997 112.348 83.0627 112.679 83.3888C113.011 83.7095 113.177 84.1745 113.177 84.7838V87.3735H112.455V84.8881C112.455 84.4498 112.345 84.1157 112.126 83.8859C111.907 83.6507 111.608 83.5331 111.228 83.5331C110.843 83.5331 110.536 83.6533 110.306 83.8939C110.082 84.1344 109.969 84.4845 109.969 84.9442V87.3735H109.24V82.9799H109.969V83.6052C110.114 83.3807 110.309 83.207 110.555 83.0841C110.806 82.9611 111.081 82.8997 111.381 82.8997Z" fill="#021206"/>
<path opacity="0.8" d="M74.5617 101.133C74.5617 101.49 74.4689 101.827 74.2833 102.143C74.1047 102.453 73.8366 102.71 73.4793 102.916C73.1288 103.116 72.713 103.233 72.232 103.267V104.102H71.5722V103.257C70.885 103.195 70.3318 102.989 69.9126 102.638C69.4934 102.281 69.2769 101.8 69.2631 101.195H70.8094C70.8506 101.69 71.1049 101.989 71.5722 102.092V100.123C71.0774 99.9992 70.6788 99.8755 70.3765 99.7518C70.0741 99.6281 69.8129 99.4288 69.593 99.1539C69.3731 98.879 69.2631 98.5044 69.2631 98.0302C69.2631 97.4324 69.4762 96.9444 69.9023 96.5665C70.3352 96.1885 70.8919 95.972 71.5722 95.917V95.082H72.232V95.917C72.8917 95.972 73.4174 96.1713 73.8092 96.5149C74.2078 96.8585 74.4311 97.3327 74.4792 97.9375H72.9226C72.902 97.7382 72.8299 97.5664 72.7062 97.4221C72.5893 97.2709 72.4313 97.1643 72.232 97.1025V99.0508C72.7474 99.1814 73.1529 99.3085 73.4484 99.4322C73.7507 99.549 74.0119 99.7449 74.2318 100.02C74.4517 100.288 74.5617 100.659 74.5617 101.133ZM70.7682 97.9581C70.7682 98.1849 70.8369 98.3704 70.9743 98.5147C71.1118 98.6522 71.3111 98.7656 71.5722 98.8549V97.0716C71.3248 97.1059 71.129 97.1987 70.9847 97.3499C70.8403 97.5011 70.7682 97.7038 70.7682 97.9581ZM72.232 102.112C72.4931 102.064 72.6958 101.958 72.8402 101.793C72.9914 101.628 73.067 101.429 73.067 101.195C73.067 100.968 72.9948 100.786 72.8505 100.649C72.7062 100.511 72.5 100.398 72.232 100.308V102.112ZM77.4717 101.092C77.5267 101.394 77.6504 101.628 77.8428 101.793C78.0421 101.951 78.3067 102.03 78.6366 102.03C79.0626 102.03 79.3719 101.855 79.5643 101.504C79.7567 101.147 79.853 100.549 79.853 99.7105C79.6949 99.9304 79.4715 100.102 79.1829 100.226C78.9011 100.35 78.5953 100.411 78.2655 100.411C77.8256 100.411 77.427 100.322 77.0697 100.143C76.7192 99.9579 76.4409 99.6865 76.2347 99.3291C76.0285 98.9649 75.9254 98.5251 75.9254 98.0096C75.9254 97.2468 76.1522 96.642 76.6058 96.1953C77.0594 95.7418 77.6779 95.515 78.4613 95.515C79.4372 95.515 80.1244 95.8277 80.523 96.4531C80.9285 97.0784 81.1312 98.0199 81.1312 99.2776C81.1312 100.171 81.0522 100.903 80.8941 101.473C80.7429 102.044 80.4783 102.477 80.1004 102.772C79.7293 103.068 79.2207 103.215 78.5747 103.215C78.0662 103.215 77.6332 103.119 77.2758 102.927C76.9185 102.727 76.6436 102.47 76.4512 102.154C76.2656 101.831 76.1591 101.477 76.1316 101.092H77.4717ZM78.5644 99.2363C78.9218 99.2363 79.2035 99.1264 79.4097 98.9065C79.6159 98.6866 79.7189 98.391 79.7189 98.0199C79.7189 97.6145 79.609 97.3018 79.3891 97.0819C79.176 96.8551 78.884 96.7417 78.5129 96.7417C78.1418 96.7417 77.8462 96.8585 77.6263 97.0922C77.4133 97.319 77.3068 97.6213 77.3068 97.9993C77.3068 98.3636 77.4099 98.6625 77.616 98.8962C77.8291 99.1229 78.1452 99.2363 78.5644 99.2363ZM83.7184 101.092C83.7734 101.394 83.8971 101.628 84.0895 101.793C84.2888 101.951 84.5534 102.03 84.8832 102.03C85.3093 102.03 85.6186 101.855 85.811 101.504C86.0034 101.147 86.0996 100.549 86.0996 99.7105C85.9416 99.9304 85.7182 100.102 85.4296 100.226C85.1478 100.35 84.842 100.411 84.5121 100.411C84.0723 100.411 83.6737 100.322 83.3163 100.143C82.9659 99.9579 82.6875 99.6865 82.4814 99.3291C82.2752 98.9649 82.1721 98.5251 82.1721 98.0096C82.1721 97.2468 82.3989 96.642 82.8525 96.1953C83.306 95.7418 83.9245 95.515 84.708 95.515C85.6838 95.515 86.3711 95.8277 86.7697 96.4531C87.1751 97.0784 87.3779 98.0199 87.3779 99.2776C87.3779 100.171 87.2988 100.903 87.1408 101.473C86.9896 102.044 86.725 102.477 86.347 102.772C85.9759 103.068 85.4674 103.215 84.8214 103.215C84.3128 103.215 83.8799 103.119 83.5225 102.927C83.1652 102.727 82.8903 102.47 82.6978 102.154C82.5123 101.831 82.4058 101.477 82.3783 101.092H83.7184ZM84.8111 99.2363C85.1684 99.2363 85.4502 99.1264 85.6564 98.9065C85.8625 98.6866 85.9656 98.391 85.9656 98.0199C85.9656 97.6145 85.8557 97.3018 85.6357 97.0819C85.4227 96.8551 85.1306 96.7417 84.7595 96.7417C84.3884 96.7417 84.0929 96.8585 83.873 97.0922C83.66 97.319 83.5534 97.6213 83.5534 97.9993C83.5534 98.3636 83.6565 98.6625 83.8627 98.8962C84.0757 99.1229 84.3919 99.2363 84.8111 99.2363ZM92.3257 93.443L89.5424 105.071H88.1301L90.9134 93.443H92.3257ZM100.359 97.4117C101.06 97.4117 101.624 97.6282 102.05 98.0612C102.483 98.4873 102.699 99.0851 102.699 99.8548V103.205H101.256V100.051C101.256 99.604 101.143 99.2638 100.916 99.0302C100.689 98.7896 100.38 98.6694 99.9882 98.6694C99.5965 98.6694 99.2838 98.7896 99.0501 99.0302C98.8234 99.2638 98.71 99.604 98.71 100.051V103.205H97.2668V100.051C97.2668 99.604 97.1534 99.2638 96.9266 99.0302C96.6998 98.7896 96.3906 98.6694 95.9988 98.6694C95.6003 98.6694 95.2841 98.7896 95.0505 99.0302C94.8237 99.2638 94.7103 99.604 94.7103 100.051V103.205H93.2671V97.4942H94.7103V98.1849C94.8958 97.9443 95.1329 97.7554 95.4216 97.6179C95.7171 97.4805 96.0401 97.4117 96.3906 97.4117C96.8373 97.4117 97.2359 97.508 97.5863 97.7004C97.9368 97.8859 98.2083 98.154 98.4007 98.5044C98.5863 98.1746 98.8543 97.91 99.2048 97.7107C99.5621 97.5114 99.947 97.4117 100.359 97.4117ZM106.399 103.298C105.849 103.298 105.354 103.178 104.914 102.937C104.474 102.69 104.127 102.343 103.873 101.896C103.626 101.449 103.502 100.934 103.502 100.35C103.502 99.7655 103.629 99.2501 103.883 98.8034C104.144 98.3567 104.498 98.0131 104.945 97.7725C105.392 97.5251 105.89 97.4014 106.44 97.4014C106.99 97.4014 107.488 97.5251 107.934 97.7725C108.381 98.0131 108.732 98.3567 108.986 98.8034C109.247 99.2501 109.378 99.7655 109.378 100.35C109.378 100.934 109.244 101.449 108.976 101.896C108.714 102.343 108.357 102.69 107.904 102.937C107.457 103.178 106.955 103.298 106.399 103.298ZM106.399 102.04C106.66 102.04 106.904 101.978 107.13 101.855C107.364 101.724 107.55 101.532 107.687 101.277C107.825 101.023 107.893 100.714 107.893 100.35C107.893 99.8067 107.749 99.391 107.46 99.1023C107.179 98.8068 106.831 98.6591 106.419 98.6591C106.007 98.6591 105.66 98.8068 105.378 99.1023C105.103 99.391 104.966 99.8067 104.966 100.35C104.966 100.893 105.1 101.312 105.368 101.607C105.643 101.896 105.986 102.04 106.399 102.04Z" fill="#021206"/>
<rect opacity="0.1" x="24.9062" y="74.1113" width="36.0795" height="36.0795" rx="9.16304" fill="#FBBA5A"/>
<path fill-rule="evenodd" clip-rule="evenodd" d="M44.5017 90.0101C44.5017 91.5242 43.2628 92.7375 41.7167 92.7375C40.1712 92.7375 38.9317 91.5242 38.9317 90.0101C38.9317 88.496 40.1712 87.2827 41.7167 87.2827C43.2628 87.2827 44.5017 88.496 44.5017 90.0101ZM37.5078 95.8258C37.5078 94.4243 39.4467 94.0736 41.7167 94.0736C43.9991 94.0736 45.9256 94.4364 45.9256 95.839C45.9256 97.2406 43.9867 97.5912 41.7167 97.5912C39.4343 97.5912 37.5078 97.2285 37.5078 95.8258ZM45.6244 90.0595C45.6244 90.8306 45.388 91.55 44.9733 92.1476C44.9301 92.2091 44.9682 92.2919 45.0433 92.3051C45.1476 92.3221 45.2546 92.3325 45.3639 92.3347C46.451 92.3627 47.4266 91.6773 47.6961 90.6451C48.0956 89.1135 46.9234 87.7382 45.43 87.7382C45.268 87.7382 45.1128 87.7547 44.9615 87.7849C44.9408 87.7893 44.9184 87.7992 44.9072 87.8167C44.8926 87.8392 44.9032 87.8683 44.9178 87.8875C45.3667 88.5038 45.6244 89.2539 45.6244 90.0595ZM47.4249 93.4118C48.1556 93.5517 48.6358 93.8365 48.8347 94.2519C49.0034 94.5922 49.0034 94.9873 48.8347 95.3275C48.5305 95.9707 47.5487 96.1776 47.1671 96.2308C47.0881 96.2418 47.0248 96.1759 47.0332 96.098C47.2282 94.3156 45.6777 93.4705 45.2764 93.2762C45.2596 93.2669 45.2557 93.2537 45.2574 93.2449C45.2585 93.2394 45.2658 93.2307 45.2787 93.229C46.1467 93.2126 47.0802 93.3294 47.4249 93.4118Z" fill="#FBBA5A"/>
<path opacity="0.8" d="M232.507 92.4374C232.507 92.5128 232.493 92.5875 232.464 92.6573C232.436 92.7271 232.394 92.7905 232.341 92.844L230.05 95.1348C229.997 95.1882 229.933 95.2306 229.863 95.2595C229.794 95.2883 229.719 95.3032 229.643 95.3032C229.568 95.3032 229.493 95.2883 229.423 95.2595C229.354 95.2306 229.29 95.1882 229.237 95.1348C229.183 95.0814 229.141 95.018 229.112 94.9482C229.083 94.8785 229.068 94.8037 229.068 94.7282C229.068 94.6527 229.083 94.5779 229.112 94.5081C229.141 94.4384 229.183 94.375 229.237 94.3216L231.132 92.4374L229.311 90.5475C229.253 90.4949 229.206 90.4307 229.173 90.359C229.14 90.2872 229.123 90.2096 229.122 90.1308C229.12 90.052 229.135 89.9738 229.166 89.9011C229.196 89.8284 229.241 89.7628 229.298 89.7083C229.355 89.6537 229.422 89.6116 229.496 89.5843C229.57 89.5571 229.649 89.5454 229.728 89.55C229.806 89.5546 229.883 89.5754 229.953 89.611C230.024 89.6467 230.086 89.6965 230.136 89.7572L232.346 92.048C232.447 92.1527 232.505 92.292 232.507 92.4374Z" fill="#021206"/>
<path d="M226.685 37.7987H223.076" stroke="#92959E" stroke-width="0.859035" stroke-linecap="round" stroke-linejoin="round"/>
<path d="M228.293 32.2475H231.901" stroke="#92959E" stroke-width="0.859035" stroke-linecap="round" stroke-linejoin="round"/>
<path fill-rule="evenodd" clip-rule="evenodd" d="M225.765 32.2167C225.765 31.4747 225.159 30.873 224.412 30.873C223.665 30.873 223.059 31.4747 223.059 32.2167C223.059 32.9587 223.665 33.5604 224.412 33.5604C225.159 33.5604 225.765 32.9587 225.765 32.2167Z" stroke="#92959E" stroke-width="0.859035" stroke-linecap="round" stroke-linejoin="round"/>
<path fill-rule="evenodd" clip-rule="evenodd" d="M232.222 37.7763C232.222 37.0343 231.617 36.4326 230.869 36.4326C230.122 36.4326 229.516 37.0343 229.516 37.7763C229.516 38.5183 230.122 39.12 230.869 39.12C231.617 39.12 232.222 38.5183 232.222 37.7763Z" stroke="#92959E" stroke-width="0.859035" stroke-linecap="round" stroke-linejoin="round"/>
</svg>
