<svg width="133" height="159" viewBox="0 0 133 159" fill="none" xmlns="http://www.w3.org/2000/svg">
<rect y="0.961426" width="133" height="158" rx="15" fill="white"/>
<path d="M44.9149 102.653C43.365 105.203 40.0169 106.038 37.666 104.2C29.5631 97.8649 23.7724 88.9569 21.31 78.8639C18.4184 67.0116 20.3536 54.496 26.6898 44.0705C33.026 33.645 43.2442 26.1635 55.0966 23.2719C65.1896 20.8096 75.7635 21.8474 85.1182 26.1224C87.8325 27.3628 88.6335 30.7191 87.0836 33.2692V33.2692C85.5338 35.8194 82.22 36.5866 79.4628 35.445C72.5996 32.6032 64.9641 31.9884 57.658 33.7708C48.5901 35.9831 40.7725 41.7069 35.9248 49.6831C31.0772 57.6594 29.5966 67.2347 31.8089 76.3025C33.5913 83.6086 37.6535 90.1032 43.3366 94.8865C45.6197 96.8082 46.4648 100.103 44.9149 102.653V102.653Z" fill="#F56060"/>
<path d="M89.8688 35.1231C91.6234 32.7092 95.0285 32.153 97.2202 34.1784C101.07 37.7358 104.293 41.9343 106.739 46.5997C110.024 52.8648 111.82 59.8032 111.987 66.8754C112.154 73.9476 110.688 80.963 107.702 87.3762C105.479 92.1519 102.457 96.4978 98.7801 100.233C96.6865 102.36 93.2589 101.965 91.3923 99.6364V99.6364C89.5257 97.308 89.9375 93.9316 91.953 91.7309C94.3735 89.0881 96.3833 86.0831 97.9048 82.8151C100.189 77.9085 101.311 72.5412 101.183 67.1305C101.055 61.7198 99.6814 56.4115 97.1681 51.6182C95.494 48.4257 93.3446 45.5189 90.8021 42.9933C88.6849 40.8901 88.1142 37.537 89.8688 35.1231V35.1231Z" fill="#FEB95A"/>
<path opacity="0.5" d="M88.721 101.605C90.3912 104.078 89.7518 107.468 87.1001 108.837C81.5714 111.691 75.5036 113.402 69.2601 113.846C63.0166 114.289 56.7678 113.453 50.8912 111.409C48.0725 110.429 46.9603 107.163 48.264 104.479V104.479C49.5678 101.794 52.7949 100.719 55.6471 101.597C59.7873 102.872 64.1425 103.375 68.4943 103.066C72.8461 102.757 77.0864 101.643 81.0048 99.7958C83.7042 98.5235 87.0508 99.1314 88.721 101.605V101.605Z" fill="#E6E6E6"/>
<path opacity="0.8" d="M46.132 62.7374L43.12 69.9614H41.02L44.068 62.9654H40.336V61.2134H46.132V62.7374ZM49.3739 68.0654L48.0419 71.5094H46.7339L47.4299 68.0654H49.3739ZM51.8472 65.2574C51.0952 64.8574 50.7192 64.2294 50.7192 63.3734C50.7192 62.9414 50.8312 62.5494 51.0552 62.1974C51.2792 61.8374 51.6192 61.5534 52.0752 61.3454C52.5312 61.1294 53.0912 61.0214 53.7552 61.0214C54.4192 61.0214 54.9752 61.1294 55.4232 61.3454C55.8792 61.5534 56.2192 61.8374 56.4432 62.1974C56.6672 62.5494 56.7792 62.9414 56.7792 63.3734C56.7792 63.8054 56.6752 64.1814 56.4672 64.5014C56.2672 64.8214 55.9952 65.0734 55.6512 65.2574C56.0832 65.4654 56.4152 65.7534 56.6472 66.1214C56.8792 66.4814 56.9952 66.9054 56.9952 67.3934C56.9952 67.9614 56.8512 68.4534 56.5632 68.8694C56.2752 69.2774 55.8832 69.5894 55.3872 69.8054C54.8992 70.0214 54.3552 70.1294 53.7552 70.1294C53.1552 70.1294 52.6072 70.0214 52.1112 69.8054C51.6232 69.5894 51.2352 69.2774 50.9472 68.8694C50.6592 68.4534 50.5152 67.9614 50.5152 67.3934C50.5152 66.8974 50.6312 66.4694 50.8632 66.1094C51.0952 65.7414 51.4232 65.4574 51.8472 65.2574ZM54.7872 63.6854C54.7872 63.3574 54.6912 63.1054 54.4992 62.9294C54.3152 62.7454 54.0672 62.6534 53.7552 62.6534C53.4432 62.6534 53.1912 62.7454 52.9992 62.9294C52.8152 63.1134 52.7232 63.3694 52.7232 63.6974C52.7232 64.0094 52.8192 64.2574 53.0112 64.4414C53.2032 64.6174 53.4512 64.7054 53.7552 64.7054C54.0592 64.7054 54.3072 64.6134 54.4992 64.4294C54.6912 64.2454 54.7872 63.9974 54.7872 63.6854ZM53.7552 66.1454C53.3792 66.1454 53.0752 66.2494 52.8432 66.4574C52.6112 66.6574 52.4952 66.9374 52.4952 67.2974C52.4952 67.6334 52.6072 67.9094 52.8312 68.1254C53.0632 68.3414 53.3712 68.4494 53.7552 68.4494C54.1392 68.4494 54.4392 68.3414 54.6552 68.1254C54.8792 67.9094 54.9912 67.6334 54.9912 67.2974C54.9912 66.9454 54.8752 66.6654 54.6432 66.4574C54.4192 66.2494 54.1232 66.1454 53.7552 66.1454ZM60.3964 67.3934C60.5164 68.0254 60.8844 68.3414 61.5004 68.3414C61.9244 68.3414 62.2244 68.1534 62.4004 67.7774C62.5764 67.4014 62.6644 66.7894 62.6644 65.9414C62.4884 66.1894 62.2484 66.3814 61.9444 66.5174C61.6404 66.6534 61.3004 66.7214 60.9244 66.7214C60.4124 66.7214 59.9564 66.6174 59.5564 66.4094C59.1564 66.1934 58.8404 65.8774 58.6084 65.4614C58.3844 65.0374 58.2724 64.5254 58.2724 63.9254C58.2724 63.3334 58.3924 62.8174 58.6324 62.3774C58.8804 61.9374 59.2284 61.5974 59.6764 61.3574C60.1324 61.1174 60.6684 60.9974 61.2844 60.9974C62.4684 60.9974 63.2964 61.3654 63.7684 62.1014C64.2404 62.8374 64.4764 63.9214 64.4764 65.3534C64.4764 66.3934 64.3804 67.2534 64.1884 67.9334C64.0044 68.6054 63.6884 69.1174 63.2404 69.4694C62.8004 69.8214 62.1964 69.9974 61.4284 69.9974C60.8204 69.9974 60.3004 69.8774 59.8684 69.6374C59.4444 69.3974 59.1164 69.0814 58.8844 68.6894C58.6604 68.2974 58.5324 67.8654 58.5004 67.3934H60.3964ZM61.3924 65.1014C61.7284 65.1014 61.9964 65.0014 62.1964 64.8014C62.3964 64.5934 62.4964 64.3134 62.4964 63.9614C62.4964 63.5774 62.3924 63.2814 62.1844 63.0734C61.9764 62.8654 61.6964 62.7614 61.3444 62.7614C60.9924 62.7614 60.7124 62.8694 60.5044 63.0854C60.3044 63.2934 60.2044 63.5814 60.2044 63.9494C60.2044 64.2934 60.3044 64.5734 60.5044 64.7894C60.7124 64.9974 61.0084 65.1014 61.3924 65.1014ZM67.9833 68.0654L66.6513 71.5094H65.3433L66.0393 68.0654H67.9833ZM73.3486 63.5654C73.2846 63.2694 73.1726 63.0494 73.0126 62.9054C72.8526 62.7534 72.6246 62.6774 72.3286 62.6774C71.8726 62.6774 71.5446 62.8774 71.3446 63.2774C71.1446 63.6694 71.0406 64.2934 71.0326 65.1494C71.2086 64.8694 71.4606 64.6494 71.7886 64.4894C72.1246 64.3294 72.4926 64.2494 72.8926 64.2494C73.6766 64.2494 74.3046 64.4974 74.7766 64.9934C75.2566 65.4894 75.4966 66.1814 75.4966 67.0694C75.4966 67.6534 75.3766 68.1654 75.1366 68.6054C74.9046 69.0454 74.5606 69.3894 74.1046 69.6374C73.6566 69.8854 73.1246 70.0094 72.5086 70.0094C71.2766 70.0094 70.4206 69.6254 69.9406 68.8574C69.4606 68.0814 69.2206 66.9694 69.2206 65.5214C69.2206 64.0014 69.4726 62.8734 69.9766 62.1374C70.4886 61.3934 71.3046 61.0214 72.4246 61.0214C73.0246 61.0214 73.5286 61.1414 73.9366 61.3814C74.3526 61.6134 74.6646 61.9214 74.8726 62.3054C75.0886 62.6894 75.2166 63.1094 75.2566 63.5654H73.3486ZM72.4006 65.8694C72.0566 65.8694 71.7686 65.9734 71.5366 66.1814C71.3126 66.3814 71.2006 66.6694 71.2006 67.0454C71.2006 67.4294 71.3046 67.7294 71.5126 67.9454C71.7286 68.1614 72.0326 68.2694 72.4246 68.2694C72.7766 68.2694 73.0526 68.1654 73.2526 67.9574C73.4606 67.7414 73.5646 67.4494 73.5646 67.0814C73.5646 66.7054 73.4646 66.4094 73.2646 66.1934C73.0646 65.9774 72.7766 65.8694 72.4006 65.8694ZM82.8252 62.9894H79.0812V64.6454C79.2412 64.4694 79.4652 64.3254 79.7532 64.2134C80.0412 64.1014 80.3532 64.0454 80.6892 64.0454C81.2892 64.0454 81.7852 64.1814 82.1772 64.4534C82.5772 64.7254 82.8692 65.0774 83.0532 65.5094C83.2372 65.9414 83.3292 66.4094 83.3292 66.9134C83.3292 67.8494 83.0652 68.5934 82.5372 69.1454C82.0092 69.6894 81.2652 69.9614 80.3052 69.9614C79.6652 69.9614 79.1092 69.8534 78.6372 69.6374C78.1652 69.4134 77.8012 69.1054 77.5452 68.7134C77.2892 68.3214 77.1492 67.8694 77.1252 67.3574H79.1292C79.1772 67.6054 79.2932 67.8134 79.4772 67.9814C79.6612 68.1414 79.9132 68.2214 80.2332 68.2214C80.6092 68.2214 80.8892 68.1014 81.0732 67.8614C81.2572 67.6214 81.3492 67.3014 81.3492 66.9014C81.3492 66.5094 81.2532 66.2094 81.0612 66.0014C80.8692 65.7934 80.5892 65.6894 80.2212 65.6894C79.9492 65.6894 79.7252 65.7574 79.5492 65.8934C79.3732 66.0214 79.2572 66.1934 79.2012 66.4094H77.2212V61.1894H82.8252V62.9894ZM84.5339 63.6734C84.5659 62.8174 84.8459 62.1574 85.3739 61.6934C85.9019 61.2294 86.6179 60.9974 87.5219 60.9974C88.1219 60.9974 88.6339 61.1014 89.0579 61.3094C89.4899 61.5174 89.8139 61.8014 90.0299 62.1614C90.2539 62.5214 90.3659 62.9254 90.3659 63.3734C90.3659 63.9014 90.2339 64.3334 89.9699 64.6694C89.7059 64.9974 89.3979 65.2214 89.0459 65.3414V65.3894C89.5019 65.5414 89.8619 65.7934 90.1259 66.1454C90.3899 66.4974 90.5219 66.9494 90.5219 67.5014C90.5219 67.9974 90.4059 68.4374 90.1739 68.8214C89.9499 69.1974 89.6179 69.4934 89.1779 69.7094C88.7459 69.9254 88.2299 70.0334 87.6299 70.0334C86.6699 70.0334 85.9019 69.7974 85.3259 69.3254C84.7579 68.8534 84.4579 68.1414 84.4259 67.1894H86.4179C86.4259 67.5414 86.5259 67.8214 86.7179 68.0294C86.9099 68.2294 87.1899 68.3294 87.5579 68.3294C87.8699 68.3294 88.1099 68.2414 88.2779 68.0654C88.4539 67.8814 88.5419 67.6414 88.5419 67.3454C88.5419 66.9614 88.4179 66.6854 88.1699 66.5174C87.9299 66.3414 87.5419 66.2534 87.0059 66.2534H86.6219V64.5854H87.0059C87.4139 64.5854 87.7419 64.5174 87.9899 64.3814C88.2459 64.2374 88.3739 63.9854 88.3739 63.6254C88.3739 63.3374 88.2939 63.1134 88.1339 62.9534C87.9739 62.7934 87.7539 62.7134 87.4739 62.7134C87.1699 62.7134 86.9419 62.8054 86.7899 62.9894C86.6459 63.1734 86.5619 63.4014 86.5379 63.6734H84.5339Z" fill="#021206"/>
<path opacity="0.5" d="M56.84 76.3454V79.7054C56.84 80.0414 56.9227 80.3001 57.088 80.4814C57.2533 80.6628 57.496 80.7534 57.816 80.7534C58.136 80.7534 58.3813 80.6628 58.552 80.4814C58.7227 80.3001 58.808 80.0414 58.808 79.7054V76.3454H60.176V79.6974C60.176 80.1988 60.0693 80.6228 59.856 80.9694C59.6427 81.3161 59.3547 81.5774 58.992 81.7534C58.6347 81.9294 58.2347 82.0174 57.792 82.0174C57.3493 82.0174 56.952 81.9321 56.6 81.7614C56.2533 81.5854 55.9787 81.3241 55.776 80.9774C55.5733 80.6254 55.472 80.1988 55.472 79.6974V76.3454H56.84ZM62.9526 82.0254C62.5633 82.0254 62.2166 81.9588 61.9126 81.8254C61.6086 81.6921 61.3686 81.5108 61.1926 81.2814C61.0166 81.0468 60.918 80.7854 60.8966 80.4974H62.2486C62.2646 80.6521 62.3366 80.7774 62.4646 80.8734C62.5926 80.9694 62.75 81.0174 62.9366 81.0174C63.1073 81.0174 63.238 80.9854 63.3286 80.9214C63.4246 80.8521 63.4726 80.7641 63.4726 80.6574C63.4726 80.5294 63.406 80.4361 63.2726 80.3774C63.1393 80.3134 62.9233 80.2441 62.6246 80.1694C62.3046 80.0948 62.038 80.0174 61.8246 79.9374C61.6113 79.8521 61.4273 79.7214 61.2726 79.5454C61.118 79.3641 61.0406 79.1214 61.0406 78.8174C61.0406 78.5614 61.11 78.3294 61.2486 78.1214C61.3926 77.9081 61.6006 77.7401 61.8726 77.6174C62.15 77.4948 62.478 77.4334 62.8566 77.4334C63.4166 77.4334 63.8566 77.5721 64.1766 77.8494C64.502 78.1268 64.6886 78.4948 64.7366 78.9534H63.4726C63.4513 78.7988 63.382 78.6761 63.2646 78.5854C63.1526 78.4948 63.0033 78.4494 62.8166 78.4494C62.6566 78.4494 62.534 78.4814 62.4486 78.5454C62.3633 78.6041 62.3206 78.6868 62.3206 78.7934C62.3206 78.9214 62.3873 79.0174 62.5206 79.0814C62.6593 79.1454 62.8726 79.2094 63.1606 79.2734C63.4913 79.3588 63.7606 79.4441 63.9686 79.5294C64.1766 79.6094 64.358 79.7428 64.5126 79.9294C64.6726 80.1108 64.7553 80.3561 64.7606 80.6654C64.7606 80.9268 64.686 81.1614 64.5366 81.3694C64.3926 81.5721 64.182 81.7321 63.9046 81.8494C63.6326 81.9668 63.3153 82.0254 62.9526 82.0254ZM69.8056 79.6574C69.8056 79.7854 69.7976 79.9188 69.7816 80.0574H66.6856C66.7069 80.3348 66.7949 80.5481 66.9496 80.6974C67.1096 80.8414 67.3042 80.9134 67.5336 80.9134C67.8749 80.9134 68.1122 80.7694 68.2456 80.4814H69.7016C69.6269 80.7748 69.4909 81.0388 69.2936 81.2734C69.1016 81.5081 68.8589 81.6921 68.5656 81.8254C68.2722 81.9588 67.9442 82.0254 67.5816 82.0254C67.1442 82.0254 66.7549 81.9321 66.4136 81.7454C66.0722 81.5588 65.8056 81.2921 65.6136 80.9454C65.4216 80.5988 65.3256 80.1934 65.3256 79.7294C65.3256 79.2654 65.4189 78.8601 65.6056 78.5134C65.7976 78.1668 66.0642 77.9001 66.4056 77.7134C66.7469 77.5268 67.1389 77.4334 67.5816 77.4334C68.0136 77.4334 68.3976 77.5241 68.7336 77.7054C69.0696 77.8868 69.3309 78.1454 69.5176 78.4814C69.7096 78.8174 69.8056 79.2094 69.8056 79.6574ZM68.4056 79.2974C68.4056 79.0628 68.3256 78.8761 68.1656 78.7374C68.0056 78.5988 67.8056 78.5294 67.5656 78.5294C67.3362 78.5294 67.1416 78.5961 66.9816 78.7294C66.8269 78.8628 66.7309 79.0521 66.6936 79.2974H68.4056ZM71.8953 78.2414C72.0553 77.9961 72.2553 77.8041 72.4953 77.6654C72.7353 77.5214 73.0019 77.4494 73.2953 77.4494V78.8974H72.9193C72.5779 78.8974 72.3219 78.9721 72.1513 79.1214C71.9806 79.2654 71.8953 79.5214 71.8953 79.8894V81.9614H70.5273V77.4974H71.8953V78.2414ZM75.7651 82.0254C75.3758 82.0254 75.0291 81.9588 74.7251 81.8254C74.4211 81.6921 74.1811 81.5108 74.0051 81.2814C73.8291 81.0468 73.7305 80.7854 73.7091 80.4974H75.0611C75.0771 80.6521 75.1491 80.7774 75.2771 80.8734C75.4051 80.9694 75.5625 81.0174 75.7491 81.0174C75.9198 81.0174 76.0505 80.9854 76.1411 80.9214C76.2371 80.8521 76.2851 80.7641 76.2851 80.6574C76.2851 80.5294 76.2185 80.4361 76.0851 80.3774C75.9518 80.3134 75.7358 80.2441 75.4371 80.1694C75.1171 80.0948 74.8505 80.0174 74.6371 79.9374C74.4238 79.8521 74.2398 79.7214 74.0851 79.5454C73.9305 79.3641 73.8531 79.1214 73.8531 78.8174C73.8531 78.5614 73.9225 78.3294 74.0611 78.1214C74.2051 77.9081 74.4131 77.7401 74.6851 77.6174C74.9625 77.4948 75.2905 77.4334 75.6691 77.4334C76.2291 77.4334 76.6691 77.5721 76.9891 77.8494C77.3145 78.1268 77.5011 78.4948 77.5491 78.9534H76.2851C76.2638 78.7988 76.1945 78.6761 76.0771 78.5854C75.9651 78.4948 75.8158 78.4494 75.6291 78.4494C75.4691 78.4494 75.3465 78.4814 75.2611 78.5454C75.1758 78.6041 75.1331 78.6868 75.1331 78.7934C75.1331 78.9214 75.1998 79.0174 75.3331 79.0814C75.4718 79.1454 75.6851 79.2094 75.9731 79.2734C76.3038 79.3588 76.5731 79.4441 76.7811 79.5294C76.9891 79.6094 77.1705 79.7428 77.3251 79.9294C77.4851 80.1108 77.5678 80.3561 77.5731 80.6654C77.5731 80.9268 77.4985 81.1614 77.3491 81.3694C77.2051 81.5721 76.9945 81.7321 76.7171 81.8494C76.4451 81.9668 76.1278 82.0254 75.7651 82.0254Z" fill="#021206"/>
<path opacity="0.7" d="M39.456 131.401V136.961H38.544V133.153L36.848 136.961H36.216L34.512 133.153V136.961H33.6V131.401H34.584L36.536 135.761L38.48 131.401H39.456ZM44.6947 134.649C44.6947 134.815 44.684 134.964 44.6627 135.097H41.2947C41.3214 135.449 41.452 135.732 41.6867 135.945C41.9214 136.159 42.2094 136.265 42.5507 136.265C43.0414 136.265 43.388 136.06 43.5907 135.649H44.5747C44.4414 136.055 44.1987 136.388 43.8467 136.649C43.5 136.905 43.068 137.033 42.5507 137.033C42.1294 137.033 41.7507 136.94 41.4147 136.753C41.084 136.561 40.8227 136.295 40.6307 135.953C40.444 135.607 40.3507 135.207 40.3507 134.753C40.3507 134.3 40.4414 133.903 40.6227 133.561C40.8094 133.215 41.068 132.948 41.3987 132.761C41.7347 132.575 42.1187 132.481 42.5507 132.481C42.9667 132.481 43.3374 132.572 43.6627 132.753C43.988 132.935 44.2414 133.191 44.4227 133.521C44.604 133.847 44.6947 134.223 44.6947 134.649ZM43.7427 134.361C43.7374 134.025 43.6174 133.756 43.3827 133.553C43.148 133.351 42.8574 133.249 42.5107 133.249C42.196 133.249 41.9267 133.351 41.7027 133.553C41.4787 133.751 41.3454 134.02 41.3027 134.361H43.7427ZM47.8162 132.481C48.1629 132.481 48.4722 132.553 48.7442 132.697C49.0215 132.841 49.2375 133.055 49.3922 133.337C49.5469 133.62 49.6242 133.961 49.6242 134.361V136.961H48.7202V134.497C48.7202 134.103 48.6215 133.801 48.4242 133.593C48.2269 133.38 47.9575 133.273 47.6162 133.273C47.2749 133.273 47.0029 133.38 46.8002 133.593C46.6029 133.801 46.5042 134.103 46.5042 134.497V136.961H45.5922V132.553H46.5042V133.057C46.6535 132.876 46.8429 132.735 47.0722 132.633C47.3069 132.532 47.5549 132.481 47.8162 132.481Z" fill="#021206"/>
<path opacity="0.7" d="M87.84 131.401L86.192 136.961H85.16L83.992 132.753L82.752 136.961L81.728 136.969L80.152 131.401H81.12L82.272 135.929L83.52 131.401H84.544L85.704 135.905L86.864 131.401H87.84ZM90.5042 137.033C90.0882 137.033 89.7122 136.94 89.3762 136.753C89.0402 136.561 88.7762 136.295 88.5842 135.953C88.3922 135.607 88.2962 135.207 88.2962 134.753C88.2962 134.305 88.3949 133.908 88.5922 133.561C88.7895 133.215 89.0589 132.948 89.4002 132.761C89.7415 132.575 90.1229 132.481 90.5442 132.481C90.9655 132.481 91.3469 132.575 91.6882 132.761C92.0295 132.948 92.2989 133.215 92.4962 133.561C92.6935 133.908 92.7922 134.305 92.7922 134.753C92.7922 135.201 92.6909 135.599 92.4882 135.945C92.2855 136.292 92.0082 136.561 91.6562 136.753C91.3095 136.94 90.9255 137.033 90.5042 137.033ZM90.5042 136.241C90.7389 136.241 90.9575 136.185 91.1602 136.073C91.3682 135.961 91.5362 135.793 91.6642 135.569C91.7922 135.345 91.8562 135.073 91.8562 134.753C91.8562 134.433 91.7949 134.164 91.6722 133.945C91.5495 133.721 91.3869 133.553 91.1842 133.441C90.9815 133.329 90.7629 133.273 90.5282 133.273C90.2935 133.273 90.0749 133.329 89.8722 133.441C89.6749 133.553 89.5175 133.721 89.4002 133.945C89.2829 134.164 89.2242 134.433 89.2242 134.753C89.2242 135.228 89.3442 135.596 89.5842 135.857C89.8295 136.113 90.1362 136.241 90.5042 136.241ZM99.0298 132.481C99.3764 132.481 99.6858 132.553 99.9578 132.697C100.235 132.841 100.451 133.055 100.606 133.337C100.766 133.62 100.846 133.961 100.846 134.361V136.961H99.9418V134.497C99.9418 134.103 99.8431 133.801 99.6458 133.593C99.4484 133.38 99.1791 133.273 98.8378 133.273C98.4964 133.273 98.2244 133.38 98.0218 133.593C97.8244 133.801 97.7258 134.103 97.7258 134.497V136.961H96.8218V134.497C96.8218 134.103 96.7231 133.801 96.5258 133.593C96.3284 133.38 96.0591 133.273 95.7178 133.273C95.3764 133.273 95.1044 133.38 94.9018 133.593C94.7044 133.801 94.6058 134.103 94.6058 134.497V136.961H93.6938V132.553H94.6058V133.057C94.7551 132.876 94.9444 132.735 95.1738 132.633C95.4031 132.532 95.6484 132.481 95.9098 132.481C96.2618 132.481 96.5764 132.556 96.8538 132.705C97.1311 132.855 97.3444 133.071 97.4938 133.353C97.6271 133.087 97.8351 132.876 98.1178 132.721C98.4004 132.561 98.7044 132.481 99.0298 132.481ZM101.702 134.737C101.702 134.295 101.793 133.903 101.974 133.561C102.161 133.22 102.412 132.956 102.726 132.769C103.046 132.577 103.398 132.481 103.782 132.481C104.129 132.481 104.43 132.551 104.686 132.689C104.948 132.823 105.156 132.991 105.31 133.193V132.553H106.23V136.961H105.31V136.305C105.156 136.513 104.945 136.687 104.678 136.825C104.412 136.964 104.108 137.033 103.766 137.033C103.388 137.033 103.041 136.937 102.726 136.745C102.412 136.548 102.161 136.276 101.974 135.929C101.793 135.577 101.702 135.18 101.702 134.737ZM105.31 134.753C105.31 134.449 105.246 134.185 105.118 133.961C104.996 133.737 104.833 133.567 104.63 133.449C104.428 133.332 104.209 133.273 103.974 133.273C103.74 133.273 103.521 133.332 103.318 133.449C103.116 133.561 102.95 133.729 102.822 133.953C102.7 134.172 102.638 134.433 102.638 134.737C102.638 135.041 102.7 135.308 102.822 135.537C102.95 135.767 103.116 135.943 103.318 136.065C103.526 136.183 103.745 136.241 103.974 136.241C104.209 136.241 104.428 136.183 104.63 136.065C104.833 135.948 104.996 135.777 105.118 135.553C105.246 135.324 105.31 135.057 105.31 134.753ZM109.652 132.481C109.999 132.481 110.308 132.553 110.58 132.697C110.857 132.841 111.073 133.055 111.228 133.337C111.383 133.62 111.46 133.961 111.46 134.361V136.961H110.556V134.497C110.556 134.103 110.457 133.801 110.26 133.593C110.063 133.38 109.793 133.273 109.452 133.273C109.111 133.273 108.839 133.38 108.636 133.593C108.439 133.801 108.34 134.103 108.34 134.497V136.961H107.428V132.553H108.34V133.057C108.489 132.876 108.679 132.735 108.908 132.633C109.143 132.532 109.391 132.481 109.652 132.481Z" fill="#021206"/>
<circle cx="25" cy="133.961" r="4" fill="#F56060"/>
<circle cx="71" cy="133.961" r="4" fill="#FEB95A"/>
</svg>
