<svg width="158" height="30" viewBox="0 0 158 30" fill="none" xmlns="http://www.w3.org/2000/svg">
<ellipse cx="13.9567" cy="15" rx="13.9567" ry="13" fill="url(#paint0_linear_77_3145)"/>
<path d="M40.5555 22.14C39.5821 22.14 38.7021 21.9733 37.9155 21.64C37.1421 21.3067 36.5288 20.8267 36.0755 20.2C35.6221 19.5733 35.3888 18.8333 35.3755 17.98H38.3755C38.4155 18.5533 38.6155 19.0067 38.9755 19.34C39.3488 19.6733 39.8555 19.84 40.4955 19.84C41.1488 19.84 41.6621 19.6867 42.0355 19.38C42.4088 19.06 42.5955 18.6467 42.5955 18.14C42.5955 17.7267 42.4688 17.3867 42.2155 17.12C41.9621 16.8533 41.6421 16.6467 41.2555 16.5C40.8821 16.34 40.3621 16.1667 39.6955 15.98C38.7888 15.7133 38.0488 15.4533 37.4755 15.2C36.9155 14.9333 36.4288 14.54 36.0155 14.02C35.6155 13.4867 35.4155 12.78 35.4155 11.9C35.4155 11.0733 35.6221 10.3533 36.0355 9.74C36.4488 9.12667 37.0288 8.66 37.7755 8.34C38.5221 8.00667 39.3755 7.84 40.3355 7.84C41.7755 7.84 42.9421 8.19333 43.8355 8.9C44.7421 9.59333 45.2421 10.5667 45.3355 11.82H42.2555C42.2288 11.34 42.0221 10.9467 41.6355 10.64C41.2621 10.32 40.7621 10.16 40.1355 10.16C39.5888 10.16 39.1488 10.3 38.8155 10.58C38.4955 10.86 38.3355 11.2667 38.3355 11.8C38.3355 12.1733 38.4555 12.4867 38.6955 12.74C38.9488 12.98 39.2555 13.18 39.6155 13.34C39.9888 13.4867 40.5088 13.66 41.1755 13.86C42.0821 14.1267 42.8221 14.3933 43.3955 14.66C43.9688 14.9267 44.4621 15.3267 44.8755 15.86C45.2888 16.3933 45.4955 17.0933 45.4955 17.96C45.4955 18.7067 45.3021 19.4 44.9155 20.04C44.5288 20.68 43.9621 21.1933 43.2155 21.58C42.4688 21.9533 41.5821 22.14 40.5555 22.14ZM54.403 22.14C53.0963 22.14 51.8963 21.8333 50.803 21.22C49.7096 20.6067 48.843 19.76 48.203 18.68C47.563 17.5867 47.243 16.3533 47.243 14.98C47.243 13.62 47.563 12.4 48.203 11.32C48.843 10.2267 49.7096 9.37333 50.803 8.76C51.8963 8.14667 53.0963 7.84 54.403 7.84C55.723 7.84 56.923 8.14667 58.003 8.76C59.0963 9.37333 59.9563 10.2267 60.583 11.32C61.223 12.4 61.543 13.62 61.543 14.98C61.543 16.3533 61.223 17.5867 60.583 18.68C59.9563 19.76 59.0963 20.6067 58.003 21.22C56.9096 21.8333 55.7096 22.14 54.403 22.14ZM54.403 19.64C55.243 19.64 55.983 19.4533 56.623 19.08C57.263 18.6933 57.763 18.1467 58.123 17.44C58.483 16.7333 58.663 15.9133 58.663 14.98C58.663 14.0467 58.483 13.2333 58.123 12.54C57.763 11.8333 57.263 11.2933 56.623 10.92C55.983 10.5467 55.243 10.36 54.403 10.36C53.563 10.36 52.8163 10.5467 52.163 10.92C51.523 11.2933 51.023 11.8333 50.663 12.54C50.303 13.2333 50.123 14.0467 50.123 14.98C50.123 15.9133 50.303 16.7333 50.663 17.44C51.023 18.1467 51.523 18.6933 52.163 19.08C52.8163 19.4533 53.563 19.64 54.403 19.64ZM72.2461 8.04V10.3H66.4261V13.88H70.8861V16.1H66.4261V22H63.6261V8.04H72.2461ZM83.7316 8.04V10.3H80.0116V22H77.2116V10.3H73.4916V8.04H83.7316ZM100.72 12.36C100.72 13.1067 100.54 13.8067 100.18 14.46C99.8335 15.1133 99.2802 15.64 98.5202 16.04C97.7735 16.44 96.8268 16.64 95.6802 16.64H93.3402V22H90.5402V8.04H95.6802C96.7602 8.04 97.6802 8.22667 98.4402 8.6C99.2002 8.97333 99.7668 9.48667 100.14 10.14C100.527 10.7933 100.72 11.5333 100.72 12.36ZM95.5602 14.38C96.3335 14.38 96.9068 14.2067 97.2802 13.86C97.6535 13.5 97.8402 13 97.8402 12.36C97.8402 11 97.0802 10.32 95.5602 10.32H93.3402V14.38H95.5602ZM109.188 22.14C107.881 22.14 106.681 21.8333 105.588 21.22C104.495 20.6067 103.628 19.76 102.988 18.68C102.348 17.5867 102.028 16.3533 102.028 14.98C102.028 13.62 102.348 12.4 102.988 11.32C103.628 10.2267 104.495 9.37333 105.588 8.76C106.681 8.14667 107.881 7.84 109.188 7.84C110.508 7.84 111.708 8.14667 112.788 8.76C113.881 9.37333 114.741 10.2267 115.368 11.32C116.008 12.4 116.328 13.62 116.328 14.98C116.328 16.3533 116.008 17.5867 115.368 18.68C114.741 19.76 113.881 20.6067 112.788 21.22C111.695 21.8333 110.495 22.14 109.188 22.14ZM109.188 19.64C110.028 19.64 110.768 19.4533 111.408 19.08C112.048 18.6933 112.548 18.1467 112.908 17.44C113.268 16.7333 113.448 15.9133 113.448 14.98C113.448 14.0467 113.268 13.2333 112.908 12.54C112.548 11.8333 112.048 11.2933 111.408 10.92C110.768 10.5467 110.028 10.36 109.188 10.36C108.348 10.36 107.601 10.5467 106.948 10.92C106.308 11.2933 105.808 11.8333 105.448 12.54C105.088 13.2333 104.908 14.0467 104.908 14.98C104.908 15.9133 105.088 16.7333 105.448 17.44C105.808 18.1467 106.308 18.6933 106.948 19.08C107.601 19.4533 108.348 19.64 109.188 19.64ZM121.211 8.04V22H118.411V8.04H121.211ZM135.918 22H133.118L126.778 12.42V22H123.978V8.02H126.778L133.118 17.62V8.02H135.918V22ZM148.185 8.04V10.3H144.465V22H141.665V10.3H137.945V8.04H148.185Z" fill="#24DC9F"/>
<path d="M13.9565 19.5C16.5703 19.5 18.7509 17.5181 18.7509 15C18.7509 12.4819 16.5703 10.5 13.9565 10.5C11.3427 10.5 9.16211 12.4819 9.16211 15C9.16211 17.5181 11.3427 19.5 13.9565 19.5Z" fill="white" stroke="#F9FEFC"/>
<rect width="19.9216" height="2.20867" rx="1.10433" transform="matrix(0.673706 -0.738999 0.78432 0.620356 48.5723 21.7222)" fill="#FEDF8B"/>
<rect width="19.9174" height="2.20867" rx="1.10433" transform="matrix(0.673706 -0.738999 0.78432 0.620356 107.621 21.719)" fill="#FEDF8B"/>
<defs>
<linearGradient id="paint0_linear_77_3145" x1="12.4174" y1="6.68382" x2="13.7537" y2="28.0127" gradientUnits="userSpaceOnUse">
<stop stop-color="#8EE7CA"/>
<stop offset="1" stop-color="#2FEEAF"/>
</linearGradient>
</defs>
</svg>
